<?xml version="1.0"?>
<svg width="500" height="500" xmlns="http://www.w3.org/2000/svg" xmlns:svg="http://www.w3.org/2000/svg" enable-background="new 0 0 500 500" version="1.1" xml:space="preserve">
 <g class="layer">
  <title>Layer 1</title>
  <g id="BACKGROUND" transform="matrix(1 0 0 1 0 0)">
   <rect fill="#FFFFFF" height="500" id="svg_1" width="500"/>
  </g>
  <g id="OBJECTS">
   <g id="svg_2">
    <path d="m216.79,158.1c-15.63,-56.68 -86.05,-74.95 -126.41,-32.58c-0.58,0.61 -1.16,1.23 -1.74,1.86c-57.85,62.89 -30.52,217.88 90.23,257.17c120.75,39.28 246.34,-32.45 253.4,-96.58c7.06,-64.13 -48.65,-84.28 -135.11,-66.35c-48.84,10.13 -70.65,-28.22 -80.37,-63.52z" fill="#BBE2F2" id="svg_3"/>
    <path d="m317.24,167.8c-16.16,2.63 -20.64,16.94 -8.16,27.1c4.12,3.35 10.01,6.14 18.4,7.54c31.95,5.3 48.91,-8.84 36.1,-27.17c-7.91,-11.31 -30.33,-10.08 -46.34,-7.47z" fill="#BBE2F2" id="svg_4"/>
    <path d="m59.63,282.35c-10.04,-12.93 -24.75,-10.01 -27.69,5.81c-0.98,5.22 -0.6,11.73 2.19,19.76c10.64,30.59 31.17,38.71 41.13,18.69c6.15,-12.36 -5.67,-31.46 -15.63,-44.26z" fill="#BBE2F2" id="svg_5"/>
    <path d="m443.66,295.42c-1.49,7.79 4.94,13.31 12.23,10.31c2.41,-0.99 4.84,-2.91 7.01,-6.27c8.23,-12.81 4.06,-23.8 -7.41,-22.68c-7.08,0.7 -10.36,10.92 -11.83,18.64z" fill="#BBE2F2" id="svg_6"/>
    <path d="m402.81,213.2c7.77,1.63 13.4,-4.71 10.52,-12.05c-0.95,-2.43 -2.82,-4.89 -6.15,-7.11c-12.67,-8.45 -23.73,-4.47 -22.8,7.02c0.58,7.08 10.74,10.54 18.43,12.14z" fill="#BBE2F2" id="svg_7"/>
    <path d="m214.09,129.83c6.15,5.01 14.06,1.98 14.88,-5.87c0.28,-2.59 -0.25,-5.63 -2.18,-9.14c-7.36,-13.33 -19.02,-14.88 -23.47,-4.26c-2.76,6.56 4.68,14.3 10.77,19.27z" fill="#BBE2F2" id="svg_8"/>
   </g>
   <g id="svg_9">
    <path d="m462.91,334.4c12.33,-12.4 21.72,-26.4 12.38,-28.59c-9.35,-2.18 -25.05,22.23 -27.79,44.44l-2.74,7.34c2.28,-16.16 -3.26,-35.84 -11.36,-36.65c-8.06,-0.81 -3.18,11.96 3.22,22.88c4.87,8.31 6.15,14.86 6.47,18.25l-12.93,34.64c3.53,-25.59 -5.24,-56.65 -18.07,-57.93c-12.78,-1.28 -5.04,18.98 5.11,36.3c7.67,13.09 9.73,23.44 10.26,28.85l-2.58,6.91c1.13,0.64 2.26,1.26 3.4,1.89l15.38,-41.22c2.97,-2.22 7.48,-4.89 13.89,-7.07c11.99,-4.05 24.04,-10.5 17.43,-15.17c-5.74,-4.05 -19.23,3.75 -28.52,14.76l5.32,-14.26c2.4,-4.12 5.81,-10.02 11.13,-15.37z" fill="#1C31B5" id="svg_10"/>
    <path d="m74.27,172.7c1.6,-14.97 0.36,-29.44 -7.09,-25.87c-7.46,3.57 -4.85,28.43 5.29,44.82l2.12,6.41c-7.18,-12.08 -21.51,-22.31 -27.39,-18.49c-5.84,3.8 4.31,9.74 14.49,13.63c7.75,2.95 12.15,6.66 14.19,8.77l9.99,30.23c-11.43,-19.09 -34.06,-35.21 -43.36,-29.16c-9.27,6.03 6.84,15.46 23,21.62c12.2,4.66 19.17,10.5 22.44,13.85l1.99,6.03c1.1,-0.19 2.2,-0.37 3.3,-0.57l-11.89,-35.97c0.8,-3.09 2.38,-7.32 5.52,-12.23c5.87,-9.19 10.48,-20.01 3.52,-19.58c-6.03,0.37 -10.89,12.88 -11.2,25.28l-4.11,-12.44c-0.61,-4.07 -1.5,-9.87 -0.81,-16.33z" fill="#1C31B5" id="svg_11"/>
    <g id="svg_12">
     <g id="svg_13">
      <path d="m379.68,375.57c0.16,0.85 0.34,1.77 0.55,2.76l0,0c2.22,10.32 7.67,27.22 19.94,30.54c0,0 -6.68,-34.8 17.11,-43.87c23.79,-9.06 21.16,-17.7 19.8,-33.06s-6.62,-18.29 9.89,-32.68c16.51,-14.39 13.35,-35.83 13.35,-35.83s-15.62,24.48 -32.31,25.05c-16.68,0.56 -19.6,14.81 -18.89,25.4c0.71,10.59 -13.46,11.79 -21.13,17.93c-7.67,6.15 -9.11,38.41 -9.11,38.41s0.21,2.11 0.8,5.35z" fill="#009CF8" id="svg_14"/>
     </g>
     <g id="svg_15">
      <path d="m379.68,375.57c0.16,0.85 0.34,1.77 0.55,2.76c1.72,-5.18 4.12,-9.53 6.37,-12.87c5.34,-7.91 12.86,-14.4 19.62,-16.95c10.76,-4.06 16.01,-14.61 17.03,-34.23c0.59,-11.39 12.5,-18.11 12.63,-18.18c0.34,-0.19 0.47,-0.63 0.28,-0.98c-0.19,-0.35 -0.63,-0.48 -0.98,-0.28c-0.52,0.28 -12.74,7.17 -13.37,19.36c-0.99,18.97 -5.95,29.13 -16.1,32.96c-7.14,2.69 -14.72,9.22 -20.3,17.49c-1.98,2.92 -4.06,6.6 -5.73,10.92z" fill="#006BDE" id="svg_16"/>
     </g>
    </g>
    <g id="svg_17">
     <g id="svg_18">
      <path d="m116.36,408.68l16.71,0c-9.03,-1.49 -31.42,-11.11 -33.42,-30.39c-2.53,-24.41 -11.23,-24.11 -25.88,-26.66c-14.65,-2.56 -18.68,1.61 -27.99,-17.34c-9.3,-18.96 -30.06,-21.35 -30.06,-21.35s18.92,20.64 15.3,36.33c-3.62,15.68 8.93,21.95 18.97,23.92c10.05,1.97 7.64,15.47 11.46,24.14c1.74,3.96 8.87,8.06 16.11,11.35l38.8,0z" fill="#006BDE" id="svg_19"/>
     </g>
     <g id="svg_20">
      <path d="m80.15,384.64c0.73,7.32 4.93,16.01 11.25,23.27c0.22,0.25 0.45,0.51 0.69,0.77l1.9,0c-0.55,-0.57 -1.06,-1.14 -1.54,-1.69c-6.04,-6.94 -10.22,-15.56 -10.92,-22.49c-1.1,-11.03 -9.63,-18.55 -27.65,-24.38c-10.46,-3.38 -13.77,-16.15 -13.8,-16.28c-0.09,-0.38 -0.47,-0.6 -0.84,-0.51c-0.37,0.09 -0.6,0.47 -0.51,0.84c0.14,0.56 3.52,13.65 14.72,17.27c17.42,5.64 25.66,12.79 26.7,23.2z" fill="#1C31B5" id="svg_21"/>
     </g>
    </g>
    <g id="svg_22">
     <g id="svg_23">
      <path d="m125.37,363.36c-0.35,1.19 -0.75,2.48 -1.2,3.85l-0.01,0.01c-4.75,14.38 -14.5,38.61 -32.5,41.46c0,0 14.25,-49.58 -18.3,-66.17s-27.46,-28.5 -23.16,-50.21c4.3,-21.7 12.25,-25.08 -9.09,-48.14c-21.33,-23.07 -13.53,-53.16 -13.53,-53.16s18.52,37.31 42.24,40.69c23.71,3.37 25.69,24.14 23.05,39.14c-2.65,15.01 17.39,18.89 27.38,28.84c9.99,9.94 7.09,56.19 7.09,56.19s-0.62,2.97 -1.97,7.5z" fill="#009CF8" id="svg_24"/>
     </g>
     <g id="svg_25">
      <path d="m125.37,363.36c-0.35,1.19 -0.75,2.48 -1.2,3.85c-1.65,-7.65 -4.41,-14.22 -7.11,-19.33c-6.4,-12.1 -16.12,-22.52 -25.37,-27.2c-14.73,-7.44 -20.61,-23.3 -19.05,-51.45c0.91,-16.33 -15.05,-27.76 -15.21,-27.87c-0.47,-0.33 -0.58,-0.97 -0.25,-1.44c0.33,-0.47 0.97,-0.58 1.44,-0.26c0.7,0.49 17.07,12.19 16.1,29.69c-1.52,27.2 4.01,42.46 17.9,49.49c9.76,4.93 19.58,15.42 26.27,28.07c2.36,4.47 4.78,10.03 6.48,16.45z" fill="#006BDE" id="svg_26"/>
     </g>
    </g>
   </g>
   <g id="svg_27">
    <g id="svg_28">
     <path d="m138.28,397.02c0.06,3.77 0.13,7.69 0.21,11.66l36.36,0c0.07,-4.34 0.12,-8.5 0.16,-12.41c0.11,-10.58 0.12,-19.29 0.11,-24.71c0,-3.83 -0.02,-6.01 -0.02,-6.01l-37.07,-0.39c0,0 0,3.2 0.03,8.44c0.02,5.82 0.09,14.15 0.22,23.42z" fill="#18315B" id="svg_29"/>
     <path d="m138.06,373.6c0.02,5.82 0.09,14.15 0.22,23.42c11.43,0.87 23.95,0.88 36.73,-0.75c0.11,-10.58 0.12,-19.29 0.12,-24.71l-37.07,2.04z" fill="#000B29" id="svg_30"/>
    </g>
    <g id="svg_31">
     <path d="m92.46,388.66c0.04,5.93 0.11,12.72 0.23,20.02l36.36,0c0.09,-4.28 0.16,-8.5 0.22,-12.54c0.13,-8.66 0.19,-16.46 0.23,-22.07c0.02,-5.52 0.02,-8.91 0.02,-8.91l-37.09,0.39c0,0 -0.03,3.93 -0.02,10.55c0,3.5 0.02,7.74 0.05,12.56z" fill="#18315B" id="svg_32"/>
     <path d="m92.41,376.1c0,3.5 0.02,7.74 0.05,12.56c7.39,2.18 20.6,5.56 36.81,7.48c0.13,-8.66 0.2,-16.46 0.23,-22.07l-37.09,2.03z" fill="#000B29" id="svg_33"/>
    </g>
    <g id="svg_34">
     <path d="m153.37,170.08c0,0 5.84,-5.63 5.82,-11.18c-0.02,-5.56 -3.8,-3.92 -5.82,-9.1c-2.03,-5.17 -8.05,-8.33 -11.36,-7.7c-3.3,0.63 -10.27,-12.25 -19.73,-9.98c-9.46,2.27 -8.64,14.4 -12.71,16.17c-4.08,1.77 -2.94,8.96 -0.79,10.61c2.15,1.64 3.05,8.24 4.26,8.09c1.21,-0.15 40.33,3.09 40.33,3.09z" fill="#18315B" id="svg_35"/>
     <g id="svg_36">
      <path d="m114.04,169.95c0,0 -3.67,-4.9 -6.4,-0.85c-2.74,4.05 1.13,16.01 7.81,13.09l-1.41,-12.24z" fill="#F97853" id="svg_37"/>
      <g id="svg_38">
       <path d="m113.99,178.5c-0.24,0 -0.47,-0.17 -0.54,-0.42c-1.04,-3.69 -4.86,-5.19 -4.9,-5.2c-0.29,-0.11 -0.44,-0.44 -0.33,-0.73c0.11,-0.29 0.44,-0.44 0.73,-0.33c0.18,0.07 4.39,1.7 5.59,5.96c0.08,0.3 -0.09,0.61 -0.39,0.69c-0.05,0.02 -0.11,0.03 -0.16,0.03z" fill="#EA5143" id="svg_39"/>
      </g>
      <g id="svg_40">
       <path d="m110.13,176.63c-0.1,0 -0.21,-0.02 -0.3,-0.09c-0.27,-0.16 -0.34,-0.51 -0.17,-0.78c0.03,-0.04 0.7,-1.07 2.12,-1.71c0.28,-0.12 0.62,0 0.74,0.29c0.13,0.28 0,0.62 -0.28,0.74c-1.1,0.49 -1.63,1.29 -1.63,1.29c-0.11,0.17 -0.29,0.26 -0.48,0.26z" fill="#EA5143" id="svg_41"/>
      </g>
     </g>
     <g id="svg_42">
      <path d="m151.9,169.95c0,0 3.67,-4.9 6.4,-0.85c2.73,4.05 -1.13,16.01 -7.81,13.09l1.41,-12.24z" fill="#F97853" id="svg_43"/>
      <g id="svg_44">
       <path d="m151.95,178.5c0.24,0 0.47,-0.17 0.54,-0.42c1.04,-3.69 4.86,-5.19 4.9,-5.2c0.29,-0.11 0.44,-0.44 0.33,-0.73c-0.11,-0.29 -0.44,-0.44 -0.73,-0.33c-0.18,0.07 -4.4,1.7 -5.59,5.96c-0.08,0.3 0.09,0.61 0.39,0.69c0.05,0.02 0.11,0.03 0.16,0.03z" fill="#EA5143" id="svg_45"/>
      </g>
      <g id="svg_46">
       <g id="svg_47">
        <path d="m155.81,176.63c0.1,0 0.21,-0.02 0.3,-0.09c0.27,-0.16 0.34,-0.51 0.17,-0.78c-0.03,-0.04 -0.7,-1.07 -2.12,-1.71c-0.28,-0.12 -0.62,0 -0.75,0.29c-0.12,0.28 0,0.62 0.29,0.74c1.09,0.49 1.63,1.29 1.63,1.29c0.11,0.17 0.29,0.26 0.48,0.26z" fill="#EA5143" id="svg_48"/>
       </g>
      </g>
     </g>
     <path d="m142.01,192.34l0,11.9c0,0 -3.54,6.05 -8.34,6.47c-4.79,0.41 -9.05,-5.22 -9.05,-5.22l0,-12.31l17.39,-0.84z" fill="#FFA681" id="svg_49"/>
     <path d="m142.01,192.34l0,5.28c-3.22,3.57 -8.93,4.46 -17.39,3.21l0,-7.65l17.39,-0.84z" fill="#F97853" id="svg_50"/>
     <path d="m154.56,161.79c-0.22,4.62 -0.67,10.4 -1.55,15.02c-0.22,1.16 -0.47,2.24 -0.74,3.21c-2.51,8.77 -8.77,23.8 -26.3,17.54c-7.74,-2.76 -11.33,-11.39 -12.93,-20.16c-1.09,-5.96 -1.25,-11.97 -1.17,-16.27c0.08,-4.4 2.48,-8.41 6.3,-10.57c10.35,-5.87 21.27,-3.68 28.46,-0.92c4.99,1.92 8.18,6.82 7.93,12.15z" fill="#FFA681" id="svg_51"/>
     <path d="m113.04,177.4c0,0 1.7,10.14 3.31,13.83c1.61,3.7 6,4.39 7.65,7.51c2.35,4.46 5.93,7.99 11.83,5.84c4.9,-1.79 4.68,-4.3 7.43,-6.24c4.7,-3.33 7.04,-6.98 7.23,-10.01c0.19,-3.04 2.52,-11.52 2.52,-11.52l-2.52,-0.17c0,0 -1.44,2.98 -3.56,6.26c-2.13,-4.66 -12.37,-1.27 -12.37,-1.27l-1.95,0.63l-2.01,-0.63c0,0 -10.36,-3.25 -12.41,1.64c-1.25,-1.91 -2.27,-4.07 -2.74,-6.35l-2.41,0.48zm19.57,6.44c11.74,-2.01 9.64,4.86 9.57,5.11l0,0c-0.01,0.01 -0.01,0.01 -0.01,0.01c-0.79,0.76 -1.6,1.39 -2.41,1.83c-4.55,2.46 -5.04,2.09 -6.84,2.17c-1.83,0.08 -4.35,-0.46 -6.9,-1.89c-0.8,-0.44 -1.99,-1.31 -3.29,-2.5c0,0 -1.85,-6.31 9.88,-4.73z" fill="#18315B" id="svg_52"/>
     <path d="m125.55,171.5c0,1.27 -0.66,2.3 -1.47,2.3c-0.8,0 -1.46,-1.03 -1.46,-2.3c0,-1.27 0.66,-2.3 1.46,-2.3c0.81,0 1.47,1.03 1.47,2.3z" fill="#18315B" id="svg_53"/>
     <path d="m142.93,171.5c0,1.27 -0.66,2.3 -1.47,2.3c-0.8,0 -1.46,-1.03 -1.46,-2.3c0,-1.27 0.66,-2.3 1.46,-2.3c0.81,0 1.47,1.03 1.47,2.3z" fill="#18315B" id="svg_54"/>
     <path d="m147.22,163.93c0,0 -6.04,-2.39 -10.69,-0.38l0.46,2.59c0,0 6.83,-0.58 10.27,0.81c0.3,-0.99 0.35,-2 -0.04,-3.02z" fill="#18315B" id="svg_55"/>
     <path d="m118.5,163.94c0,0 6.08,-2.4 10.77,-0.38l-0.47,2.61c0,0 -6.88,-0.59 -10.35,0.82c-0.3,-1 -0.35,-2.02 0.05,-3.05z" fill="#18315B" id="svg_56"/>
     <g id="svg_57">
      <path d="m133.17,181.14c0.95,0 1.89,-0.37 2.04,-0.43c0.29,-0.12 0.43,-0.45 0.31,-0.74c-0.12,-0.29 -0.45,-0.43 -0.74,-0.31c-0.5,0.21 -1.73,0.53 -2.26,0.21c-0.11,-0.06 -0.24,-0.18 -0.28,-0.52c-0.2,-1.98 0.34,-8.59 0.34,-8.66c0.03,-0.31 -0.2,-0.58 -0.51,-0.61c-0.32,-0.02 -0.59,0.21 -0.61,0.52c-0.03,0.28 -0.56,6.79 -0.34,8.86c0.08,0.79 0.49,1.19 0.82,1.38c0.36,0.22 0.79,0.3 1.23,0.3z" fill="#F97853" id="svg_58"/>
     </g>
     <path d="m125.96,184.97c0.43,2.16 1.86,6.13 6.66,6.13c4.82,0 6.17,-3.63 6.63,-6.13l-13.29,0z" fill="#FFFFFF" id="svg_59"/>
     <path d="m154.56,161.79c-0.22,4.62 -0.67,10.4 -1.55,15.02l-2.52,-0.18c0,0 0.61,-3.9 0.89,-6.44c0.28,-2.55 0.76,-7.3 -1.41,-7.89c-2.16,-0.59 -0.89,-6.01 -3.9,-8.36c-3.01,-2.36 -9.71,-4.44 -14.15,-1.7c-4.44,2.73 -9.49,1.22 -11.54,1.7c-2.05,0.47 -4.83,3.29 -4.08,5.93c0.76,2.63 -1.5,4.24 -2.05,6.97c-0.55,2.73 1.2,10.07 1.2,10.07l-2.41,0.49c-1.08,-5.96 -1.25,-11.98 -1.17,-16.28c0.09,-4.39 2.48,-8.4 6.3,-10.56c10.35,-5.87 21.27,-3.68 28.46,-0.92c4.99,1.92 8.18,6.82 7.93,12.15z" fill="#18315B" id="svg_60"/>
    </g>
    <g id="svg_61">
     <g id="svg_62">
      <path d="m182.79,383.42c-11.44,2.9 -22.87,4.77 -34.32,5.63c-0.52,0.04 -1.03,0.08 -1.55,0.12c-1.57,0.1 -3.14,0.19 -4.72,0.26c-7.78,0.33 -15.56,0.2 -23.35,-0.4c-1.57,-0.12 -3.14,-0.26 -4.71,-0.42c-0.5,-0.05 -1,-0.1 -1.5,-0.16c-9.3,-1.01 -18.59,-2.69 -27.9,-5.03c-0.09,-8.57 0.02,-35.66 0.54,-65.04c0.06,-3.53 0.13,-7.09 0.21,-10.66c0.82,-38.72 2.41,-78.03 5.28,-81.96c2.74,-3.77 11,-8.56 18.9,-12.88c0.47,-0.26 0.95,-0.52 1.41,-0.77c1.78,-0.97 3.52,-1.9 5.15,-2.79c3.5,-1.9 6.52,-3.6 8.39,-4.91l0,1.08c0,0 4.25,5.63 9.04,5.22c4.37,-0.38 7.7,-5.43 8.27,-6.33c2.06,1.45 5.76,3.45 10.05,5.72c1.2,0.63 2.43,1.28 3.69,1.95c0.47,0.24 0.93,0.49 1.4,0.74c8.74,4.63 18.16,9.86 20.99,13.74c0.21,0.29 0.41,0.77 0.6,1.43c1.68,5.67 2.72,24.47 3.35,47.24c0,0.08 0,0.16 0.01,0.24c0.02,0.92 0.05,1.85 0.07,2.78c0,0.12 0.01,0.25 0.01,0.37c0.21,7.99 0.36,16.4 0.48,24.85c0.01,0.67 0.03,1.34 0.03,2.01c0.01,0.33 0.01,0.67 0.01,1c0.03,1.67 0.05,3.33 0.06,4.99c0.02,1.22 0.04,2.44 0.05,3.66c0.31,30.54 0.18,59.35 0.06,68.32z" fill="#006BDE" id="svg_63"/>
     </g>
     <g id="svg_64">
      <path d="m182.09,278.23c-2.75,-4.5 -5.71,-9.09 -8.49,-13.14c-0.01,-0.01 -0.01,-0.02 -0.02,-0.03c-1.17,-1.71 -2.31,-3.32 -3.39,-4.78c-0.02,-0.03 -0.03,-0.06 -0.05,-0.08c-0.34,-0.46 -0.68,-0.91 -1,-1.35c-0.06,-0.07 -0.1,-0.15 -0.12,-0.23l0,-0.01c-0.09,-0.29 0.01,-0.62 0.27,-0.82c0.33,-0.25 0.81,-0.19 1.06,0.15c3.34,4.43 7.62,10.8 11.66,17.26c0,0.08 0,0.16 0.01,0.24c0.02,0.93 0.05,1.85 0.07,2.79z" fill="#264CBE" id="svg_65"/>
     </g>
     <path d="m178.18,225.91c0,0 17.24,31.59 27.75,47.6c0,0 5.98,-5.49 13.76,-12.83c8.43,-7.97 19.95,-21.28 19.95,-21.28l6.38,7.56c0,0 -25.9,46.62 -37.52,52.48c-11.62,5.86 -33.03,-35.61 -33.03,-35.61l2.71,-37.92z" fill="#006BDE" id="svg_66"/>
     <g id="svg_67">
      <path d="m105.16,350.43c-0.01,0 -0.02,0 -0.03,0c-0.43,-0.02 -0.77,-0.38 -0.75,-0.81c0.9,-25.52 -12.33,-33.78 -12.46,-33.86c-0.37,-0.22 -0.49,-0.7 -0.27,-1.07c0.22,-0.37 0.7,-0.49 1.07,-0.27c0.15,0.09 3.64,2.21 7.03,7.66c3.09,4.97 6.68,13.79 6.19,27.59c-0.02,0.43 -0.36,0.76 -0.78,0.76z" fill="#264CBE" id="svg_68"/>
     </g>
     <g id="svg_69">
      <path d="m161.6,326.39c-0.4,0 -0.74,-0.31 -0.77,-0.72c-0.42,-5.37 1.35,-9.29 3.59,-14.25c0.65,-1.46 1.33,-2.96 2.03,-4.64c4.34,-10.55 2.16,-22.6 2.14,-22.73c-0.08,-0.42 0.2,-0.83 0.62,-0.91c0.42,-0.08 0.83,0.2 0.91,0.63c0.1,0.51 2.29,12.63 -2.23,23.61c-0.71,1.7 -1.39,3.21 -2.05,4.68c-2.23,4.94 -3.85,8.51 -3.46,13.49c0.03,0.43 -0.29,0.8 -0.72,0.84c-0.02,0 -0.04,0 -0.06,0z" fill="#264CBE" id="svg_70"/>
     </g>
     <g id="svg_71">
      <path d="m116.23,209.32c0.33,2.51 0.82,5.77 1.36,9.47c0.16,1.1 0.32,2.24 0.49,3.41c0.54,3.83 1.1,7.99 1.58,12.19c0.13,1.13 0.25,2.27 0.36,3.39c0.42,4.17 0.74,8.3 0.86,12.15c0.03,1.16 0.05,2.3 0.04,3.4c-0.01,2.94 -0.17,5.64 -0.52,7.95c-0.23,1.45 -0.43,2.88 -0.61,4.27c-0.15,1.16 -0.28,2.3 -0.4,3.41c-0.45,4.34 -0.68,8.38 -0.74,12.19c-0.02,1.16 -0.03,2.29 -0.01,3.4c0.03,4.32 0.28,8.35 0.63,12.18c0.11,1.15 0.22,2.28 0.35,3.39c0.46,4.19 1.03,8.18 1.57,12.13c0.15,1.13 0.3,2.25 0.45,3.38c0.23,1.8 0.45,3.61 0.64,5.42c0.2,1.93 0.33,4.18 0.39,6.67c0.03,1.09 0.05,2.24 0.05,3.41c0.01,3.74 -0.08,7.87 -0.25,12.19c-0.05,1.13 -0.1,2.28 -0.16,3.43c-0.19,4.02 -0.44,8.15 -0.73,12.22c-0.08,1.15 -0.16,2.29 -0.25,3.43c-0.32,4.24 -0.66,8.38 -1.02,12.22c-0.1,1.17 -0.21,2.31 -0.31,3.42c-0.41,4.23 -0.8,7.99 -1.15,10.99c7.79,0.6 15.57,0.73 23.36,0.4c0.18,-3.2 0.67,-8.35 1.16,-14.42c0.09,-1.11 0.18,-2.25 0.27,-3.42c0.29,-3.85 0.55,-7.98 0.73,-12.14c0.05,-1.14 0.09,-2.28 0.12,-3.42c0.12,-4.16 0.12,-8.28 -0.06,-12.15c-0.05,-1.17 -0.12,-2.32 -0.21,-3.44c-0.09,-1.14 -0.2,-2.26 -0.33,-3.33c-0.38,-3.04 -0.52,-5.96 -0.5,-8.85c0,-1.14 0.03,-2.28 0.08,-3.42c0.18,-3.95 0.62,-7.92 1.12,-12.13c0.13,-1.11 0.27,-2.25 0.41,-3.41c0.45,-3.74 0.92,-7.71 1.29,-12.06c0.1,-1.11 0.19,-2.25 0.27,-3.42c0.26,-3.73 0.43,-7.73 0.46,-12.1c0.01,-1.12 0,-2.27 -0.01,-3.45c-0.04,-3.77 -0.2,-7.82 -0.51,-12.17c-0.03,-0.39 -0.05,-0.78 -0.08,-1.17c-0.06,-0.76 -0.11,-1.53 -0.14,-2.3c-0.2,-3.97 -0.15,-8.06 0.07,-12.13c0.06,-1.14 0.14,-2.29 0.23,-3.43c0.31,-4.08 0.77,-8.12 1.3,-11.99c0.15,-1.15 0.32,-2.29 0.48,-3.41c0.64,-4.25 1.33,-8.24 1.96,-11.81c0.2,-1.17 0.4,-2.3 0.59,-3.38c0.43,-2.41 0.8,-4.56 1.08,-6.38c-4.3,-2.27 -8,-4.27 -10.06,-5.72c-0.56,0.91 -3.89,5.95 -8.26,6.33c-4.8,0.42 -9.05,-5.21 -9.05,-5.21l0,-1.08c-1.87,1.3 -4.89,3 -8.39,4.9z" fill="#FFFFFF" id="svg_72"/>
      <g id="svg_73">
       <g id="svg_74">
        <path d="m117.59,218.79c0.16,1.1 0.32,2.24 0.49,3.41c4.3,0.1 9.35,-0.54 15.44,-1.95c6.51,-1.5 12.26,-1.24 16.79,-0.39c0.21,-1.18 0.41,-2.31 0.6,-3.38c-4.91,-0.91 -11.1,-1.17 -18.16,0.45c-6,1.39 -11.01,2.02 -15.16,1.86z" fill="#E3E3E3" id="svg_75"/>
       </g>
       <g id="svg_76">
        <path d="m119.66,234.39c0.13,1.13 0.25,2.27 0.36,3.39c3.87,-0.1 8.31,-0.74 13.5,-1.94c5.39,-1.25 10.26,-1.28 14.36,-0.77c0.15,-1.15 0.32,-2.29 0.48,-3.41c-4.44,-0.55 -9.72,-0.5 -15.61,0.85c-5.04,1.17 -9.37,1.8 -13.09,1.88z" fill="#E3E3E3" id="svg_77"/>
       </g>
       <g id="svg_78">
        <path d="m120.88,249.93c0.03,1.16 0.05,2.3 0.04,3.4c3.65,-0.17 7.8,-0.8 12.6,-1.91c4.73,-1.09 9.07,-1.25 12.83,-0.92c0.06,-1.15 0.14,-2.29 0.22,-3.44c-4.04,-0.33 -8.71,-0.14 -13.82,1.04c-4.5,1.04 -8.43,1.65 -11.87,1.83z" fill="#E3E3E3" id="svg_79"/>
       </g>
       <g id="svg_80">
        <path d="m119.39,268.96c4.01,-0.04 8.65,-0.69 14.13,-1.96c4.79,-1.1 9.18,-1.25 12.98,-0.9c-0.03,-0.39 -0.06,-0.78 -0.09,-1.17c-0.05,-0.77 -0.1,-1.54 -0.14,-2.3c-3.97,-0.3 -8.53,-0.1 -13.52,1.05c-4.98,1.15 -9.27,1.78 -12.96,1.87c-0.15,1.16 -0.28,2.3 -0.4,3.41z" fill="#E3E3E3" id="svg_81"/>
       </g>
       <g id="svg_82">
        <path d="m118.63,284.55c4.18,0.03 9.06,-0.62 14.89,-1.96c5.02,-1.16 9.59,-1.27 13.5,-0.87c0,-1.13 0,-2.28 -0.02,-3.45c-4.14,-0.38 -8.95,-0.22 -14.25,1c-5.5,1.27 -10.16,1.91 -14.1,1.88c-0.02,1.16 -0.03,2.29 -0.02,3.4z" fill="#E3E3E3" id="svg_83"/>
       </g>
       <g id="svg_84">
        <path d="m119.27,296.73c0.11,1.15 0.22,2.28 0.34,3.4c3.96,-0.07 8.53,-0.72 13.91,-1.96c4.71,-1.08 9.03,-1.25 12.77,-0.93c0.1,-1.12 0.18,-2.26 0.27,-3.42c-4.05,-0.34 -8.71,-0.15 -13.81,1.03c-5.21,1.2 -9.68,1.84 -13.48,1.88z" fill="#E3E3E3" id="svg_85"/>
       </g>
       <g id="svg_86">
        <path d="m121.18,312.25c0.16,1.13 0.31,2.25 0.46,3.38c3.47,-0.22 7.39,-0.84 11.88,-1.87c4.01,-0.93 7.74,-1.19 11.06,-1.05c0.14,-1.12 0.28,-2.25 0.42,-3.41c-3.67,-0.17 -7.79,0.1 -12.25,1.13c-4.37,1.01 -8.2,1.62 -11.57,1.82z" fill="#E3E3E3" id="svg_87"/>
       </g>
       <g id="svg_88">
        <path d="m122.67,327.72c0.03,1.09 0.04,2.24 0.05,3.41c3.2,-0.27 6.77,-0.86 10.8,-1.79c3.54,-0.82 6.85,-1.11 9.87,-1.08c0,-1.14 0.03,-2.28 0.08,-3.42c-3.27,-0.03 -6.87,0.29 -10.72,1.18c-3.74,0.86 -7.08,1.43 -10.08,1.7z" fill="#E3E3E3" id="svg_89"/>
       </g>
       <g id="svg_90">
        <path d="m122.31,346.75c3.31,-0.25 7.01,-0.86 11.21,-1.83c3.95,-0.91 7.62,-1.17 10.91,-1.04c-0.05,-1.18 -0.12,-2.32 -0.21,-3.44c-3.47,-0.1 -7.32,0.2 -11.47,1.16c-3.82,0.88 -7.24,1.46 -10.29,1.72c-0.04,1.13 -0.09,2.28 -0.15,3.43z" fill="#E3E3E3" id="svg_91"/>
       </g>
       <g id="svg_92">
        <path d="m121.33,362.4c3.55,-0.2 7.57,-0.83 12.19,-1.89c3.92,-0.91 7.57,-1.18 10.85,-1.06c0.05,-1.14 0.09,-2.28 0.12,-3.42c-3.54,-0.12 -7.48,0.17 -11.74,1.15c-4.19,0.97 -7.9,1.58 -11.17,1.8c-0.08,1.14 -0.17,2.28 -0.25,3.42z" fill="#E3E3E3" id="svg_93"/>
       </g>
       <g id="svg_94">
        <path d="m119.99,378.04c3.87,-0.1 8.32,-0.75 13.53,-1.95c3.53,-0.82 6.84,-1.11 9.85,-1.08c0.09,-1.11 0.18,-2.25 0.27,-3.42c-3.32,-0.05 -6.97,0.27 -10.89,1.18c-4.75,1.09 -8.87,1.72 -12.44,1.85c-0.11,1.17 -0.21,2.31 -0.32,3.42z" fill="#E3E3E3" id="svg_95"/>
       </g>
      </g>
     </g>
     <g id="svg_96">
      <g id="svg_97">
       <path d="m146.92,389.17c0.52,-0.04 1.03,-0.08 1.55,-0.11c3.07,-18.05 1.3,-44.53 0.64,-52.65c-0.68,-8.43 0.63,-19.26 3.6,-29.72c2.3,-8.12 0.89,-26.96 -0.24,-42.09c-0.32,-4.25 -0.62,-8.26 -0.8,-11.56c-0.58,-10.65 3.27,-30.37 5.4,-40.25c-0.47,-0.25 -0.94,-0.5 -1.4,-0.74c-2.13,9.78 -6.12,29.94 -5.52,41.08c0.18,3.31 0.49,7.33 0.8,11.58c1.13,15.02 2.53,33.7 0.3,41.56c-3.01,10.63 -4.34,21.66 -3.65,30.26c0.66,8.13 2.44,34.78 -0.68,52.64z" fill="#264CBE" id="svg_98"/>
      </g>
      <g id="svg_99">
       <path d="m115.48,315.75c1.81,11.09 1.24,18.3 0.58,26.64c-0.21,2.7 -0.43,5.48 -0.59,8.56c-0.48,9.65 -2.11,29.09 -2.84,37.5c0.51,0.06 1.01,0.11 1.51,0.16c0.73,-8.41 2.36,-27.9 2.85,-37.59c0.15,-3.05 0.37,-5.83 0.58,-8.51c0.66,-8.44 1.24,-15.73 -0.59,-27c-0.39,-2.42 -0.81,-4.88 -1.22,-7.32c-2.05,-12.09 -4.16,-24.6 -3.16,-30.59c0.24,-1.46 0.55,-3.12 0.89,-4.88c1.35,-7.23 3.05,-16.22 2.51,-24.03c-0.53,-7.73 -3.7,-28.68 -4.91,-36.58c-0.47,0.25 -0.94,0.51 -1.42,0.77c1.27,8.26 4.31,28.4 4.82,35.91c0.52,7.62 -1.15,16.51 -2.49,23.65c-0.34,1.77 -0.65,3.43 -0.9,4.91c-1.03,6.24 1,18.31 3.16,31.09c0.42,2.44 0.83,4.89 1.22,7.31z" fill="#264CBE" id="svg_100"/>
      </g>
     </g>
    </g>
    <g id="svg_101">
     <path d="m85.66,238.62c0,0 -15.44,51.48 -19.26,69.83c-3.82,18.34 -4.12,56.48 -4.12,56.48s-6.75,14.01 -6.91,20.25c-0.17,6.64 3.32,11.93 2.92,16.28c-0.39,4.35 4.9,1.99 3.4,-6.82s2.75,-16.79 4.58,-16.53c1.84,0.25 -1.51,9.62 0.12,12.99c1.62,3.37 3.73,-3.18 5.82,-7.16c2.18,-4.13 2.05,-13.14 1.06,-19.57c-0.99,-6.43 10.67,-45.5 10.72,-56.82l14.77,-49.89c0,0 -4.88,-20.82 -13.1,-19.04z" fill="#FFA681" id="svg_102"/>
     <path d="m100.65,256.41c-0.52,3.31 -2.35,8.99 -4.72,16.13l0,0.01c-0.2,0.6 -0.4,1.21 -0.61,1.84c-0.01,0.02 -0.02,0.05 -0.03,0.08c-0.59,1.78 -1.21,3.64 -1.84,5.57c-0.01,0.01 -0.01,0.02 -0.01,0.03c-2.62,7.95 -5.52,17.04 -7.95,26.39c-0.84,3.19 -1.62,6.43 -2.31,9.65c-0.89,4.11 -1.64,8.21 -2.19,12.22c-1.97,14.45 -5.75,32.76 -5.75,32.76c-5.53,2.27 -14.19,-0.73 -14.19,-0.73s-0.22,-26.36 1.02,-36.61c1.52,-12.67 3.47,-21.68 5.88,-32.03c6.63,-28.49 18.3,-56.37 21.5,-63.76c0.25,-0.59 0.45,-1.05 0.59,-1.37l2.76,0c5.42,3.45 9.26,20.91 7.85,29.82z" fill="#006BDE" id="svg_103"/>
     <path d="m60.6,355.09l0.44,6.06c0,0 8.22,2.68 14.39,0.79l1.63,-5.41c-5.94,0.32 -11.42,0.17 -16.46,-1.44z" fill="#009CF8" id="svg_104"/>
     <g id="svg_105">
      <path d="m95.93,272.54l0,0.01c0,0.08 -0.01,0.17 -0.04,0.26c-0.19,0.51 -0.38,1.03 -0.57,1.58c-0.01,0.02 -0.02,0.05 -0.03,0.08c-0.6,1.72 -1.22,3.59 -1.84,5.57c-0.01,0.01 -0.01,0.02 -0.01,0.03c-3.23,10.24 -6.5,23.13 -8.01,31.37c0.01,-1.66 0.03,-3.32 0.06,-4.98c-0.84,3.19 -1.62,6.43 -2.31,9.65c0.31,-3.02 1.17,-7.55 2.35,-12.67c2.38,-10.38 6.03,-23.23 8.93,-31.15c0.15,-0.4 0.58,-0.6 0.98,-0.45c0.3,0.11 0.49,0.39 0.49,0.7z" fill="#264CBE" id="svg_106"/>
     </g>
    </g>
   </g>
   <g id="svg_107">
    <g id="svg_108">
     <g id="svg_109">
      <g id="svg_110">
       <path d="m372.07,408.68l36.47,0c-0.12,-2.53 -0.24,-4.95 -0.36,-7.24c-0.64,-12.49 -1.18,-20.99 -1.18,-20.99l-29.65,1.32l-2.46,0.11l-4.36,0.19c0,0 0.42,7.6 1.07,18.74c0.15,2.47 0.3,5.11 0.47,7.87z" fill="#18315B" id="svg_111"/>
      </g>
     </g>
     <path d="m374.89,381.88l-4.36,0.19c0,0 0.42,7.6 1.07,18.74c11.4,0.95 23.84,1.34 36.58,0.63c-0.64,-12.49 -1.18,-20.99 -1.18,-20.99l-29.65,1.32l-2.46,0.11z" fill="#000B29" id="svg_112"/>
     <g id="svg_113">
      <path d="m378.86,408.68c-0.67,-11.56 -1.21,-21.43 -1.51,-26.91l-2.46,0.11c0.3,5.46 0.84,15.28 1.51,26.8l2.46,0z" fill="#000B29" id="svg_114"/>
     </g>
    </g>
    <g id="svg_115">
     <g id="svg_116">
      <g id="svg_117">
       <path d="m361.37,408.68c0.19,-3.13 0.37,-6.1 0.53,-8.84c0.63,-10.6 1.02,-17.77 1.02,-17.77l-4.73,-0.21l-2.46,-0.11l-29.29,-1.3c0,0 -0.32,5.07 -0.76,13.12c-0.23,4.29 -0.5,9.44 -0.77,15.11l36.46,0z" fill="#18315B" id="svg_118"/>
      </g>
     </g>
     <path d="m325.68,393.57c7.95,1.87 20.77,4.49 36.22,6.27c0.63,-10.61 1.02,-17.77 1.02,-17.77l-4.73,-0.21l-2.46,-0.11l-29.29,-1.3c0,0 -0.32,5.07 -0.76,13.12z" fill="#000B29" id="svg_119"/>
     <g id="svg_120">
      <path d="m356.68,408.68c0.66,-11.53 1.21,-21.36 1.51,-26.82l-2.46,-0.11c-0.3,5.48 -0.85,15.36 -1.51,26.93l2.46,0z" fill="#000B29" id="svg_121"/>
     </g>
    </g>
    <g id="svg_122">
     <g id="svg_123">
      <g id="svg_124">
       <path d="m412.3,386.13c-7.43,2.05 -14.86,3.59 -22.29,4.62c-2.58,0.37 -5.16,0.67 -7.74,0.91c-3.48,0.32 -6.96,0.54 -10.44,0.65c-5.75,0.17 -11.51,0.05 -17.26,-0.38c-11.13,-0.81 -22.26,-2.76 -33.39,-5.8c-0.1,-10.37 0.06,-47.58 0.83,-83.48c0.04,-1.61 0.08,-3.22 0.12,-4.82c0,-0.34 0.01,-0.68 0.02,-1.02c0.01,-0.37 0.02,-0.74 0.03,-1.11c0.02,-1.14 0.05,-2.27 0.08,-3.4c0.06,-2.31 0.12,-4.59 0.19,-6.86c0.04,-1.35 0.08,-2.7 0.12,-4.03c0,-0.28 0.02,-0.55 0.02,-0.83c0.03,-0.88 0.06,-1.75 0.09,-2.62c0,0 0,0 0,0c0.01,-0.27 0.01,-0.54 0.02,-0.81c0.03,-0.81 0.06,-1.6 0.08,-2.39c0.03,-0.67 0.05,-1.34 0.07,-2c0.86,-24.21 2.12,-43.31 3.93,-46c3.06,-4.57 13.48,-10.62 21.86,-15.56c2.99,-1.75 6.56,-3.58 8.6,-4.93c2.97,2.4 5.13,4.56 9.55,4.41c4.93,-0.17 6.15,-3.13 8.04,-5.68c1.14,0.75 4.06,3.14 5.58,4.03c1.3,0.77 2.7,1.58 4.17,2.42c2.27,1.3 4.68,2.68 7.07,4.08c3.54,2.09 7.03,4.24 9.93,6.29c2.89,2.06 5.19,4.02 6.32,5.72c1.64,2.46 2.7,18.39 3.39,39.35c0.02,0.73 0.04,1.47 0.07,2.22c0,0.09 0,0.18 0,0.28c0.03,0.76 0.06,1.54 0.07,2.32c0.07,2.36 0.13,4.77 0.2,7.22c0.01,0.52 0.02,1.04 0.03,1.56c0.01,0.39 0.03,0.78 0.03,1.17c0.02,1 0.04,2.02 0.07,3.04c0,0.2 0,0.4 0.01,0.61c0.05,2.69 0.11,5.41 0.15,8.16c0.02,0.81 0.03,1.62 0.04,2.42c0.62,37.74 0.48,79.09 0.34,90.24z" fill="#006BDE" id="svg_125"/>
      </g>
     </g>
     <path d="m411.96,295.9l-11.76,11.93l-10.96,-11.11l-10.96,11.11l-10.99,-11.16l-11.01,11.16l-11.07,-11.23l-11.08,11.23l-11.95,-12.13c0.02,-1.14 0.05,-2.27 0.08,-3.4c0.06,-2.31 0.12,-4.59 0.18,-6.86l11.69,-11.85l11.08,11.23l11.07,-11.23l11.01,11.15l11,-11.15l10.95,11.11l10.96,-11.11l11.57,11.72c0.05,2.69 0.1,5.42 0.15,8.17c0.02,0.8 0.03,1.61 0.04,2.42z" fill="#264CBE" id="svg_126"/>
     <g id="svg_127">
      <path d="m391.66,357.39c0,0 0,0 0,0c-15.75,-0.07 -29.2,-7.23 -37.7,-13.23c-9.2,-6.49 -14.77,-13.07 -14.83,-13.13c-0.27,-0.32 -0.23,-0.8 0.09,-1.07c0.33,-0.27 0.8,-0.23 1.07,0.09c0.06,0.06 5.53,6.51 14.58,12.89c8.32,5.87 21.45,12.87 36.79,12.94c0.42,0 0.76,0.34 0.76,0.76c0,0.42 -0.34,0.75 -0.76,0.75z" fill="#264CBE" id="svg_128"/>
     </g>
     <g id="svg_129">
      <path d="m381.83,348.08c-13.41,-2.64 -25.28,-12.91 -25.81,-13.38c-0.32,-0.28 -0.35,-0.76 -0.08,-1.07c0.28,-0.32 0.76,-0.35 1.07,-0.07c0.14,0.12 14.11,12.2 28.35,13.5c0.42,0.03 0.72,0.4 0.68,0.82c-0.04,0.42 -0.41,0.72 -0.82,0.69c-1.14,-0.11 -2.27,-0.27 -3.39,-0.49z" fill="#264CBE" id="svg_130"/>
     </g>
     <g id="svg_131">
      <path d="m354.98,231.53c-0.36,0 -0.68,-0.25 -0.75,-0.62c-0.07,-0.41 0.2,-0.81 0.61,-0.88c19.2,-3.65 24.99,-16 25.04,-16.13c0.18,-0.38 0.62,-0.55 1.01,-0.37c0.38,0.17 0.55,0.62 0.37,1c-0.24,0.54 -6.17,13.2 -26.14,16.98c-0.05,0.01 -0.1,0.02 -0.14,0.02z" fill="#264CBE" id="svg_132"/>
     </g>
     <g id="svg_133">
      <path d="m331.55,264.78l0,0c-0.02,0.09 -0.06,0.17 -0.1,0.25c-0.29,0.46 -0.59,0.93 -0.89,1.42c-0.02,0.03 -0.03,0.05 -0.05,0.08c-0.96,1.55 -1.96,3.25 -2.99,5.04c0,0.01 -0.01,0.02 -0.02,0.03c-1.61,2.82 -3.28,5.88 -4.91,8.98c0.03,-0.88 0.06,-1.75 0.09,-2.62c0,0 0,0 0,0c0.01,-0.27 0.01,-0.54 0.02,-0.81c2.64,-4.89 5.26,-9.47 7.47,-12.93c0.22,-0.36 0.69,-0.46 1.04,-0.24c0.28,0.18 0.41,0.5 0.34,0.8z" fill="#264CBE" id="svg_134"/>
     </g>
    </g>
    <g id="svg_135">
     <path d="m428.31,236.69c0,0 24.55,-7.89 31.82,-24c2.1,-4.67 -15.21,-52.05 -15.21,-52.05l-8.36,0.41c0,0 2.38,16.44 3.83,25.74c1.18,7.66 3.1,16.8 3.75,19.81c0.14,0.65 0.22,1.02 0.22,1.02c-0.41,0.07 -0.82,0.15 -1.24,0.23c-11.47,2.33 -26.12,9.8 -26.12,9.8l11.31,19.04z" fill="#FFA681" id="svg_136"/>
     <g id="svg_137">
      <g id="svg_138">
       <path d="m450.52,212.16c0.35,0.25 0.85,0.18 1.1,-0.17c0.27,-0.36 0.19,-0.85 -0.17,-1.1c-1.79,-1.3 -4.48,-2.82 -7.31,-4.29c0.14,0.66 0.22,1.02 0.22,1.02c-0.41,0.07 -0.82,0.15 -1.24,0.23c2.88,1.48 5.64,3.03 7.4,4.31z" fill="#F97853" id="svg_139"/>
      </g>
     </g>
     <path d="m390.74,215.02c0,0 -7.43,17.43 11.48,27.13c13.09,6.72 42.9,-10.82 42.9,-10.82l-10.63,-22.56c0,0 -27.28,11.25 -43.75,6.25z" fill="#006BDE" id="svg_140"/>
     <path d="m440.64,134c-0.74,0.52 -0.59,3.72 -0.26,6.74c-0.11,0.01 -0.21,0.03 -0.32,0.05c-0.88,-4.02 -2.63,-10.87 -4.13,-9.56c-0.98,0.85 0.34,6.76 1.23,10.28c-0.19,0.06 -0.37,0.12 -0.56,0.18c-1.12,-4.19 -3.55,-12.26 -5.17,-10.69c-1.08,1.04 0.99,8.15 2.14,11.78c-0.16,0.06 -0.31,0.12 -0.47,0.18c-1.1,-3.52 -3.45,-10.17 -5.06,-8.61c-1.46,1.42 2.72,11.48 2.72,11.48l0,0l1.1,3.95c0,0 -1.31,0.56 -3.34,-1.74c-2.03,-2.3 -4.46,-2.7 -2.77,0.62c1.91,3.76 4.73,6.45 5.97,9.11c1.24,2.66 5.15,3.54 5.15,3.54l7.85,-0.38c0,0 1.52,-13.26 -1.41,-19.59l0,0c-0.5,-3.75 -1.38,-8.24 -2.67,-7.34z" fill="#FFA681" id="svg_141"/>
    </g>
    <g id="svg_142">
     <path d="m343.55,164.59c0,13.37 8.23,22.58 21.59,22.58c13.36,0 22.68,-9.9 22.68,-23.27c0,-3.69 -0.6,-7.13 -1.76,-10.18c-0.06,-0.18 -0.13,-0.36 -0.21,-0.53c-0.14,-0.35 -0.28,-0.7 -0.44,-1.03c-0.24,-0.52 -0.5,-1.02 -0.77,-1.51c-3.48,-6.26 -9.72,-10.24 -18.1,-10.24c-16.03,0 -22.99,10.81 -22.99,24.18z" fill="#18315B" id="svg_143"/>
     <g id="svg_144">
      <path d="m346.55,170.35c0,0 -3.71,-4.95 -6.47,-0.86c-2.77,4.09 1.14,16.19 7.9,13.23l-1.43,-12.37z" fill="#F97853" id="svg_145"/>
      <g id="svg_146">
       <path d="m346.5,178.99c-0.25,0 -0.48,-0.17 -0.55,-0.42c-1.05,-3.73 -4.91,-5.25 -4.95,-5.26c-0.3,-0.11 -0.44,-0.44 -0.33,-0.74c0.11,-0.29 0.44,-0.44 0.73,-0.33c0.18,0.07 4.45,1.72 5.65,6.02c0.09,0.3 -0.09,0.62 -0.39,0.71c-0.05,0.01 -0.11,0.02 -0.16,0.02z" fill="#EA5143" id="svg_147"/>
      </g>
      <g id="svg_148">
       <path d="m342.6,177.11c-0.11,0 -0.22,-0.03 -0.31,-0.1c-0.27,-0.17 -0.34,-0.52 -0.17,-0.79c0.03,-0.04 0.71,-1.08 2.14,-1.72c0.29,-0.13 0.63,0 0.76,0.28c0.13,0.29 0,0.63 -0.29,0.76c-1.11,0.49 -1.65,1.3 -1.65,1.3c-0.11,0.17 -0.29,0.27 -0.48,0.27z" fill="#EA5143" id="svg_149"/>
      </g>
     </g>
     <g id="svg_150">
      <path d="m384.82,170.35c0,0 3.71,-4.95 6.47,-0.86c2.76,4.09 -1.14,16.19 -7.9,13.23l1.43,-12.37z" fill="#F97853" id="svg_151"/>
      <g id="svg_152">
       <path d="m384.87,178.99c0.24,0 0.47,-0.17 0.55,-0.42c1.04,-3.73 4.91,-5.25 4.95,-5.26c0.29,-0.11 0.44,-0.44 0.33,-0.74c-0.11,-0.29 -0.44,-0.44 -0.74,-0.33c-0.18,0.07 -4.44,1.72 -5.65,6.02c-0.08,0.3 0.1,0.62 0.4,0.71c0.05,0.01 0.1,0.02 0.16,0.02z" fill="#EA5143" id="svg_153"/>
      </g>
      <g id="svg_154">
       <g id="svg_155">
        <g id="svg_156">
         <path d="m388.77,177.11c0.11,0 0.21,-0.03 0.31,-0.1c0.26,-0.17 0.34,-0.52 0.17,-0.79c-0.03,-0.04 -0.71,-1.08 -2.14,-1.72c-0.29,-0.13 -0.63,0 -0.76,0.28c-0.13,0.29 0,0.63 0.29,0.76c1.11,0.49 1.64,1.3 1.65,1.3c0.11,0.17 0.29,0.27 0.48,0.27z" fill="#EA5143" id="svg_157"/>
        </g>
       </g>
      </g>
     </g>
     <path d="m374.82,192.98l0,12.02c0,0 -3.58,6.13 -8.43,6.55c-4.85,0.42 -9.15,-5.28 -9.15,-5.28l0,-12.45l17.58,-0.84z" fill="#FFA681" id="svg_158"/>
     <path d="m374.82,192.98l0,5.34c-3.25,3.61 -9.03,4.51 -17.58,3.25l0,-7.75l17.58,-0.84z" fill="#F97853" id="svg_159"/>
     <path d="m387.5,162.1c-0.22,4.67 -0.67,10.51 -1.56,15.19c-0.22,1.16 -0.47,2.26 -0.75,3.24c-2.53,8.86 -8.86,24.06 -26.58,17.73c-7.83,-2.8 -11.46,-11.51 -13.07,-20.38c-1.1,-6.02 -1.27,-12.1 -1.19,-16.45c0.09,-4.44 2.51,-8.5 6.37,-10.68c10.46,-5.93 21.5,-3.72 28.77,-0.93c5.04,1.94 8.27,6.89 8.01,12.28z" fill="#FFA681" id="svg_160"/>
     <path d="m358.08,171.91c0,1.29 -0.66,2.33 -1.47,2.33c-0.82,0 -1.48,-1.04 -1.48,-2.33c0,-1.28 0.66,-2.32 1.48,-2.32c0.81,0 1.47,1.04 1.47,2.32z" fill="#18315B" id="svg_161"/>
     <path d="m375.5,171.87c0,1.28 -0.66,2.32 -1.48,2.32c-0.81,0 -1.47,-1.04 -1.47,-2.32c0,-1.29 0.66,-2.33 1.47,-2.33c0.82,0 1.48,1.04 1.48,2.33z" fill="#18315B" id="svg_162"/>
     <path d="m378.84,163.88c0,0 -4.66,-1.84 -8.25,-0.29l0.36,1.99c0,0 5.27,-0.44 7.92,0.63c0.24,-0.76 0.27,-1.54 -0.03,-2.33z" fill="#18315B" id="svg_163"/>
     <path d="m351.68,163.88c0,0 4.66,-1.84 8.25,-0.29l-0.36,1.99c0,0 -5.27,-0.44 -7.92,0.63c-0.24,-0.76 -0.28,-1.54 0.03,-2.33z" fill="#18315B" id="svg_164"/>
     <g id="svg_165">
      <path d="m365.88,181.66c0.97,0 1.92,-0.38 2.07,-0.44c0.29,-0.12 0.43,-0.45 0.31,-0.75c-0.12,-0.29 -0.45,-0.43 -0.74,-0.31c-0.52,0.21 -1.76,0.54 -2.29,0.22c-0.11,-0.06 -0.25,-0.19 -0.29,-0.53c-0.2,-2 0.34,-8.68 0.35,-8.75c0.03,-0.32 -0.21,-0.59 -0.52,-0.62c-0.32,-0.02 -0.59,0.21 -0.62,0.52c-0.02,0.28 -0.56,6.86 -0.34,8.96c0.08,0.79 0.5,1.2 0.83,1.4c0.37,0.22 0.8,0.3 1.24,0.3z" fill="#F97853" id="svg_166"/>
     </g>
     <path d="m358.21,184.56c0.95,3.29 3.65,6.58 7.37,6.63c3.71,-0.05 6.41,-3.34 7.36,-6.63l-14.73,0z" fill="#FFFFFF" id="svg_167"/>
     <g id="svg_168">
      <path d="m365.26,194.77c1.48,0 2.73,-0.75 2.79,-0.78c0.27,-0.17 0.35,-0.52 0.19,-0.79c-0.16,-0.27 -0.52,-0.36 -0.79,-0.19c-0.01,0 -1.04,0.61 -2.19,0.61c-1.06,0 -2.07,-0.6 -2.08,-0.61c-0.27,-0.17 -0.62,-0.08 -0.78,0.19c-0.17,0.26 -0.09,0.62 0.18,0.78c0.05,0.04 1.29,0.79 2.68,0.79z" fill="#F97853" id="svg_169"/>
     </g>
     <path d="m386.9,170.45l-2.59,0c0.29,-2.6 0.7,-7.18 -1.44,-7.84c-6.74,-2.07 2,-6.83 -1.05,-9.21c-3.04,-2.38 -10.62,-1.36 -15.89,-1.53c-5.31,-0.18 -13.83,-0.1 -15.9,0.38c-2.07,0.47 -0.93,3.92 -0.17,6.58c0.76,2.67 -2.55,5.61 -3.1,8.37c-0.16,0.8 -0.13,1.97 0,3.25l-2.16,0c-0.25,-3.36 -0.29,-6.49 -0.24,-9.02c0.08,-4.44 2.5,-8.5 6.37,-10.68c10.46,-5.94 21.49,-3.72 28.76,-0.93c5.04,1.94 8.27,6.89 8.01,12.28c-0.12,2.56 -0.31,5.47 -0.6,8.35z" fill="#18315B" id="svg_170"/>
     <g id="svg_171">
      <g id="svg_172">
       <path d="m356.35,178.65c-3.57,0 -6.47,-2.91 -6.47,-6.47c0,-3.57 2.9,-6.47 6.47,-6.47c3.56,0 6.46,2.9 6.46,6.47c0,3.56 -2.9,6.47 -6.46,6.47zm0,-11.93c-3.01,0 -5.46,2.45 -5.46,5.46c0,3.01 2.45,5.46 5.46,5.46c3.01,0 5.46,-2.45 5.46,-5.46c0,-3.01 -2.45,-5.46 -5.46,-5.46z" fill="#FFFFFF" id="svg_173"/>
      </g>
      <g id="svg_174">
       <path d="m374.02,178.65c-3.56,0 -6.46,-2.91 -6.46,-6.47c0,-3.57 2.9,-6.47 6.46,-6.47c3.57,0 6.47,2.9 6.47,6.47c0,3.56 -2.9,6.47 -6.47,6.47zm0,-11.93c-3.01,0 -5.46,2.45 -5.46,5.46c0,3.01 2.45,5.46 5.46,5.46s5.46,-2.45 5.46,-5.46c0,-3.01 -2.45,-5.46 -5.46,-5.46z" fill="#FFFFFF" id="svg_175"/>
      </g>
      <g id="svg_176">
       <path d="m350.97,170.09c-0.12,0 -0.25,-0.04 -0.35,-0.14l0,0c-0.03,-0.03 -2.97,-2.88 -6.82,-1.98c-0.27,0.06 -0.55,-0.11 -0.61,-0.38c-0.06,-0.27 0.11,-0.54 0.38,-0.6c4.4,-1.03 7.62,2.11 7.76,2.25c0.19,0.19 0.2,0.51 0,0.71c-0.1,0.1 -0.23,0.14 -0.36,0.14z" fill="#FFFFFF" id="svg_177"/>
      </g>
      <g id="svg_178">
       <path d="m379.52,170.09c-0.17,0 -0.33,-0.08 -0.43,-0.22c-0.15,-0.24 -0.08,-0.55 0.15,-0.7c0.19,-0.13 4.77,-3.08 8.66,-2.44c0.28,0.05 0.46,0.31 0.42,0.58c-0.05,0.27 -0.3,0.46 -0.58,0.42c-3.51,-0.58 -7.9,2.25 -7.95,2.28c-0.08,0.06 -0.18,0.08 -0.27,0.08z" fill="#FFFFFF" id="svg_179"/>
      </g>
      <g id="svg_180">
       <path d="m367.91,170.73c-0.01,-0.02 -1.21,-1.64 -2.78,-1.64c-1.56,0 -2.64,1.62 -2.65,1.63l-0.85,-0.55c0.06,-0.08 1.39,-2.09 3.5,-2.09c2.09,0 3.54,1.97 3.6,2.06l-0.82,0.59z" fill="#FFFFFF" id="svg_181"/>
      </g>
     </g>
    </g>
    <g id="svg_182">
     <path d="m329.42,263.83c0,0 -6.81,13.19 -14.83,23.64c-2.37,3.08 -4.84,5.93 -7.28,8.12c-3.94,3.56 -7.79,5.42 -10.92,3.84c-11.62,-5.85 -37.52,-52.47 -37.52,-52.47l6.38,-7.56c0,0 11.53,13.31 19.96,21.28c7.77,7.34 13.75,12.84 13.75,12.84c1.08,-1.64 2.23,-3.44 3.42,-5.34c1.27,-2.01 2.58,-4.15 3.92,-6.34c9.71,-15.94 20.48,-35.08 20.48,-35.08l2.64,37.07z" fill="#FFA681" id="svg_183"/>
     <path d="m314.58,287.47c-2.36,3.08 -4.83,5.93 -7.27,8.12l-4.93,-27.41c1.26,-2.01 2.58,-4.15 3.92,-6.34l8.28,25.63z" fill="#F97853" id="svg_184"/>
     <path d="m326.78,226.76l-23.29,36.62l7.82,32.21l19.27,-31.37c0,0 2.33,-21.47 -3.8,-37.46z" fill="#006BDE" id="svg_185"/>
    </g>
   </g>
   <g id="svg_186">
    <g id="svg_187">
     <path d="m297.5,408.68c-1.66,-9.22 -3.3,-19.61 -4.79,-29.7c-0.33,-2.23 -0.65,-4.45 -0.96,-6.63c-1.2,-8.36 -2.26,-16.26 -3.12,-22.82c-0.33,-2.49 -0.62,-4.79 -0.89,-6.84c-0.83,-6.55 -1.32,-10.61 -1.32,-10.61l-36.77,1.39l-36.88,-1.39c0,0 -0.95,8.04 -2.47,19.71c-0.28,2.12 -0.58,4.36 -0.89,6.7c-0.82,6.12 -1.75,12.88 -2.76,19.8c-0.02,0.1 -0.03,0.2 -0.05,0.3c-0.31,2.16 -0.63,4.33 -0.96,6.5c-0.01,0.03 -0.01,0.06 -0.02,0.09l0,0c-0.79,5.25 -1.61,10.49 -2.45,15.54c-0.35,2.08 -0.7,4.12 -1.05,6.11c-0.11,0.63 -0.22,1.24 -0.33,1.85l95.71,0z" fill="#006BDE" id="svg_188"/>
     <g id="svg_189">
      <path d="m221.25,343.12c0,1.91 -1.55,3.47 -3.47,3.47c-1.91,0 -3.46,-1.56 -3.46,-3.47c0,-1.91 1.55,-3.46 3.46,-3.46c1.92,0 3.47,1.55 3.47,3.46z" fill="#264CBE" id="svg_190"/>
      <path d="m229.85,356.55c0,1.91 -1.55,3.46 -3.47,3.46c-1.91,0 -3.46,-1.55 -3.46,-3.46c0,-1.92 1.55,-3.47 3.46,-3.47c1.91,0 3.47,1.55 3.47,3.47z" fill="#264CBE" id="svg_191"/>
      <path d="m246.77,349.62c0,1.91 -1.56,3.46 -3.47,3.46c-1.91,0 -3.46,-1.55 -3.46,-3.46c0,-1.92 1.55,-3.47 3.46,-3.47c1.92,0 3.47,1.55 3.47,3.47z" fill="#264CBE" id="svg_192"/>
      <path d="m220.06,370.81c0,1.91 -1.55,3.46 -3.46,3.46c-1.92,0 -3.47,-1.55 -3.47,-3.46c0,-1.92 1.55,-3.47 3.47,-3.47c1.91,0 3.46,1.55 3.46,3.47z" fill="#264CBE" id="svg_193"/>
      <path d="m241.21,369.32c0,1.92 -1.56,3.47 -3.47,3.47c-1.91,0 -3.46,-1.55 -3.46,-3.47s1.55,-3.46 3.46,-3.46c1.91,0 3.47,1.55 3.47,3.46z" fill="#264CBE" id="svg_194"/>
      <path d="m212.55,355.04c0,1.8 -1.37,3.28 -3.14,3.45c0.32,-2.34 0.61,-4.58 0.89,-6.7c1.32,0.49 2.25,1.76 2.25,3.25z" fill="#264CBE" id="svg_195"/>
      <path d="m275.66,389.68c0,1.92 -1.55,3.47 -3.47,3.47c-1.91,0 -3.46,-1.55 -3.46,-3.47c0,-1.91 1.55,-3.46 3.46,-3.46c1.92,0 3.47,1.55 3.47,3.46z" fill="#264CBE" id="svg_196"/>
      <path d="m274.02,370.81c0,1.91 -1.55,3.46 -3.46,3.46c-1.92,0 -3.47,-1.55 -3.47,-3.46c0,-1.92 1.55,-3.47 3.47,-3.47c1.91,0 3.46,1.55 3.46,3.47z" fill="#264CBE" id="svg_197"/>
      <path d="m292.71,378.98c-0.42,0.17 -0.88,0.27 -1.36,0.27c-1.91,0 -3.47,-1.55 -3.47,-3.46c0,-1.92 1.56,-3.47 3.47,-3.47c0.13,0 0.27,0.01 0.4,0.03c0.31,2.18 0.63,4.4 0.96,6.63z" fill="#264CBE" id="svg_198"/>
      <path d="m277.49,403.52c0,1.91 -1.56,3.46 -3.47,3.46c-1.91,0 -3.46,-1.55 -3.46,-3.46c0,-1.92 1.55,-3.47 3.46,-3.47c1.91,0 3.47,1.55 3.47,3.47z" fill="#264CBE" id="svg_199"/>
      <path d="m292.31,397.99c0,1.91 -1.55,3.46 -3.47,3.46c-1.91,0 -3.46,-1.55 -3.46,-3.46c0,-1.92 1.55,-3.47 3.46,-3.47c1.92,0 3.47,1.55 3.47,3.47z" fill="#264CBE" id="svg_200"/>
      <path d="m261.46,408.68c-0.62,-0.91 -1.66,-1.51 -2.85,-1.51c-1.19,0 -2.23,0.6 -2.86,1.51l5.71,0z" fill="#264CBE" id="svg_201"/>
      <path d="m217.78,392.7c0,1.91 -1.55,3.46 -3.46,3.46c-1.92,0 -3.47,-1.55 -3.47,-3.46c0,-1.92 1.55,-3.47 3.47,-3.47c1.91,0 3.46,1.55 3.46,3.47z" fill="#264CBE" id="svg_202"/>
      <path d="m208.64,381.75c0,1.76 -1.31,3.21 -3.01,3.43c0,-0.03 0.01,-0.05 0.01,-0.09c0.33,-2.17 0.65,-4.34 0.97,-6.5c1.19,0.55 2.03,1.76 2.03,3.16z" fill="#264CBE" id="svg_203"/>
      <path d="m204.59,403.51c0,1.57 -1.04,2.89 -2.47,3.33c0.35,-1.99 0.7,-4.04 1.05,-6.12c0.86,0.63 1.42,1.65 1.42,2.79z" fill="#264CBE" id="svg_204"/>
      <path d="m226.38,404.98c0,1.92 -1.55,3.47 -3.46,3.47c-1.92,0 -3.47,-1.55 -3.47,-3.47s1.55,-3.46 3.47,-3.46c1.91,0 3.46,1.55 3.46,3.46z" fill="#264CBE" id="svg_205"/>
      <path d="m244.67,402.27c0,1.91 -1.55,3.46 -3.47,3.46s-3.46,-1.55 -3.46,-3.46c0,-1.92 1.55,-3.47 3.46,-3.47s3.47,1.55 3.47,3.47z" fill="#264CBE" id="svg_206"/>
      <path d="m231.62,385.23c0,1.91 -1.55,3.46 -3.46,3.46c-1.92,0 -3.47,-1.55 -3.47,-3.46c0,-1.92 1.55,-3.47 3.47,-3.47c1.91,0 3.46,1.56 3.46,3.47z" fill="#264CBE" id="svg_207"/>
      <path d="m250.23,381.76c0,1.92 -1.55,3.47 -3.46,3.47c-1.92,0 -3.47,-1.55 -3.47,-3.47s1.55,-3.46 3.47,-3.46c1.91,0 3.46,1.55 3.46,3.46z" fill="#264CBE" id="svg_208"/>
      <path d="m258.61,363.48c0,1.91 -1.55,3.46 -3.47,3.46c-1.91,0 -3.46,-1.55 -3.46,-3.46c0,-1.92 1.55,-3.47 3.46,-3.47c1.92,0 3.47,1.55 3.47,3.47z" fill="#264CBE" id="svg_209"/>
      <path d="m288.63,349.53c-0.24,0.06 -0.49,0.09 -0.75,0.09c-1.91,0 -3.46,-1.56 -3.46,-3.47c0,-1.86 1.47,-3.39 3.32,-3.46c0.27,2.05 0.56,4.35 0.89,6.84z" fill="#264CBE" id="svg_210"/>
      <path d="m270.56,349.62c0,1.91 -1.56,3.46 -3.47,3.46c-1.91,0 -3.46,-1.55 -3.46,-3.46c0,-1.92 1.55,-3.47 3.46,-3.47c1.91,0 3.47,1.55 3.47,3.47z" fill="#264CBE" id="svg_211"/>
      <path d="m283.25,361.97c0,1.91 -1.55,3.46 -3.47,3.46s-3.46,-1.55 -3.46,-3.46c0,-1.92 1.55,-3.47 3.46,-3.47s3.47,1.55 3.47,3.47z" fill="#264CBE" id="svg_212"/>
      <path d="m262.07,392.7c0,1.91 -1.55,3.46 -3.46,3.46c-1.91,0 -3.47,-1.55 -3.47,-3.46c0,-1.92 1.56,-3.47 3.47,-3.47c1.91,0 3.46,1.55 3.46,3.47z" fill="#264CBE" id="svg_213"/>
     </g>
     <path d="m288.66,332.99c-19.4,12.66 -55.01,11.67 -77.39,0c2.13,-13.32 4.95,-26.65 4.34,-44.38c-0.06,-1.94 -0.15,-3.87 -0.24,-5.78c-0.09,-1.67 -0.19,-3.32 -0.29,-4.96c-1.93,-29.48 -6.97,-53.59 -4.49,-56.71c1.08,-1.36 2.87,-2.83 5.1,-4.34c0.87,-0.6 1.8,-1.2 2.78,-1.8c2.33,-1.41 4.91,-2.84 7.5,-4.23c6.15,-3.29 12.4,-6.33 15.53,-8.42c3.1,1.36 5.57,2.1 8.24,2.08c0.07,0 0.15,0 0.23,-0.01c0.07,0.01 0.15,0.01 0.22,0.01c2.66,0.02 5.14,-0.72 8.24,-2.08c2.91,1.94 8.37,4.63 13.95,7.57c4.1,2.16 8.26,4.45 11.5,6.68c2.12,1.45 3.85,2.88 4.91,4.22c1.23,1.54 0.71,8.31 -0.34,18.34c-1.03,9.88 -2.58,22.91 -3.52,37.24c-0.26,3.98 -0.48,8.05 -0.62,12.19c-0.6,17.73 2.21,31.06 4.35,44.38z" fill="#009CF8" id="svg_214"/>
     <g id="svg_215">
      <path d="m276.8,318.26c0,0 0,0 -0.01,0c-15.62,-0.07 -28.95,-7.18 -37.38,-13.13c-9.12,-6.43 -14.65,-12.95 -14.71,-13.02c-0.26,-0.32 -0.22,-0.79 0.1,-1.06c0.31,-0.27 0.79,-0.22 1.05,0.09c0.06,0.07 5.49,6.46 14.46,12.79c8.25,5.81 21.28,12.76 36.49,12.83c0.41,0 0.75,0.34 0.75,0.75c0,0.42 -0.34,0.75 -0.75,0.75z" fill="#006BDE" id="svg_216"/>
     </g>
     <g id="svg_217">
      <path d="m266.46,309.17c-13.3,-2.62 -25.08,-12.8 -25.61,-13.27c-0.31,-0.27 -0.34,-0.75 -0.07,-1.06c0.27,-0.31 0.75,-0.34 1.06,-0.07c0.14,0.12 13.99,12.1 28.11,13.39c0.42,0.03 0.72,0.4 0.68,0.81c-0.04,0.42 -0.4,0.72 -0.82,0.68c-1.12,-0.1 -2.25,-0.27 -3.35,-0.48z" fill="#006BDE" id="svg_218"/>
     </g>
     <g id="svg_219">
      <path d="m246.77,240.36c-0.36,0 -0.67,-0.25 -0.74,-0.61c-0.08,-0.41 0.19,-0.8 0.6,-0.88c19.04,-3.61 24.78,-15.87 24.84,-15.99c0.17,-0.38 0.61,-0.54 0.99,-0.37c0.38,0.17 0.55,0.61 0.38,0.99c-0.25,0.53 -6.13,13.09 -25.93,16.85c-0.05,0 -0.1,0.01 -0.14,0.01z" fill="#006BDE" id="svg_220"/>
     </g>
     <path d="m272.38,209.94c-3.78,8.62 -13.07,17.55 -25.15,15.46c-11.71,-2.02 -17.26,-8.21 -21.26,-14.61c6.15,-3.29 12.4,-6.33 15.53,-8.42c3.1,1.36 5.57,2.1 8.23,2.08c0.08,0 0.16,0 0.23,0c0.08,0 0.16,0 0.23,0c2.66,0.02 5.13,-0.72 8.24,-2.08c2.91,1.94 8.38,4.63 13.95,7.57z" fill="#FFA681" id="svg_221"/>
     <g id="svg_222">
      <path d="m262.28,203.01c-0.33,-0.01 -0.6,0.26 -0.6,0.59c0,0.49 -0.2,11.88 -10.43,12.76c-9.49,0.83 -13.42,-8.25 -14.63,-12.02c-0.07,-0.22 -0.28,-0.37 -0.51,-0.37l-0.11,0c-0.37,0 -0.63,0.35 -0.51,0.7c1.29,3.89 5.43,13.28 15.1,12.93c0.25,-0.01 0.5,-0.02 0.76,-0.04c11.32,-0.98 11.52,-13.82 11.53,-13.95c0,-0.33 -0.27,-0.6 -0.6,-0.6z" fill="#FFFFFF" id="svg_223"/>
     </g>
    </g>
    <g id="svg_224">
     <path d="m269.51,142.43c0,0 9.15,14.16 8.14,28.91c-1,14.75 1.35,31.78 -11.85,31.03c-13.2,-0.74 -36.74,5.3 -44.22,-6.19c-7.49,-11.49 47.93,-53.75 47.93,-53.75z" fill="#18315B" id="svg_225"/>
     <path d="m272.9,168.47c0,0 2.37,21.38 -7.77,27.27c-10.15,5.89 -17.49,-0.69 -17.49,-0.69s21.39,-29.8 25.26,-26.58z" fill="#000B29" id="svg_226"/>
     <g id="svg_227">
      <g id="svg_228">
       <path d="m230.76,168.37c0,0 -3.65,-4.86 -6.35,-0.84c-2.71,4.02 1.12,15.88 7.75,12.98l-1.4,-12.14z" fill="#F97853" id="svg_229"/>
       <g id="svg_230">
        <path d="m230.71,176.85c-0.24,0 -0.47,-0.16 -0.54,-0.41c-1.03,-3.66 -4.82,-5.15 -4.86,-5.16c-0.29,-0.11 -0.43,-0.44 -0.33,-0.73c0.11,-0.28 0.44,-0.43 0.73,-0.32c0.17,0.07 4.36,1.69 5.54,5.91c0.08,0.29 -0.09,0.6 -0.39,0.69c-0.05,0.01 -0.1,0.02 -0.15,0.02z" fill="#EA5143" id="svg_231"/>
       </g>
       <g id="svg_232">
        <path d="m226.88,175c-0.11,0 -0.21,-0.03 -0.3,-0.09c-0.26,-0.16 -0.34,-0.51 -0.17,-0.77c0.03,-0.04 0.7,-1.07 2.1,-1.7c0.28,-0.12 0.62,0 0.74,0.29c0.13,0.28 0,0.61 -0.28,0.74c-1.09,0.48 -1.61,1.27 -1.62,1.28c-0.11,0.16 -0.29,0.25 -0.47,0.25z" fill="#EA5143" id="svg_233"/>
       </g>
      </g>
      <g id="svg_234">
       <path d="m268.3,168.37c0,0 3.64,-4.86 6.35,-0.84c2.71,4.02 -1.12,15.88 -7.75,12.98l1.4,-12.14z" fill="#F97853" id="svg_235"/>
       <g id="svg_236">
        <path d="m268.35,176.85c0.24,0 0.47,-0.16 0.54,-0.41c1.03,-3.66 4.82,-5.15 4.86,-5.16c0.29,-0.11 0.43,-0.44 0.32,-0.73c-0.11,-0.28 -0.43,-0.43 -0.72,-0.32c-0.17,0.07 -4.36,1.69 -5.54,5.91c-0.08,0.29 0.09,0.6 0.39,0.69c0.05,0.01 0.1,0.02 0.15,0.02z" fill="#EA5143" id="svg_237"/>
       </g>
       <g id="svg_238">
        <path d="m272.18,175c0.1,0 0.21,-0.03 0.3,-0.09c0.26,-0.16 0.34,-0.51 0.17,-0.77c-0.03,-0.04 -0.7,-1.07 -2.1,-1.7c-0.29,-0.12 -0.62,0 -0.74,0.29c-0.13,0.28 0,0.61 0.28,0.74c1.09,0.48 1.61,1.27 1.62,1.28c0.1,0.16 0.29,0.25 0.47,0.25z" fill="#EA5143" id="svg_239"/>
       </g>
      </g>
      <path d="m258.5,190.58l0,11.8c0,0 -3.52,6 -8.28,6.41c-4.75,0.42 -8.98,-5.17 -8.98,-5.17l0,-12.21l17.26,-0.83z" fill="#FFA681" id="svg_240"/>
      <path d="m258.5,190.58l0,5.23c-3.2,3.55 -8.86,4.8 -17.26,3.56l0,-7.96l17.26,-0.83z" fill="#F97853" id="svg_241"/>
      <path d="m270.94,160.28c-0.22,4.58 -0.66,10.31 -1.53,14.9c-0.22,1.14 -0.47,2.22 -0.74,3.18c-2.49,8.7 -8.7,23.61 -26.08,17.4c-7.68,-2.75 -11.24,-11.3 -12.83,-20c-1.07,-5.9 -1.24,-11.87 -1.16,-16.14c0.09,-4.35 2.46,-8.33 6.25,-10.48c10.26,-5.82 21.09,-3.65 28.22,-0.91c4.95,1.9 8.12,6.76 7.87,12.05z" fill="#FFA681" id="svg_242"/>
      <path d="m241.87,169.06c0,1.26 -0.65,2.28 -1.45,2.28c-0.8,0 -1.45,-1.02 -1.45,-2.28c0,-1.26 0.65,-2.28 1.45,-2.28c0.8,0 1.45,1.02 1.45,2.28z" fill="#18315B" id="svg_243"/>
      <path d="m259.77,169.06c0,1.26 -0.64,2.28 -1.45,2.28s-1.44,-1.02 -1.44,-2.28c0,-1.26 0.64,-2.28 1.44,-2.28s1.45,1.02 1.45,2.28z" fill="#18315B" id="svg_244"/>
      <path d="m237.55,162.27c1.2,-0.34 3.64,-0.92 6.2,-0.93c0.68,0 1.19,0.6 1.08,1.27l-0.01,0.02c-0.09,0.53 -0.57,0.9 -1.11,0.88c-1.74,-0.08 -6.32,0.16 -8.49,1.04c-0.04,-0.38 0.18,-0.79 0.5,-1.16c0.47,-0.55 1.13,-0.92 1.83,-1.12z" fill="#18315B" id="svg_245"/>
      <path d="m260.98,162.32c-1.21,-0.34 -3.64,-0.92 -6.21,-0.93c-0.67,0 -1.19,0.6 -1.07,1.27l0,0.01c0.1,0.53 0.57,0.91 1.11,0.88c1.75,-0.08 6.33,0.17 8.49,1.04c0.05,-0.37 -0.17,-0.78 -0.49,-1.15c-0.48,-0.56 -1.13,-0.92 -1.83,-1.12z" fill="#18315B" id="svg_246"/>
      <g id="svg_247">
       <path d="m249.72,179.47c-0.43,0 -0.86,-0.08 -1.22,-0.29c-0.32,-0.2 -0.73,-0.6 -0.81,-1.37c-0.21,-2.06 0.31,-8.52 0.34,-8.79c0.02,-0.31 0.29,-0.54 0.6,-0.52c0.31,0.03 0.54,0.3 0.51,0.61c0,0.07 -0.54,6.63 -0.33,8.58c0.03,0.34 0.17,0.46 0.27,0.53c0.53,0.31 1.74,-0.01 2.25,-0.22c0.29,-0.11 0.61,0.02 0.73,0.31c0.12,0.29 -0.02,0.61 -0.31,0.73c-0.14,0.06 -1.08,0.43 -2.03,0.43z" fill="#F97853" id="svg_248"/>
      </g>
      <path d="m242.61,183.01c0.42,2.13 1.83,6.05 6.57,6.05c4.76,0 6.09,-3.58 6.55,-6.05l-13.12,0z" fill="#FFFFFF" id="svg_249"/>
      <g id="svg_250">
       <path d="m249.12,192.33c-1.37,0 -2.58,-0.74 -2.63,-0.77c-0.27,-0.16 -0.35,-0.51 -0.19,-0.77c0.17,-0.26 0.51,-0.34 0.77,-0.18l0,0c0.01,0 1,0.6 2.05,0.6c1.13,0 2.14,-0.6 2.15,-0.6c0.26,-0.16 0.61,-0.08 0.77,0.19c0.16,0.26 0.07,0.6 -0.19,0.76c-0.06,0.04 -1.29,0.77 -2.73,0.77z" fill="#F97853" id="svg_251"/>
      </g>
     </g>
     <path d="m273.19,159.36c-0.18,0.52 -0.68,0.84 -1.35,1.04c0.05,1.23 -0.08,2.72 -0.2,4.14c-0.69,8.11 -2.73,9.53 -3.2,7.52c-0.3,-1.33 -0.28,-8.95 -0.13,-11.44c-1.61,-0.11 -2.97,-0.37 -2.97,-0.37l-1.88,-7.87l-0.66,7.77c-2.82,0.98 -9.4,-0.59 -9.4,-0.59l-2.2,-7.75l-1.37,7.45c-4.22,2.06 -9.51,0.69 -9.51,0.69l-1.21,-8.04l-2.8,8.04c0,0 -9.02,3.24 -9.12,0c-0.06,-1.88 1.32,-7.18 2.48,-11.29c1.27,-4.48 4.22,-8.26 8.2,-10.4c11.18,-6 23.01,-2.81 27.07,-0.38c8.61,5.13 8.25,21.48 8.25,21.48z" fill="#18315B" id="svg_252"/>
     <path d="m232.16,143.03c0,0 -7.43,8.83 -9.87,24.6c-2.44,15.77 -5.82,27.42 3.68,32.63c10.29,5.64 9.4,-5.92 9.25,-9.06c-0.15,-3.15 -8.9,-11.73 -3.06,-35.92c1.88,-7.81 0,-12.25 0,-12.25z" fill="#18315B" id="svg_253"/>
     <path d="m230.42,175.62c0,0 0,0.01 0,0.02c0.01,0.11 0.01,0.74 0.06,1.72c0.02,0.61 0.06,1.35 0.12,2.19c0.35,5.32 1.38,14.49 4.41,17.68c1.2,1.25 3.51,1.89 6.23,2.14l0,-4.17c-2.86,-1.36 -5.1,-3.6 -6.83,-6.35c-1.07,-2.32 -2.92,-5.95 -3.78,-11.66l-0.21,-1.57z" fill="#000B29" id="svg_254"/>
     <path d="m271.07,180.78c0,0.73 -0.59,1.31 -1.31,1.31s-1.32,-0.58 -1.32,-1.31c0,-0.72 0.59,-1.31 1.32,-1.31s1.31,0.59 1.31,1.31z" fill="#FFFFFF" id="svg_255"/>
    </g>
    <g id="svg_256">
     <path d="m297.83,279.7c-3.72,10.65 -20.38,9.87 -39.35,4.05c-0.03,0 -0.05,-0.01 -0.08,-0.02c-0.06,-0.02 -0.12,-0.04 -0.18,-0.06l-2.61,-0.83c-0.36,-0.11 -0.72,-0.23 -1.08,-0.36c-2.05,-0.68 -4.1,-1.42 -6.17,-2.21c-6.78,-2.57 -13.61,-5.62 -20.05,-8.88l0.04,-0.11l1.94,-5.04l0.66,-1.71c0,0 35.18,3.83 52.86,0.13c0.3,-0.06 0.59,-0.12 0.88,-0.19c-0.07,-0.39 -0.09,-0.79 -0.2,-1.17c-9.37,-31.9 0.87,-38.01 4.3,-42.46c0,-0.01 16.06,38.76 9.04,58.86z" fill="#009CF8" id="svg_257"/>
     <g id="svg_258">
      <path d="m292.1,269.83c-0.11,0.05 -0.22,0.07 -0.33,0.07c-0.28,0 -0.54,-0.15 -0.67,-0.42c-1.34,-2.74 -5.89,-4.37 -7.29,-4.82c0.3,-0.06 0.59,-0.13 0.88,-0.19c-0.07,-0.39 -0.14,-0.78 -0.2,-1.17c1.77,0.59 6.42,2.38 7.95,5.53c0.19,0.37 0.03,0.82 -0.34,1z" fill="#006BDE" id="svg_259"/>
     </g>
     <g id="svg_260">
      <path d="m242.84,268.49c-7.18,0 -13.01,-0.41 -13.52,-0.45c-0.41,-0.03 -0.72,-0.39 -0.69,-0.8c0.03,-0.41 0.39,-0.72 0.8,-0.69c0.27,0.02 26.65,1.88 37.05,-2.34c0.38,-0.15 0.82,0.03 0.98,0.42c0.15,0.38 -0.03,0.82 -0.41,0.97c-5.76,2.34 -15.89,2.89 -24.21,2.89z" fill="#006BDE" id="svg_261"/>
     </g>
     <g id="svg_262">
      <path d="m255.61,282.84c0,0 0,0 0,0c6.02,-1.66 11.5,-3.28 14.65,-4.29c4.39,-1.4 8.02,-5.84 9.67,-9.61c0.17,-0.38 0.61,-0.55 0.99,-0.38c0.38,0.16 0.55,0.6 0.39,0.98c-1.79,4.08 -5.75,8.89 -10.59,10.44c-2.29,0.74 -5.79,1.79 -9.84,2.94c-1.73,0.5 -3.56,0.47 -5.27,-0.08l0,0z" fill="#006BDE" id="svg_263"/>
     </g>
     <g id="svg_264">
      <path d="m271.84,277.69c-54.36,18.3 -71.08,6.32 -71.08,6.32c-3.66,-33.09 9.82,-62.85 9.82,-62.85c3.99,6.57 8.49,18.04 8.49,18.04l1.19,25.36l-0.09,0.71l-0.04,0.33l-0.22,1.73l-0.01,0.04c0.12,0.02 0.23,0.05 0.35,0.07c16.44,3.47 46.51,-0.4 46.51,-0.4l5.08,10.65z" fill="#009CF8" id="svg_265"/>
      <g id="svg_266">
       <path d="m220.25,267.44c-2.93,2.46 -5.72,5.3 -8.2,8.56c-0.25,0.32 -0.73,0.39 -1.06,0.14c-0.33,-0.25 -0.39,-0.72 -0.14,-1.05c0,0 0,-0.01 0,-0.01c2.79,-3.66 5.96,-6.8 9.28,-9.48l-0.22,1.73l-0.01,0.04c0.12,0.02 0.23,0.05 0.35,0.07z" fill="#006BDE" id="svg_267"/>
      </g>
      <path d="m266.76,267.04c0,0 6.02,-13.67 15.17,-12.46l2.76,9.89c-5.01,2.12 -5.74,10.71 -12.85,13.21l-5.08,-10.64z" fill="#FFA681" id="svg_268"/>
     </g>
     <path d="m230.96,264.52c0,0 -3.8,-8.92 -13.81,-11.5c-10,-2.59 -16.37,2.12 -17.04,3.9c-0.67,1.78 3.77,0.08 3.77,0.08s-2.89,0.82 -4.55,3.54c-1.66,2.72 4.04,-0.22 4.04,-0.22s-4.09,1.79 -4.61,3.45c-0.52,1.66 4.87,-1.14 5.88,-1.09c0,0 -4.81,1.92 -4.78,3.63c0.03,1.71 5.53,-1.08 9.64,-0.86c4.1,0.22 10.4,1.92 10.4,1.92c3.36,0.64 6.57,1.11 9.47,1.25l1.59,-4.1z" fill="#FFA681" id="svg_269"/>
    </g>
   </g>
   <g id="svg_270">
    <g id="svg_271">
     <g id="svg_272">
      <g id="svg_273">
       <g id="svg_274">
        <path d="m327.54,125.83c-3.71,0 -6.72,-3.01 -6.72,-6.71s3.01,-6.72 6.72,-6.72c3.7,0 6.71,3.02 6.71,6.72s-3.01,6.71 -6.71,6.71zm0,-11.32c-2.55,0 -4.61,2.07 -4.61,4.61c0,2.54 2.06,4.61 4.61,4.61c2.54,0 4.6,-2.07 4.6,-4.61c0,-2.54 -2.06,-4.61 -4.6,-4.61z" fill="#006BDE" id="svg_275"/>
       </g>
       <g id="svg_276">
        <path d="m386.11,114.42c-3.7,0 -6.71,-3.01 -6.71,-6.71c0,-3.7 3.01,-6.71 6.71,-6.71c3.7,0 6.71,3.01 6.71,6.71c0,3.7 -3.01,6.71 -6.71,6.71zm0,-11.32c-2.54,0 -4.61,2.07 -4.61,4.61c0,2.54 2.07,4.61 4.61,4.61c2.54,0 4.61,-2.07 4.61,-4.61c0,-2.54 -2.07,-4.61 -4.61,-4.61z" fill="#009CF8" id="svg_277"/>
       </g>
       <g id="svg_278">
        <g id="svg_279">
         <g id="svg_280">
          <path d="m394.4,136.24c-0.58,0 -1.05,-0.47 -1.05,-1.05l0,-4.65c0,-0.58 0.47,-1.05 1.05,-1.05c0.59,0 1.06,0.47 1.06,1.05l0,4.65c0,0.58 -0.47,1.05 -1.06,1.05z" fill="#006BDE" id="svg_281"/>
         </g>
         <g id="svg_282">
          <path d="m394.4,144.37c-0.58,0 -1.05,-0.47 -1.05,-1.05l0,-4.65c0,-0.58 0.47,-1.05 1.05,-1.05c0.59,0 1.06,0.47 1.06,1.05l0,4.65c0,0.58 -0.47,1.05 -1.06,1.05z" fill="#006BDE" id="svg_283"/>
         </g>
        </g>
        <g id="svg_284">
         <g id="svg_285">
          <path d="m400.92,137.98l-4.17,0c-0.58,0 -1.05,-0.47 -1.05,-1.05c0,-0.58 0.47,-1.05 1.05,-1.05l4.17,0c0.58,0 1.06,0.47 1.06,1.05c0,0.58 -0.47,1.05 -1.06,1.05z" fill="#006BDE" id="svg_286"/>
         </g>
         <g id="svg_287">
          <path d="m392.06,137.98l-4.17,0c-0.59,0 -1.06,-0.47 -1.06,-1.05c0,-0.58 0.47,-1.05 1.06,-1.05l4.17,0c0.58,0 1.05,0.47 1.05,1.05c0,0.58 -0.47,1.05 -1.05,1.05z" fill="#006BDE" id="svg_288"/>
         </g>
        </g>
       </g>
       <g id="svg_289">
        <g id="svg_290">
         <g id="svg_291">
          <g id="svg_292">
           <path d="m358.94,108.11c-0.58,0 -1.05,-0.47 -1.05,-1.06l0,-4.64c0,-0.58 0.47,-1.05 1.05,-1.05s1.06,0.47 1.06,1.05l0,4.64c0,0.59 -0.48,1.06 -1.06,1.06z" fill="#1C31B5" id="svg_293"/>
          </g>
          <g id="svg_294">
           <path d="m358.94,116.23c-0.58,0 -1.05,-0.47 -1.05,-1.05l0,-4.64c0,-0.59 0.47,-1.06 1.05,-1.06s1.06,0.47 1.06,1.06l0,4.64c0,0.58 -0.48,1.05 -1.06,1.05z" fill="#1C31B5" id="svg_295"/>
          </g>
         </g>
         <g id="svg_296">
          <g id="svg_297">
           <path d="m365.46,109.85l-4.17,0c-0.58,0 -1.05,-0.47 -1.05,-1.05c0,-0.59 0.47,-1.06 1.05,-1.06l4.17,0c0.58,0 1.05,0.47 1.05,1.06c0,0.58 -0.47,1.05 -1.05,1.05z" fill="#1C31B5" id="svg_298"/>
          </g>
          <g id="svg_299">
           <path d="m356.6,109.85l-4.18,0c-0.58,0 -1.05,-0.47 -1.05,-1.05c0,-0.59 0.47,-1.06 1.05,-1.06l4.18,0c0.58,0 1.05,0.47 1.05,1.06c0,0.58 -0.47,1.05 -1.05,1.05z" fill="#1C31B5" id="svg_300"/>
          </g>
         </g>
        </g>
       </g>
      </g>
     </g>
     <g id="svg_301">
      <g id="svg_302">
       <g id="svg_303">
        <path d="m87.57,102.08c0,-3.7 3.01,-6.71 6.71,-6.71c3.7,0 6.72,3.01 6.72,6.71c0,3.7 -3.02,6.72 -6.72,6.72c-3.7,0 -6.71,-3.02 -6.71,-6.72zm2.1,0c0,2.54 2.07,4.61 4.61,4.61c2.54,0 4.61,-2.07 4.61,-4.61c0,-2.54 -2.07,-4.61 -4.61,-4.61c-2.54,0 -4.61,2.07 -4.61,4.61z" fill="#006BDE" id="svg_304"/>
       </g>
       <g id="svg_305">
        <path d="m60.61,127.67c0,-3.7 3.01,-6.71 6.71,-6.71c3.7,0 6.71,3.01 6.71,6.71c0,3.7 -3.01,6.72 -6.71,6.72c-3.7,0 -6.71,-3.02 -6.71,-6.72zm2.1,0c0,2.54 2.07,4.61 4.61,4.61c2.54,0 4.61,-2.07 4.61,-4.61c0,-2.54 -2.07,-4.61 -4.61,-4.61c-2.54,0 -4.61,2.07 -4.61,4.61z" fill="#009CF8" id="svg_306"/>
       </g>
       <g id="svg_307">
        <g id="svg_308">
         <g id="svg_309">
          <path d="m46.65,137.09c0.58,0 1.05,-0.47 1.05,-1.05l0,-4.64c0,-0.59 -0.47,-1.06 -1.05,-1.06s-1.05,0.47 -1.05,1.06l0,4.64c-0.01,0.58 0.47,1.05 1.05,1.05z" fill="#006BDE" id="svg_310"/>
         </g>
         <g id="svg_311">
          <path d="m46.65,145.22c0.58,0 1.05,-0.47 1.05,-1.05l0,-4.65c0,-0.58 -0.47,-1.05 -1.05,-1.05s-1.05,0.47 -1.05,1.05l0,4.65c-0.01,0.58 0.47,1.05 1.05,1.05z" fill="#006BDE" id="svg_312"/>
         </g>
        </g>
        <g id="svg_313">
         <g id="svg_314">
          <path d="m40.13,138.84l4.17,0c0.58,0 1.05,-0.48 1.05,-1.06c0,-0.58 -0.47,-1.05 -1.05,-1.05l-4.17,0c-0.58,0 -1.05,0.47 -1.05,1.05c0,0.58 0.47,1.06 1.05,1.06z" fill="#006BDE" id="svg_315"/>
         </g>
         <g id="svg_316">
          <path d="m48.99,138.84l4.18,0c0.58,0 1.05,-0.48 1.05,-1.06c0,-0.58 -0.47,-1.05 -1.05,-1.05l-4.18,0c-0.58,0 -1.05,0.47 -1.05,1.05c0,0.58 0.47,1.06 1.05,1.06z" fill="#006BDE" id="svg_317"/>
         </g>
        </g>
       </g>
       <g id="svg_318">
        <g id="svg_319">
         <g id="svg_320">
          <g id="svg_321">
           <path d="m70.92,101.39c0.58,0 1.05,-0.47 1.05,-1.05l0,-4.64c0,-0.59 -0.47,-1.06 -1.05,-1.06s-1.06,0.47 -1.06,1.06l0,4.64c0,0.58 0.47,1.05 1.06,1.05z" fill="#1C31B5" id="svg_322"/>
          </g>
          <g id="svg_323">
           <path d="m70.92,109.52c0.58,0 1.05,-0.47 1.05,-1.05l0,-4.65c0,-0.58 -0.47,-1.05 -1.05,-1.05s-1.06,0.47 -1.06,1.05l0,4.65c0,0.58 0.47,1.05 1.06,1.05z" fill="#1C31B5" id="svg_324"/>
          </g>
         </g>
         <g id="svg_325">
          <g id="svg_326">
           <path d="m64.4,103.14l4.17,0c0.58,0 1.05,-0.48 1.05,-1.06c0,-0.58 -0.47,-1.05 -1.05,-1.05l-4.17,0c-0.59,0 -1.06,0.47 -1.06,1.05c0,0.58 0.47,1.06 1.06,1.06z" fill="#1C31B5" id="svg_327"/>
          </g>
          <g id="svg_328">
           <path d="m73.26,103.14l4.17,0c0.59,0 1.06,-0.48 1.06,-1.06c0,-0.58 -0.47,-1.05 -1.06,-1.05l-4.17,0c-0.58,0 -1.05,0.47 -1.05,1.05c0,0.58 0.47,1.06 1.05,1.06z" fill="#1C31B5" id="svg_329"/>
          </g>
         </g>
        </g>
       </g>
      </g>
     </g>
    </g>
    <g id="svg_330">
     <g id="svg_331">
      <g id="svg_332">
       <path d="m271.69,102.56c-0.12,0.02 -0.25,0 -0.37,-0.05c-1.28,-0.54 -2.03,-0.79 -2.03,-0.8c-0.4,-0.13 -0.61,-0.55 -0.48,-0.94c0.13,-0.39 0.56,-0.6 0.95,-0.47c0.03,0.01 0.8,0.27 2.14,0.83c0.38,0.16 0.56,0.6 0.4,0.98c-0.11,0.26 -0.35,0.43 -0.61,0.45z" fill="#BBE2F2" id="svg_333"/>
      </g>
      <g id="svg_334">
       <path d="m309.8,142.67c0.51,1.36 0.98,2.76 1.41,4.16c0.11,0.35 0.45,0.56 0.8,0.53c0.05,-0.01 0.09,-0.02 0.14,-0.03c0.39,-0.12 0.62,-0.54 0.49,-0.94c-0.44,-1.43 -0.92,-2.86 -1.44,-4.24c-0.14,-0.39 -0.57,-0.58 -0.96,-0.44c-0.39,0.14 -0.59,0.58 -0.44,0.96z" fill="#BBE2F2" id="svg_335"/>
       <path d="m312.38,151.07c0.34,1.4 0.65,2.85 0.92,4.3c0.07,0.38 0.43,0.65 0.81,0.6c0.02,0 0.04,0 0.06,0c0.41,-0.08 0.68,-0.47 0.6,-0.88c-0.27,-1.47 -0.59,-2.95 -0.94,-4.38c-0.1,-0.4 -0.5,-0.64 -0.9,-0.55c-0.4,0.1 -0.65,0.51 -0.55,0.91z" fill="#BBE2F2" id="svg_336"/>
       <path d="m315.53,173.65c0.37,-0.04 0.67,-0.35 0.67,-0.73c0.03,-1.5 0.01,-3.01 -0.03,-4.48c-0.01,-0.41 -0.36,-0.73 -0.77,-0.72c-0.42,0.01 -0.74,0.36 -0.72,0.77c0.04,1.44 0.05,2.93 0.03,4.41c-0.01,0.41 0.32,0.75 0.73,0.75c0.03,0.01 0.06,0 0.09,0z" fill="#BBE2F2" id="svg_337"/>
       <path d="m314.63,158.87c-0.41,0.06 -0.7,0.43 -0.65,0.84c0.09,0.68 0.17,1.36 0.24,2.03c0.08,0.77 0.16,1.57 0.22,2.35c0.03,0.41 0.39,0.72 0.8,0.69c0.01,0 0.01,0 0.02,-0.01c0.4,-0.04 0.7,-0.39 0.67,-0.8c-0.06,-0.79 -0.14,-1.6 -0.22,-2.39c-0.07,-0.68 -0.15,-1.37 -0.24,-2.06c-0.06,-0.41 -0.42,-0.69 -0.82,-0.65c-0.01,0 -0.02,0 -0.02,0z" fill="#BBE2F2" id="svg_338"/>
       <path d="m308.13,138.61c0.14,0.3 0.45,0.47 0.76,0.44c0.08,-0.01 0.16,-0.03 0.23,-0.06c0.38,-0.17 0.54,-0.61 0.38,-0.99c-0.61,-1.36 -1.27,-2.72 -1.97,-4.04c-0.19,-0.36 -0.64,-0.5 -1.01,-0.31c-0.36,0.19 -0.5,0.64 -0.31,1.01c0.68,1.29 1.32,2.62 1.92,3.95z" fill="#BBE2F2" id="svg_339"/>
       <path d="m275.29,104.37c1.29,0.65 2.58,1.37 3.85,2.12c0.15,0.09 0.31,0.12 0.46,0.1c0.23,-0.02 0.44,-0.15 0.57,-0.36c0.21,-0.36 0.09,-0.82 -0.26,-1.03c-1.3,-0.77 -2.62,-1.49 -3.94,-2.16c-0.36,-0.19 -0.81,-0.05 -1,0.32c-0.19,0.37 -0.04,0.82 0.32,1.01z" fill="#BBE2F2" id="svg_340"/>
       <path d="m286.44,111.41c0.16,0.12 0.35,0.17 0.53,0.15c0.2,-0.02 0.39,-0.12 0.52,-0.29c0.25,-0.33 0.18,-0.8 -0.15,-1.05c-1.18,-0.9 -2.41,-1.78 -3.64,-2.62c-0.34,-0.23 -0.81,-0.14 -1.04,0.2c-0.23,0.35 -0.14,0.81 0.2,1.04c1.21,0.82 2.42,1.68 3.58,2.57z" fill="#BBE2F2" id="svg_341"/>
       <path d="m299,123.65c0.17,0.21 0.42,0.3 0.67,0.28c0.13,-0.02 0.27,-0.07 0.38,-0.16c0.33,-0.26 0.38,-0.73 0.12,-1.05c-0.93,-1.16 -1.91,-2.31 -2.91,-3.42c-0.28,-0.3 -0.75,-0.32 -1.06,-0.05c-0.31,0.28 -0.33,0.75 -0.05,1.06c0.98,1.08 1.94,2.21 2.85,3.34z" fill="#BBE2F2" id="svg_342"/>
       <path d="m293.1,117.15c0.16,0.16 0.38,0.23 0.6,0.21c0.16,-0.02 0.33,-0.09 0.45,-0.22c0.29,-0.3 0.28,-0.77 -0.01,-1.06c-1.06,-1.04 -2.18,-2.05 -3.31,-3.03c-0.31,-0.27 -0.79,-0.24 -1.05,0.08c-0.27,0.31 -0.24,0.78 0.07,1.05c1.11,0.96 2.2,1.96 3.25,2.97z" fill="#BBE2F2" id="svg_343"/>
       <path d="m304.05,130.84c0.15,0.25 0.43,0.38 0.71,0.35c0.11,-0.01 0.22,-0.04 0.31,-0.1c0.35,-0.22 0.47,-0.68 0.25,-1.03c-0.78,-1.27 -1.6,-2.53 -2.46,-3.75c-0.23,-0.34 -0.7,-0.42 -1.04,-0.19c-0.34,0.24 -0.42,0.71 -0.18,1.05c0.84,1.19 1.65,2.43 2.41,3.67z" fill="#BBE2F2" id="svg_344"/>
      </g>
     </g>
     <g id="svg_345">
      <g id="svg_346">
       <polygon fill="#009CF8" id="svg_347" points="271.675,97.448 274.948,85.328 234.85,85.672      "/>
       <polygon fill="#006BDE" id="svg_348" points="234.85,85.671 269.729,100.374 269.821,100.414 271.322,102.899 271.675,97.448             "/>
       <polygon fill="#006BDE" id="svg_349" points="271.322,102.899 268.071,102.387 269.821,100.414      "/>
       <polygon fill="#009CF8" id="svg_350" points="265.433,98.563 269.822,100.413 260.783,110.598 234.85,85.672      "/>
      </g>
     </g>
    </g>
   </g>
   <g id="svg_351">
    <path d="m456.06,416.31l0,0.73c0,4.22 -3.42,7.64 -7.64,7.64l-395.95,0c-4.21,0 -7.63,-3.42 -7.63,-7.64l0,-0.73c0,-4.21 3.42,-7.63 7.63,-7.63l395.95,0c4.22,0 7.64,3.42 7.64,7.63z" fill="#1C31B5" id="svg_352"/>
    <path d="m456.06,416.31l0,0.37l-411.22,0l0,-0.37c0,-4.21 3.42,-7.63 7.63,-7.63l395.95,0c4.22,0 7.64,3.42 7.64,7.63z" fill="#006BDE" id="svg_353"/>
   </g>
   <g id="svg_354">
    <path d="m311.04,384.67l-124.38,0c-2.97,0 -5.38,-2.41 -5.38,-5.38l0,-65.08c0,-2.97 2.41,-5.38 5.38,-5.38l124.38,0c2.97,0 5.38,2.41 5.38,5.38l0,65.08c0.01,2.97 -2.41,5.38 -5.38,5.38z" fill="#18315B" id="svg_355"/>
    <rect fill="#000B29" height="23.86" id="svg_356" width="20.93" x="238.39" y="384.58"/>
    <circle cx="248.62" cy="347.68" fill="#1D567E" id="svg_357" r="10.39"/>
    <path d="m275.51,408.44l-53.99,0l0,-1.81c0,-3.67 2.98,-6.65 6.65,-6.65l40.69,0c3.67,0 6.65,2.97 6.65,6.65l0,1.81z" fill="#18315B" id="svg_358"/>
   </g>
  </g>
 </g>
</svg>