<?xml version="1.0"?>
<svg width="500" height="500" xmlns="http://www.w3.org/2000/svg" xmlns:svg="http://www.w3.org/2000/svg" enable-background="new 0 0 500 500" version="1.1" xml:space="preserve">
 <g class="layer">
  <title>Layer 1</title>
  <g id="BACKGROUND">
   <rect fill="#FFFFFF" height="500" id="svg_1" width="500"/>
  </g>
  <g id="OBJECTS">
   <g id="svg_2">
    <path d="m218.39,165.49c-15.37,-55.76 -84.63,-73.72 -124.33,-32.05c-0.57,0.6 -1.14,1.21 -1.71,1.83c-56.9,61.86 -30.02,214.3 88.74,252.94c118.77,38.63 242.3,-31.92 249.24,-94.99c6.94,-63.08 -47.85,-82.89 -132.88,-65.26c-48.05,9.97 -69.49,-27.76 -79.06,-62.47z" fill="#E0D5F8" id="svg_3"/>
    <path d="m317.18,175.03c-15.89,2.58 -20.29,16.66 -8.02,26.65c4.05,3.3 9.85,6.04 18.1,7.41c31.43,5.21 48.1,-8.69 35.5,-26.72c-7.77,-11.13 -29.83,-9.91 -45.58,-7.34z" fill="#E0D5F8" id="svg_4"/>
    <path d="m71.27,288.97c-7.81,-14.08 -22.55,-13.47 -27.8,1.45c-1.74,4.94 -2.36,11.31 -0.86,19.54c5.7,31.34 24.43,42.34 37.14,24.4c7.85,-11.08 -0.75,-31.43 -8.48,-45.39z" fill="#E0D5F8" id="svg_5"/>
    <path d="m441.53,300.55c-1.47,7.66 4.86,13.09 12.03,10.14c2.37,-0.98 4.76,-2.86 6.89,-6.17c8.1,-12.6 4,-23.41 -7.28,-22.3c-6.97,0.68 -10.19,10.73 -11.64,18.33z" fill="#E0D5F8" id="svg_6"/>
    <path d="m401.36,219.68c7.63,1.6 13.17,-4.64 10.34,-11.86c-0.94,-2.38 -2.78,-4.81 -6.05,-6.99c-12.46,-8.31 -23.34,-4.39 -22.42,6.9c0.56,6.98 10.56,10.37 18.13,11.95z" fill="#E0D5F8" id="svg_7"/>
    <path d="m215.74,137.68c6.04,4.93 13.83,1.94 14.64,-5.77c0.26,-2.55 -0.26,-5.55 -2.16,-8.99c-7.23,-13.12 -18.7,-14.64 -23.08,-4.19c-2.71,6.45 4.6,14.06 10.6,18.95z" fill="#E0D5F8" id="svg_8"/>
   </g>
   <g id="svg_9">
    <g id="svg_10">
     <path d="m457.56,412.87c2.62,0.44 5.36,-0.29 7.18,-2.22c1.19,-1.26 2,-2.82 2,-4.31c0,-0.02 0,-0.04 0,-0.06c-0.03,-10.69 13.1,-9.98 17.32,-23.05c4.21,-13.07 -12.45,-14.17 -21.97,-6.1c-6.84,5.8 -15.05,-2.3 -25,4.46c-8.63,5.88 -3.82,20.34 -17.99,15.82c-4.52,-1.45 -8.57,-0.06 -11.99,2.51c-3.93,2.95 -6.49,7.09 -7.56,11.59l1.13,0.79c27.94,17.13 40.52,-2.16 56.88,0.57z" fill="#9C78ED" id="svg_11"/>
     <g id="svg_12">
      <path d="m429.88,412.3l37.03,-23.77c0.5,-0.32 0.64,-0.98 0.32,-1.47c-0.31,-0.5 -0.98,-0.64 -1.47,-0.33l-39.83,25.57l3.95,0z" fill="#7846D1" id="svg_13"/>
     </g>
    </g>
    <g id="svg_14">
     <g id="svg_15">
      <path d="m427.88,341.57c-1.56,-23.3 -1.82,-47.74 -0.09,-63.94c2.27,-21.17 7.4,-35.9 15.24,-43.79c0.52,-0.53 1.36,-0.53 1.89,-0.01c0.52,0.52 0.52,1.37 0,1.89c-13.71,13.8 -18.64,50.84 -14.28,107.21l-2.76,-1.36z" fill="#5B23A9" id="svg_16"/>
     </g>
     <path d="m431.39,258.93c0,0 -11.17,-0.02 -10.37,-19.64c0,0 17.08,4.87 10.37,19.64z" fill="#7846D1" id="svg_17"/>
     <path d="m430.45,269.03c0,0 -0.6,-11.15 19.04,-11.44c0,0 -3.92,17.32 -19.04,11.44z" fill="#7846D1" id="svg_18"/>
     <path d="m438.99,241.5c0,0 -4.29,-10.31 14.13,-17.14c0,0 2.09,17.64 -14.13,17.14z" fill="#7846D1" id="svg_19"/>
     <path d="m427.94,289.29c0,0 -10.51,3.76 -16.4,-14.98c0,0 17.73,-1.2 16.4,14.98z" fill="#7846D1" id="svg_20"/>
     <path d="m428.55,299.72c0,0 -2.52,-10.88 16.77,-14.57c0,0 -0.86,17.75 -16.77,14.57z" fill="#7846D1" id="svg_21"/>
     <path d="m427.96,314.08c0,0 -10.44,3.96 -16.68,-14.67c0,0 17.69,-1.52 16.68,14.67z" fill="#7846D1" id="svg_22"/>
    </g>
    <g id="svg_23">
     <path d="m103.98,393.51l-3.04,-0.12l-1.61,-0.07l-4.57,-0.18c0,0 -42.24,-71.7 -15.78,-95.09c8.15,-7.2 22.39,-1.23 19.24,31.86c-2.92,30.67 5.76,63.6 5.76,63.6z" fill="#7846D1" id="svg_24"/>
     <g id="svg_25">
      <path d="m100.94,393.39l-1.61,-0.07c-7.38,-17.37 -11.1,-36.03 -12.95,-49.13c-2.19,-15.56 -2.29,-26.85 -2.29,-26.97c-0.01,-0.4 0.32,-0.73 0.72,-0.73c0.4,0 0.73,0.32 0.74,0.72c0,0.12 0.1,11.33 2.28,26.8c1.86,13.16 5.62,31.98 13.11,49.38z" fill="#5B23A9" id="svg_26"/>
     </g>
    </g>
    <g id="svg_27">
     <path d="m112.37,407.87l-4.13,1.54l-2.19,0.81l-6.21,2.3c0,0 -96.39,-72.28 -74.06,-118.27c6.87,-14.15 29.22,-14.11 43.45,31.85c13.19,42.61 43.14,81.77 43.14,81.77z" fill="#9C78ED" id="svg_28"/>
     <g id="svg_29">
      <path d="m108.24,409.41l-2.19,0.81c-19.53,-19.1 -34.91,-41.97 -44.67,-58.45c-11.6,-19.56 -18.03,-34.59 -18.09,-34.74c-0.23,-0.54 0.02,-1.16 0.55,-1.39c0.54,-0.23 1.16,0.02 1.39,0.56c0.06,0.15 6.45,15.08 17.98,34.53c9.82,16.55 25.33,39.6 45.03,58.68z" fill="#7846D1" id="svg_30"/>
     </g>
    </g>
    <g id="svg_31">
     <path d="m441.87,411.96c-0.05,-1.66 -0.25,-3.34 -0.61,-5.02c-3.47,-15.86 5.96,-18.85 18.39,-23.86c12.43,-5.01 13.91,-19.9 5.11,-32.26c-8.81,-12.37 7.01,-22.31 1.19,-40.93c-5.83,-18.61 -26.05,-6.23 -30.48,10.93c-3.18,12.34 -19.35,9.67 -25.34,25.67c-5.2,13.89 12.24,26.72 -7.9,33.09c-6.43,2.03 -9.98,6.97 -11.85,12.74c-2.14,6.65 -1.72,13.56 0.73,19.64l50.76,0z" fill="#7846D1" id="svg_32"/>
     <g id="svg_33">
      <path d="m417.24,411.96l33.17,-81.87c0.31,-0.77 -0.07,-1.66 -0.84,-1.97c-0.78,-0.32 -1.66,0.06 -1.97,0.83l-33.63,83.01l3.27,0z" fill="#5B23A9" id="svg_34"/>
     </g>
    </g>
   </g>
   <g id="svg_35">
    <path d="m140.91,164.44c0,0 0.69,-14.74 -8.27,-17.57c-13.96,-4.41 -17.85,2.83 -20,7.62c-2.76,6.13 -1.59,18.15 6.74,19.31c12.44,1.74 20.76,-5.24 21.53,-9.36z" fill="#403657" id="svg_36"/>
    <path d="m149.9,213.73c7.26,0 13.53,-5.08 15.01,-12.18c1.07,-5.12 2.12,-9.65 2.12,-12.19l0,-0.07c0.06,-0.8 0.1,-1.61 0.1,-2.4c0.1,-11.63 -7.07,-32.87 -32.29,-29.5c0,0 -20.93,2.39 -23.31,22.84c0,0 -0.99,9.44 -1.65,16.27c-0.02,0.12 -0.03,0.24 -0.04,0.36c-0.92,9.03 6.18,16.87 15.26,16.87l24.8,0z" fill="#403657" id="svg_37"/>
    <g id="svg_38">
     <g id="svg_39">
      <path d="m179.85,238.04c0,0 4.46,35.33 9.55,53.47c0,0 7.24,-3.37 16.71,-7.95c10.27,-4.96 25.04,-14.01 25.04,-14.01l3.73,8.99c0,0 -38.14,36 -50.78,38.04c-12.63,2.03 -20.38,-43.21 -20.38,-43.21l16.13,-35.33z" fill="#7846D1" id="svg_40"/>
      <path d="m230.37,270.6c0,0 -1.05,-5.02 1.2,-8.42c2.24,-3.39 5.66,-9.75 9.68,-11.08c3.36,-1.11 -1.6,4.56 -1.75,8.16c0,0 5,-0.63 8.6,-1.8c3.17,-1.03 9.45,-2.32 12.36,-2.89c0.79,-0.16 1.31,0.85 0.69,1.38c-0.99,0.86 -3.06,1.94 -7.35,2.98c0,0 10.45,-1.98 11.53,-0.38c1.09,1.6 -12.02,3.83 -12.02,3.83s10.17,-0.6 10.43,1c0.16,0.97 -10.37,3.19 -10.37,3.19s9.61,0.26 7.29,1.78c-0.68,0.44 -19.3,2.53 -25.78,10.19c0,0 -4.36,-4.51 -4.51,-7.94z" fill="#FFA681" id="svg_41"/>
     </g>
    </g>
    <g id="svg_42">
     <g id="svg_43">
      <path d="m115.53,231.08c0,0 -21.34,6.3 -39.72,10.44c0,0 -0.48,-7.97 -0.96,-18.48c-0.52,-11.39 0.42,-28.69 0.42,-28.69l-9.69,0.99c0,0 -13.52,50.68 -9.3,62.77c4.22,12.08 57.78,-4.85 57.78,-4.85l1.47,-22.18z" fill="#7846D1" id="svg_44"/>
      <path d="m74.71,195.54c0,0 4.92,-1.47 6.84,-5.06c1.92,-3.59 7.22,-10.82 3.95,-13.5c-1.2,-0.98 -2.06,3.29 -5.16,5.13c0,0 -1.82,-4.69 -2.51,-8.42c-0.6,-3.28 -2.45,-9.41 -3.33,-12.24c-0.24,-0.78 -1.37,-0.75 -1.55,0.04c-0.28,1.29 -0.24,3.62 0.89,7.89c0,0 -3.23,-10.14 -5.16,-10.33c-1.92,-0.19 2.35,12.4 2.35,12.4s-4.31,-9.23 -5.84,-8.7c-0.93,0.32 2.13,10.64 2.13,10.64s-4.8,-8.33 -5.03,-5.56c-0.07,0.8 6.94,18.17 3.29,27.51c0,0 6.04,1.7 9.13,0.2z" fill="#FFA681" id="svg_45"/>
     </g>
    </g>
    <g id="svg_46">
     <g id="svg_47">
      <path d="m179.05,374.93l0.17,0.76c-16.62,11.25 -78.78,3.56 -78.78,3.56c0.11,-1.3 0.25,-2.66 0.43,-4.07c0.19,-1.58 0.44,-3.2 0.71,-4.89c0.75,-4.52 1.76,-9.41 2.89,-14.45c0.36,-1.58 0.73,-3.19 1.11,-4.81c1.12,-4.8 2.32,-9.68 3.45,-14.42c0.39,-1.63 0.77,-3.24 1.14,-4.84c0.52,-2.22 1.01,-4.41 1.48,-6.53c0.61,-2.81 1.16,-5.52 1.62,-8.07c0.3,-1.72 0.57,-3.36 0.78,-4.92c0.24,-1.65 0.4,-3.21 0.5,-4.66c-0.99,-3.65 -1.91,-7.23 -2.77,-10.7c-0.43,-1.76 -0.85,-3.49 -1.26,-5.2c-1.27,-5.46 -2.4,-10.66 -3.38,-15.54c-0.34,-1.77 -0.69,-3.49 -1,-5.17c-1.09,-5.75 -1.96,-10.95 -2.67,-15.48c-0.27,-1.81 -0.53,-3.5 -0.76,-5.09c-0.24,-1.75 -0.46,-3.36 -0.64,-4.82c-0.84,-6.43 -1.13,-10.08 -1.13,-10.08c0.15,-0.12 0.3,-0.23 0.46,-0.34c1.89,-1.34 4.84,-2.6 8.11,-3.72c3.46,-1.19 7.28,-2.22 10.66,-3.03c0.51,-0.12 1.01,-0.24 1.5,-0.36c4.43,-1.03 7.74,-1.63 7.74,-1.63c15.07,3.16 19.37,1.12 19.37,1.12l7.66,2.26l0.91,0.32l5.58,1.96l0.22,0.08l10.02,3.53l6.68,2.34l-2.6,11.95l-1.13,5.22l-3.41,15.74l-1.12,5.2l-3.4,15.68l-1.12,5.15l-2.81,12.99l0.56,2.49l1.1,4.81l1.74,7.66l1.59,6.93l1.09,4.8l3.28,14.45l1.09,4.77l3.25,14.28l1.09,4.77z" fill="#9C78ED" id="svg_48"/>
      <path d="m157.34,230.13c-1.6,9.42 -6.17,18.9 -15.66,19.92c-11.48,1.24 -17.42,-13.15 -20.01,-21.99c4.43,-1.03 9.02,-2.04 9.02,-2.04c15.07,3.15 17.98,1.23 17.98,1.23l7.77,2.56l0.9,0.32z" fill="#FFA681" id="svg_49"/>
      <g id="svg_50">
       <path d="m140.51,242.14c-12.02,0 -14.9,-14.85 -14.93,-15c-0.05,-0.33 0.16,-0.64 0.48,-0.69c0.32,-0.06 0.63,0.15 0.69,0.47c0.11,0.6 2.84,14.61 14.46,14.02c10.17,-0.52 10.77,-11.81 10.79,-12.29c0.01,-0.32 0.29,-0.58 0.62,-0.56c0.32,0.01 0.58,0.29 0.56,0.61c0,0.13 -0.65,12.85 -11.91,13.42c-0.26,0.01 -0.51,0.02 -0.76,0.02z" fill="#FFFFFF" id="svg_51"/>
      </g>
      <path d="m118.94,238.04c0,1.63 -1.31,2.94 -2.93,2.94s-2.94,-1.31 -2.94,-2.94s1.32,-2.93 2.94,-2.93s2.93,1.31 2.93,2.93z" fill="#7846D1" id="svg_52"/>
      <path d="m113.06,252.36c0,1.62 -1.31,2.94 -2.93,2.94c-1.62,0 -2.94,-1.32 -2.94,-2.94c0,-1.62 1.32,-2.93 2.94,-2.93c1.62,0 2.93,1.31 2.93,2.93z" fill="#7846D1" id="svg_53"/>
      <path d="m131.8,259.13c0,1.62 -1.31,2.94 -2.93,2.94c-1.62,0 -2.94,-1.32 -2.94,-2.94c0,-1.62 1.32,-2.93 2.94,-2.93c1.62,0 2.93,1.31 2.93,2.93z" fill="#7846D1" id="svg_54"/>
      <path d="m118.73,267.14c0.6,1.5 -0.13,3.21 -1.63,3.81c-1.51,0.6 -3.22,-0.13 -3.82,-1.63c-0.6,-1.51 0.13,-3.22 1.64,-3.82c1.5,-0.6 3.21,0.13 3.81,1.64z" fill="#7846D1" id="svg_55"/>
      <path d="m144.17,272.56c0,1.62 -1.31,2.93 -2.93,2.93c-1.62,0 -2.94,-1.31 -2.94,-2.93c0,-1.62 1.32,-2.94 2.94,-2.94c1.62,0 2.93,1.32 2.93,2.94z" fill="#7846D1" id="svg_56"/>
      <path d="m162.89,278.61c0,1.62 -1.31,2.93 -2.93,2.93c-1.62,0 -2.94,-1.31 -2.94,-2.93c0,-1.62 1.32,-2.94 2.94,-2.94c1.62,0 2.93,1.32 2.93,2.94z" fill="#7846D1" id="svg_57"/>
      <path d="m166.66,240.98c0,1.62 -1.32,2.93 -2.94,2.93c-1.62,0 -2.93,-1.31 -2.93,-2.93c0,-1.62 1.31,-2.94 2.93,-2.94c1.62,0 2.94,1.32 2.94,2.94z" fill="#7846D1" id="svg_58"/>
      <path d="m145.36,291.3c0,1.62 -1.31,2.94 -2.93,2.94c-1.63,0 -2.94,-1.32 -2.94,-2.94c0,-1.62 1.31,-2.93 2.94,-2.93c1.62,0 2.93,1.31 2.93,2.93z" fill="#7846D1" id="svg_59"/>
      <path d="m127.28,300.4c0,1.62 -1.31,2.93 -2.93,2.93c-1.62,0 -2.94,-1.31 -2.94,-2.93c0,-1.62 1.31,-2.94 2.94,-2.94c1.62,0.01 2.93,1.32 2.93,2.94z" fill="#7846D1" id="svg_60"/>
      <path d="m125.17,283.83c0,1.62 -1.31,2.93 -2.93,2.93c-1.62,0 -2.94,-1.31 -2.94,-2.93c0,-1.62 1.32,-2.94 2.94,-2.94c1.62,0 2.93,1.32 2.93,2.94z" fill="#7846D1" id="svg_61"/>
      <path d="m154.09,259.9c0,1.62 -1.32,2.94 -2.94,2.94c-1.62,0 -2.93,-1.32 -2.93,-2.94c0,-1.62 1.31,-2.93 2.93,-2.93c1.62,0 2.94,1.31 2.94,2.93z" fill="#7846D1" id="svg_62"/>
      <path d="m170.31,256.2c0,1.62 -1.31,2.93 -2.93,2.93s-2.94,-1.31 -2.94,-2.93c0,-1.62 1.32,-2.94 2.94,-2.94s2.93,1.32 2.93,2.94z" fill="#7846D1" id="svg_63"/>
      <path d="m159.96,296.16c0,1.62 -1.32,2.93 -2.94,2.93c-1.62,0 -2.93,-1.31 -2.93,-2.93c0,-1.62 1.31,-2.94 2.93,-2.94c1.62,0 2.94,1.32 2.94,2.94z" fill="#7846D1" id="svg_64"/>
      <path d="m160.74,319.38c0,1.62 -1.31,2.93 -2.93,2.93c-1.62,0 -2.94,-1.31 -2.94,-2.93c0,-1.63 1.32,-2.94 2.94,-2.94c1.62,0 2.93,1.31 2.93,2.94z" fill="#7846D1" id="svg_65"/>
      <path d="m145.81,309.69c0.6,1.5 -0.13,3.21 -1.64,3.81c-1.51,0.6 -3.21,-0.13 -3.81,-1.63c-0.61,-1.51 0.13,-3.22 1.63,-3.82c1.51,-0.6 3.22,0.13 3.82,1.64z" fill="#7846D1" id="svg_66"/>
      <path d="m125.83,318.29c0.6,1.5 -0.14,3.21 -1.64,3.81c-1.5,0.6 -3.21,-0.13 -3.81,-1.63c-0.6,-1.51 0.13,-3.22 1.63,-3.82c1.51,-0.6 3.22,0.13 3.82,1.64z" fill="#7846D1" id="svg_67"/>
     </g>
     <polygon fill="#9C78ED" id="svg_68" points="185.267,411.943 184.659,408.286 182.291,394.102 181.479,389.243 179.218,375.686      175.108,375.871 120.617,378.342 100.445,379.253 99.148,389.797 98.541,394.709 96.75,409.275 96.421,411.943    "/>
     <g id="svg_69">
      <g id="svg_70">
       <path d="m185.26,411.94l-0.55,-3.3l-0.05,-0.35l-0.39,-2.33l-0.39,-2.32l-1.6,-9.54l-0.46,-2.82l-0.35,-2.04l-0.04,-0.3l-2.06,-12.37l-0.14,-0.88l-0.19,-0.76l-0.16,-0.67l-0.92,-4.09l-1.83,-8l-0.53,-2.29l-0.9,-4l-1.09,-4.79l-0.74,-3.28l-0.53,-2.29l-2.01,-8.85l-0.74,-3.24l-0.35,-1.57l-0.16,-0.72l-1.41,-6.22c-22.15,6.54 -45.62,2.66 -56.02,0.33c-0.46,2.1 -0.97,4.3 -1.48,6.51c-0.12,0.49 -0.23,0.98 -0.35,1.46c-0.18,0.76 -0.37,1.53 -0.55,2.29c-0.07,0.37 -0.16,0.72 -0.26,1.09c-0.85,3.63 -1.75,7.33 -2.63,11c-0.19,0.76 -0.35,1.53 -0.53,2.27c-0.1,0.39 -0.19,0.76 -0.28,1.15c-0.37,1.62 -0.74,3.24 -1.11,4.81c-0.46,2.11 -0.9,4.16 -1.32,6.2c-0.16,0.76 -0.32,1.5 -0.46,2.24c-0.42,2.06 -0.79,4.07 -1.11,6.01c-0.28,1.69 -0.51,3.31 -0.7,4.9c-0.06,0.49 -0.11,0.98 -0.18,1.44c-0.07,0.78 -0.16,1.55 -0.23,2.31c0,0.12 -0.02,0.21 -0.02,0.32l-1.3,10.55l-0.21,1.64l-0.27,2.29l-0.12,0.97l-1.43,11.53l-0.28,2.31l-0.09,0.74l-0.32,2.66l88.84,0z" fill="#403657" id="svg_71"/>
      </g>
     </g>
    </g>
    <g id="svg_72">
     <g id="svg_73">
      <g id="svg_74">
       <path d="m158.46,190.7c0,0 3.6,-4.56 6.28,-0.79c2.68,3.78 -1.11,14.92 -7.66,12.2l1.38,-11.41z" fill="#F97853" id="svg_75"/>
       <g id="svg_76">
        <path d="m158.51,198.67c0.24,0 0.46,-0.15 0.53,-0.39c1.02,-3.44 4.77,-4.83 4.81,-4.85c0.28,-0.1 0.43,-0.41 0.32,-0.68c-0.11,-0.27 -0.43,-0.41 -0.72,-0.3c-0.17,0.06 -4.31,1.58 -5.48,5.55c-0.08,0.28 0.09,0.57 0.39,0.65c0.05,0.01 0.1,0.02 0.15,0.02z" fill="#EA5143" id="svg_77"/>
       </g>
       <g id="svg_78">
        <path d="m162.3,196.93c0.1,0 0.2,-0.02 0.3,-0.08c0.25,-0.16 0.33,-0.48 0.16,-0.73c-0.02,-0.04 -0.69,-1 -2.08,-1.59c-0.28,-0.12 -0.61,0 -0.73,0.26c-0.13,0.27 0,0.58 0.28,0.7c1.07,0.46 1.6,1.19 1.6,1.2c0.11,0.16 0.28,0.24 0.47,0.24z" fill="#EA5143" id="svg_79"/>
       </g>
       <g id="svg_80">
        <path d="m156.84,202.04c-0.62,0.69 -1,1.6 -1,2.6c0,2.15 1.75,3.9 3.9,3.9c2.16,0 3.91,-1.75 3.91,-3.9c0,-1.25 -0.58,-2.35 -1.49,-3.06c-0.45,-0.36 -0.98,-0.62 -1.57,-0.75c-0.1,-0.27 -0.05,-0.51 0.14,-0.74c0.75,0.16 1.43,0.5 1.99,0.98c1.03,0.85 1.68,2.13 1.68,3.57c0,2.57 -2.09,4.66 -4.66,4.66c-2.56,0 -4.65,-2.09 -4.65,-4.66c0,-1.11 0.39,-2.12 1.04,-2.92c0.24,0.11 0.47,0.21 0.71,0.32z" fill="#FFFFFF" id="svg_81"/>
       </g>
      </g>
      <path d="m130.69,214.02l0,13.68c0,0 6.36,4.9 11.31,5.33c4.96,0.43 6.67,-5.42 6.67,-5.42l0,-12.73l-17.98,-0.86z" fill="#FFA681" id="svg_82"/>
      <path d="m130.69,215.36l0,5.46c3.33,3.69 9.23,5 17.98,3.71l0,-8.31l-17.98,-0.86z" fill="#F97853" id="svg_83"/>
      <path d="m160.63,195.9c-0.16,1.32 -0.35,2.66 -0.58,4c-1.58,8.9 -7.2,18.5 -14.3,20.11c-15.34,3.48 -21.71,-8.56 -24.16,-17.45c-0.27,-0.99 0.24,-2.12 0.02,-3.29c-0.51,-2.77 -1.63,-5.91 -1.88,-9.02c-0.17,-2.15 -0.3,-4.27 -0.39,-6.18c-0.25,-5.41 2.88,-10.37 7.77,-12.31c7.05,-2.81 17.76,-5.03 27.9,0.92c3.75,2.2 6.1,6.26 6.18,10.72c0.06,3.4 -0.02,7.84 -0.56,12.5z" fill="#FFA681" id="svg_84"/>
      <g id="svg_85">
       <path d="m141.18,202.78c-0.29,0 -0.54,-0.2 -0.59,-0.5c-0.05,-0.32 0.16,-0.63 0.49,-0.68l2.05,-0.35l-2.82,-7.5c-0.12,-0.31 0.04,-0.65 0.34,-0.77c0.31,-0.11 0.66,0.04 0.77,0.35l3.33,8.86l-3.47,0.58c-0.04,0.01 -0.07,0.01 -0.1,0.01z" fill="#F97853" id="svg_86"/>
      </g>
      <path d="m148.52,192.85c0,1.31 0.67,2.37 1.51,2.37c0.83,0 1.51,-1.06 1.51,-2.37c0,-1.31 -0.68,-2.38 -1.51,-2.38c-0.84,0 -1.51,1.07 -1.51,2.38z" fill="#403657" id="svg_87"/>
      <path d="m131.82,192.85c0,1.31 0.67,2.37 1.51,2.37s1.51,-1.06 1.51,-2.37c0,-1.31 -0.68,-2.38 -1.51,-2.38s-1.51,1.07 -1.51,2.38z" fill="#403657" id="svg_88"/>
      <path d="m154.47,186.62c-1.22,-0.24 -3.67,-0.63 -6.29,-0.54c-0.69,0.03 -1.24,0.54 -1.14,1.09l0,0.02c0.07,0.43 0.54,0.73 1.09,0.69c1.79,-0.14 6.45,-0.11 8.62,0.54c0.06,-0.32 -0.15,-0.65 -0.46,-0.94c-0.46,-0.45 -1.11,-0.73 -1.82,-0.86z" fill="#403657" id="svg_89"/>
      <path d="m130.18,186.9c1.21,-0.25 3.66,-0.68 6.28,-0.62c0.69,0.01 1.25,0.53 1.16,1.07l0,0.02c-0.07,0.44 -0.54,0.74 -1.09,0.7c-1.78,-0.11 -6.45,-0.01 -8.61,0.66c-0.06,-0.31 0.14,-0.65 0.45,-0.94c0.45,-0.45 1.1,-0.74 1.81,-0.89z" fill="#403657" id="svg_90"/>
      <path d="m148.52,206.33c-0.45,2.09 -1.91,5.93 -6.86,5.93c-4.95,0 -6.34,-3.51 -6.82,-5.93l13.68,0z" fill="#FFFFFF" id="svg_91"/>
      <g id="svg_92">
       <path d="m141.73,215.85c1.43,0 2.69,-0.77 2.74,-0.8c0.28,-0.17 0.36,-0.53 0.19,-0.81c-0.17,-0.27 -0.52,-0.36 -0.8,-0.19l0,0c-0.01,0.01 -1.04,0.63 -2.13,0.63c-1.17,0 -2.23,-0.62 -2.24,-0.63c-0.28,-0.17 -0.63,-0.08 -0.8,0.2c-0.17,0.28 -0.08,0.63 0.2,0.8c0.05,0.03 1.33,0.8 2.84,0.8z" fill="#F97853" id="svg_93"/>
      </g>
      <path d="m161.25,194.5c-0.15,0.12 -0.28,0.08 -0.41,-0.15c-2.03,-3.57 -0.12,-10.7 -6.12,-13.43c-4.57,-2.08 -6.2,-6.36 -6.2,-6.36c-1.05,1.79 -3.77,3.43 -3.77,3.43s-6.89,4.09 -14.06,6.85c-2.13,0.82 -3.65,1.65 -4.71,2.37c0.08,0.02 0.13,0.03 0.13,0.03s-1.99,3.23 -0.54,8.24c1.46,5 -0.41,13.27 -3.64,15.18c0.06,-0.14 2.48,-5.86 1.11,-10.52c-0.78,-2.67 -0.78,-6.93 -1.52,-9.48c-0.83,-0.56 -2.74,-1.52 -3.39,-1.91c-0.18,-2.19 -0.31,-4.35 -0.41,-6.31c-0.26,-5.5 3.04,-10.57 8.2,-12.55c7.43,-2.85 18.72,-5.11 29.41,0.95c3.95,2.24 6.42,6.38 6.51,10.92c0.07,3.46 -0.02,8 -0.59,12.74z" fill="#403657" id="svg_94"/>
     </g>
     <g id="svg_95">
      <path d="m121.52,190.66c0,0 -4.19,-5.08 -6.66,-1.41c-2.47,3.66 1.18,14.9 7.23,12.25l-0.57,-10.84z" fill="#FFA681" id="svg_96"/>
      <g id="svg_97">
       <path d="m121.69,201.69c0.43,0.82 0.58,1.79 0.34,2.76c-0.52,2.09 -2.65,3.36 -4.74,2.84c-2.09,-0.52 -3.36,-2.65 -2.84,-4.74c0.3,-1.2 1.13,-2.13 2.19,-2.61c0.52,-0.23 1.11,-0.36 1.7,-0.34c0.11,-0.22 0.16,-0.47 0.05,-0.75c-0.77,-0.03 -1.51,0.14 -2.17,0.46c-1.2,0.58 -2.15,1.67 -2.5,3.06c-0.62,2.49 0.9,5.03 3.39,5.65c2.49,0.62 5.03,-0.9 5.65,-3.39c0.27,-1.07 0.13,-2.15 -0.3,-3.08c-0.26,0.04 -0.52,0.09 -0.77,0.14z" fill="#FFFFFF" id="svg_98"/>
      </g>
      <g id="svg_99">
       <path d="m120.61,197.75c-0.22,0 -0.43,-0.15 -0.49,-0.38c-0.94,-3.34 -4.4,-4.69 -4.44,-4.71c-0.26,-0.1 -0.39,-0.39 -0.29,-0.66c0.1,-0.26 0.39,-0.39 0.66,-0.29c0.16,0.06 3.97,1.54 5.05,5.39c0.08,0.27 -0.08,0.55 -0.35,0.63c-0.05,0.01 -0.09,0.02 -0.14,0.02z" fill="#F97853" id="svg_100"/>
      </g>
      <g id="svg_101">
       <g id="svg_102">
        <path d="m117.12,196.06c-0.1,0 -0.2,-0.02 -0.28,-0.08c-0.24,-0.15 -0.31,-0.46 -0.15,-0.7c0.02,-0.04 0.64,-0.98 1.92,-1.55c0.25,-0.12 0.56,0 0.67,0.26c0.12,0.26 0,0.56 -0.25,0.67c-1,0.45 -1.48,1.17 -1.48,1.17c-0.1,0.15 -0.27,0.23 -0.43,0.23z" fill="#F97853" id="svg_103"/>
       </g>
      </g>
     </g>
    </g>
   </g>
   <g id="svg_104">
    <path d="m343.4,301.03c-9.75,7 -25,11.8 -25,11.8l-3.12,-11.23l-2.44,-8.77l-1.71,-6.17l-17.49,-0.01c0.95,3.27 1.93,6.62 2.91,9.91c1.26,4.26 2.52,8.42 3.72,12.26c1.68,5.4 3.24,10.15 4.49,13.54c0.3,0.79 0.64,1.66 1.02,2.58c2.34,6.31 4.22,13.15 13.14,8.86c7.85,-3.78 18.5,-9.02 23.82,-12.5l0.66,-20.27z" fill="#FFA681" id="svg_105"/>
    <g id="svg_106">
     <path d="m296.55,296.56c1.26,4.25 2.52,8.42 3.72,12.26c7.13,-0.76 12.07,-4.3 15.01,-7.22l-2.44,-8.76l-16.29,3.72z" fill="#F97853" id="svg_107"/>
     <path d="m292.84,235.26c0,0 18.23,43.49 26.08,57.58c0,0 -10.99,9.35 -21.7,9.6c0,0 -6.17,-47.75 -4.38,-67.18z" fill="#6020BD" id="svg_108"/>
    </g>
    <g id="svg_109">
     <g id="svg_110">
      <g id="svg_111">
       <path d="m250.15,411.97c0.18,-3.04 0.35,-5.94 0.51,-8.62c0.64,-10.98 1.06,-18.47 1.06,-18.47l-4.3,-0.2l-2.42,-0.1l-29.23,-1.3c0,0 -0.53,8.38 -1.16,20.68c-0.13,2.52 -0.26,5.21 -0.39,8.01l35.93,0z" fill="#9C78ED" id="svg_112"/>
      </g>
     </g>
     <path d="m247.42,384.69l4.3,0.19c0,0 -0.42,7.49 -1.06,18.47c-11.23,0.93 -23.49,1.32 -36.05,0.61c0.63,-12.3 1.16,-20.68 1.16,-20.68l29.23,1.3l2.42,0.11z" fill="#7846D1" id="svg_113"/>
     <g id="svg_114">
      <path d="m245.88,411.97c0.68,-11.72 1.24,-21.77 1.54,-27.28l-2.42,-0.11c-0.31,5.54 -0.86,15.63 -1.54,27.39l2.42,0z" fill="#7846D1" id="svg_115"/>
     </g>
    </g>
    <g id="svg_116">
     <g id="svg_117">
      <g id="svg_118">
       <path d="m259.56,411.97l35.94,0c-0.14,-2.81 -0.27,-5.49 -0.4,-8.01c-0.63,-12.3 -1.16,-20.68 -1.16,-20.68l-29.23,1.3l-2.42,0.11l-4.3,0.19c0,0 0.42,7.49 1.06,18.47c0.16,2.68 0.33,5.58 0.51,8.62z" fill="#9C78ED" id="svg_119"/>
      </g>
     </g>
     <path d="m262.29,384.69l-4.3,0.19c0,0 0.42,7.49 1.06,18.47c11.23,0.93 23.49,1.32 36.05,0.61c-0.63,-12.3 -1.16,-20.68 -1.16,-20.68l-29.23,1.3l-2.42,0.11z" fill="#7846D1" id="svg_120"/>
     <g id="svg_121">
      <path d="m266.25,411.97c-0.68,-11.76 -1.24,-21.85 -1.54,-27.39l-2.42,0.11c0.3,5.51 0.86,15.56 1.53,27.28l2.43,0z" fill="#7846D1" id="svg_122"/>
     </g>
    </g>
    <g id="svg_123">
     <g id="svg_124">
      <g id="svg_125">
       <g id="svg_126">
        <path d="m209.42,362.44c0,0.6 0,1.19 0,1.78c0.02,10.69 0.07,18.97 0.12,23.04c10.33,2.8 20.65,4.6 30.98,5.44c0.47,0.03 0.93,0.07 1.4,0.1c0.26,0.02 0.51,0.04 0.76,0.05c0.55,0.04 1.11,0.08 1.66,0.1c0.61,0.04 1.23,0.07 1.85,0.1c7.02,0.33 14.05,0.2 21.08,-0.37c1.42,-0.12 2.83,-0.26 4.25,-0.41c0.09,-0.01 0.18,-0.02 0.28,-0.03c0.36,-0.04 0.72,-0.08 1.08,-0.13c0.22,-0.02 0.44,-0.05 0.66,-0.08c8.17,-0.97 16.35,-2.57 24.52,-4.77c0.03,-1.85 0.04,-4.59 0.04,-8.04c0,-0.64 0,-1.3 -0.01,-1.99l0,-0.01c0,-4.93 -0.03,-11.08 -0.09,-18.03c0,-0.59 -0.01,-1.19 -0.01,-1.8c-0.04,-4.62 -0.09,-9.58 -0.15,-14.75c-0.01,-0.59 -0.01,-1.19 -0.02,-1.79c-0.07,-5.3 -0.15,-10.81 -0.24,-16.4c-0.06,-3.41 -0.12,-6.85 -0.19,-10.3c-0.07,-3.49 -0.14,-6.99 -0.23,-10.46c-0.01,-0.76 -0.03,-1.51 -0.05,-2.27c-0.8,-32.85 -2.19,-63.05 -4.48,-66.41c-1.59,-2.34 -5.22,-5.07 -9.51,-7.84c-0.52,-0.33 -1.05,-0.67 -1.59,-1.01c-1.83,-1.14 -16.71,-6.19 -18.6,-7.3l-15.74,-1.1c-0.09,0.05 -15.14,5.13 -15.23,5.18c-0.65,0.37 -1.3,0.74 -1.95,1.12c-5.57,3.21 -11.07,6.6 -14.23,9.51c-0.47,0.43 -0.88,0.84 -1.23,1.24c-0.28,0.32 -0.53,0.64 -0.74,0.94c-0.18,0.28 -0.37,0.75 -0.55,1.39c-1.9,6.91 -2.9,34.1 -3.39,63.67c-0.04,2.12 -0.07,4.25 -0.1,6.39c-0.01,0.94 -0.03,1.88 -0.04,2.82c-0.01,0.65 -0.02,1.3 -0.03,1.94c0,0.33 -0.01,0.65 -0.01,0.98c-0.02,1.6 -0.04,3.21 -0.05,4.81c-0.02,1.18 -0.03,2.36 -0.04,3.54c-0.14,14.89 -0.19,29.36 -0.18,41.15z" fill="#7846D1" id="svg_127"/>
       </g>
      </g>
     </g>
    </g>
    <g id="svg_128">
     <g id="svg_129">
      <path d="m181.29,404.68c-0.39,4.2 4.73,1.92 3.28,-6.59c-1.44,-8.51 2.66,-16.21 4.42,-15.96c1.78,0.25 -1.46,9.29 0.11,12.55c1.57,3.25 3.61,-3.08 5.63,-6.92c2.1,-3.99 1.97,-12.69 1.02,-18.9c-0.96,-6.21 10.3,-43.93 10.36,-54.86l1.37,-4.64l5.02,-16.97l7.86,-26.57c0,0 -4.71,-20.11 -12.65,-18.38c0,0 -4.2,14 -8.69,29.8c-0.77,2.69 -1.53,5.42 -2.3,8.15c-3.2,11.45 -6.2,22.76 -7.6,29.47c-3.7,17.72 -3.98,54.55 -3.98,54.55s-6.52,13.53 -6.67,19.55c-0.17,6.41 3.2,11.52 2.82,15.72z" fill="#FFA681" id="svg_130"/>
      <path d="m196.72,285.39l10.76,23.97l5.02,-16.97l-13.48,-15.15c-0.77,2.69 -1.53,5.42 -2.3,8.15z" fill="#F97853" id="svg_131"/>
     </g>
     <path d="m196.19,278.25c4.72,8.09 9.52,16.13 14.3,24.19c1.57,-5.27 3.2,-10.33 4.73,-14.98c0.01,-0.02 0.01,-0.02 0.01,-0.04c0.62,-1.86 1.21,-3.65 1.79,-5.37c0,-0.03 0.01,-0.06 0.03,-0.09c0.2,-0.6 0.39,-1.19 0.59,-1.77l0,-0.01c2.28,-6.89 4.05,-12.38 4.55,-15.57c1.36,-8.61 -2.35,-25.47 -7.58,-28.79l0,0c-0.14,0.3 -0.55,-0.64 -0.8,-0.06c-0.92,2.12 -5,7.37 -7.02,12.47c-0.26,0.66 -0.52,1.33 -0.79,2.02c-2.93,7.52 -6.5,17.29 -9.81,28z" fill="#7846D1" id="svg_132"/>
    </g>
    <g id="svg_133">
     <g id="svg_134">
      <g id="svg_135">
       <path d="m254.36,233.49c6.82,0 11.62,-6.22 11.82,-6.48c0.29,-0.38 0.23,-0.93 -0.12,-1.24c-0.35,-0.31 -0.87,-0.25 -1.16,0.13c-0.06,0.08 -4.53,5.83 -10.54,5.83c-5.93,0 -9.55,-6.51 -9.59,-6.57c-0.23,-0.42 -0.73,-0.57 -1.12,-0.32c-0.4,0.24 -0.53,0.78 -0.3,1.2c0.16,0.3 4.12,7.45 11.01,7.45z" fill="#6020BD" id="svg_136"/>
      </g>
     </g>
     <g id="svg_137">
      <path d="m283.17,293.05c0.12,0 0.25,-0.03 0.37,-0.1c0.41,-0.22 0.58,-0.75 0.37,-1.19l-2.97,-6.28c-0.21,-0.44 -0.71,-0.61 -1.12,-0.39c-0.41,0.22 -0.57,0.76 -0.36,1.19l2.97,6.28c0.14,0.31 0.44,0.49 0.74,0.49z" fill="#6020BD" id="svg_138"/>
     </g>
     <g id="svg_139">
      <path d="m289.36,287.9c0.11,0.08 0.23,0.12 0.37,0.13c0.45,0.05 0.85,-0.31 0.9,-0.8l0.58,-7.01c0.04,-0.49 -0.3,-0.92 -0.76,-0.96c-0.45,-0.05 -0.85,0.31 -0.89,0.8l-0.59,7.01c-0.03,0.35 0.13,0.66 0.39,0.83z" fill="#6020BD" id="svg_140"/>
     </g>
     <g id="svg_141">
      <path d="m273.4,277.04c0.4,0 0.75,-0.31 0.82,-0.75l1.07,-6.94c0.07,-0.48 -0.23,-0.94 -0.68,-1.02c-0.46,-0.08 -0.88,0.25 -0.96,0.73l-1.07,6.94c-0.07,0.49 0.23,0.94 0.68,1.02c0.05,0.01 0.09,0.02 0.14,0.02z" fill="#6020BD" id="svg_142"/>
     </g>
     <g id="svg_143">
      <path d="m246.71,279.62c0.14,0 0.28,-0.04 0.42,-0.12c0.39,-0.25 0.52,-0.8 0.29,-1.22l-3.35,-6.05c-0.24,-0.42 -0.75,-0.56 -1.14,-0.31c-0.39,0.25 -0.52,0.79 -0.29,1.21l3.35,6.06c0.16,0.27 0.43,0.43 0.72,0.43z" fill="#6020BD" id="svg_144"/>
     </g>
     <g id="svg_145">
      <path d="m279.5,252.48c0.15,0 0.31,-0.05 0.45,-0.14l5.52,-3.82c0.39,-0.27 0.5,-0.82 0.25,-1.23c-0.25,-0.41 -0.77,-0.53 -1.15,-0.26l-5.52,3.82c-0.39,0.26 -0.5,0.81 -0.25,1.22c0.16,0.27 0.43,0.41 0.7,0.41z" fill="#6020BD" id="svg_146"/>
     </g>
     <g id="svg_147">
      <path d="m254.88,308.89c0.13,0 0.26,-0.03 0.38,-0.09c0.41,-0.22 0.57,-0.76 0.36,-1.19l-2.97,-6.28c-0.2,-0.44 -0.7,-0.62 -1.11,-0.39c-0.41,0.22 -0.57,0.75 -0.37,1.19l2.97,6.28c0.15,0.31 0.44,0.48 0.74,0.48z" fill="#6020BD" id="svg_148"/>
     </g>
     <g id="svg_149">
      <path d="m267.94,257.2c0.28,0 0.55,-0.14 0.7,-0.41c0.25,-0.42 0.13,-0.97 -0.26,-1.23l-5.58,-3.73c-0.38,-0.26 -0.9,-0.13 -1.14,0.28c-0.24,0.42 -0.12,0.96 0.26,1.22l5.58,3.74c0.14,0.09 0.29,0.13 0.44,0.13z" fill="#6020BD" id="svg_150"/>
     </g>
     <g id="svg_151">
      <path d="m281.2,231.09c-0.01,0.17 0.03,0.34 0.1,0.48c0.13,0.26 0.38,0.45 0.67,0.47c0.46,0.03 0.85,-0.33 0.89,-0.82l0.26,-4.04c-0.52,-0.34 -1.05,-0.68 -1.6,-1.01l-0.32,4.92z" fill="#6020BD" id="svg_152"/>
     </g>
     <g id="svg_153">
      <path d="m288.64,269.62c0.28,0 0.55,-0.15 0.7,-0.42c0.25,-0.41 0.13,-0.96 -0.26,-1.22l-5.58,-3.73c-0.38,-0.26 -0.9,-0.14 -1.14,0.28c-0.24,0.41 -0.12,0.96 0.26,1.22l5.58,3.74c0.14,0.09 0.29,0.13 0.44,0.13z" fill="#6020BD" id="svg_154"/>
     </g>
     <g id="svg_155">
      <path d="m244.16,238.98c0.16,0 0.32,-0.05 0.46,-0.15c0.38,-0.27 0.49,-0.81 0.23,-1.22l-3.18,-5.17c-0.25,-0.41 -0.76,-0.52 -1.14,-0.25c-0.39,0.27 -0.49,0.82 -0.24,1.23l3.18,5.16c0.16,0.26 0.42,0.4 0.69,0.4z" fill="#6020BD" id="svg_156"/>
     </g>
     <g id="svg_157">
      <path d="m241.31,328.15c0.22,0 0.44,-0.09 0.6,-0.28l4.56,-5.07c0.31,-0.36 0.3,-0.92 -0.03,-1.26c-0.33,-0.34 -0.85,-0.32 -1.17,0.03l-4.56,5.08c-0.31,0.35 -0.3,0.91 0.03,1.25c0.16,0.16 0.36,0.25 0.57,0.25z" fill="#6020BD" id="svg_158"/>
     </g>
     <g id="svg_159">
      <path d="m258.06,327.09c0.21,0 0.43,-0.09 0.59,-0.27l4.56,-5.08c0.32,-0.35 0.31,-0.91 -0.02,-1.25c-0.33,-0.34 -0.86,-0.33 -1.18,0.02l-4.55,5.08c-0.32,0.35 -0.31,0.91 0.02,1.25c0.16,0.17 0.37,0.25 0.58,0.25z" fill="#6020BD" id="svg_160"/>
     </g>
     <g id="svg_161">
      <path d="m270.1,361.41c0.07,-0.22 0.07,-0.47 -0.03,-0.7l-2.85,-6.34c-0.2,-0.45 -0.69,-0.63 -1.1,-0.42c-0.42,0.21 -0.59,0.74 -0.39,1.18l2.84,6.35c0.2,0.44 0.69,0.63 1.11,0.41c0.2,-0.1 0.34,-0.28 0.42,-0.48z" fill="#6020BD" id="svg_162"/>
     </g>
     <g id="svg_163">
      <path d="m222.04,382.34c0.08,-0.21 0.07,-0.46 -0.03,-0.69l-2.84,-6.35c-0.2,-0.44 -0.7,-0.62 -1.11,-0.41c-0.41,0.21 -0.59,0.74 -0.39,1.18l2.85,6.35c0.2,0.44 0.69,0.62 1.1,0.41c0.2,-0.1 0.35,-0.28 0.42,-0.49z" fill="#6020BD" id="svg_164"/>
     </g>
     <g id="svg_165">
      <path d="m242.68,392.85c0.55,0.04 1.11,0.08 1.66,0.1l0.58,-3.95c0.07,-0.48 -0.24,-0.94 -0.69,-1.01c-0.46,-0.07 -0.88,0.26 -0.95,0.74l-0.6,4.12z" fill="#6020BD" id="svg_166"/>
     </g>
     <g id="svg_167">
      <path d="m236.06,380.91c0.18,-0.14 0.31,-0.34 0.34,-0.59l1.02,-6.96c0.07,-0.48 -0.24,-0.93 -0.69,-1.01c-0.45,-0.07 -0.88,0.26 -0.95,0.74l-1.02,6.95c-0.07,0.49 0.24,0.94 0.69,1.02c0.23,0.03 0.44,-0.03 0.61,-0.15z" fill="#6020BD" id="svg_168"/>
     </g>
     <g id="svg_169">
      <path d="m276.07,322.77c0.14,0 0.28,-0.03 0.41,-0.12c0.4,-0.24 0.53,-0.78 0.3,-1.21l-3.29,-6.09c-0.23,-0.42 -0.74,-0.56 -1.13,-0.32c-0.4,0.25 -0.54,0.79 -0.31,1.21l3.3,6.09c0.15,0.29 0.43,0.44 0.72,0.44z" fill="#6020BD" id="svg_170"/>
     </g>
     <g id="svg_171">
      <path d="m266.39,307.55c0.3,0 0.59,-0.17 0.74,-0.48l3.01,-6.25c0.21,-0.44 0.05,-0.97 -0.36,-1.2c-0.4,-0.22 -0.9,-0.05 -1.11,0.38l-3.02,6.26c-0.21,0.43 -0.05,0.97 0.36,1.19c0.12,0.07 0.25,0.1 0.38,0.1z" fill="#6020BD" id="svg_172"/>
     </g>
     <g id="svg_173">
      <path d="m292.6,306.63c0.09,0.11 0.2,0.2 0.31,0.25c0.28,0.12 0.61,0.08 0.86,-0.14l3.39,-3.05c-0.02,-0.75 -0.03,-1.51 -0.05,-2.27l-4.41,3.96c-0.35,0.32 -0.4,0.87 -0.1,1.25z" fill="#6020BD" id="svg_174"/>
     </g>
     <g id="svg_175">
      <path d="m266.43,241.2c0.3,0 0.59,-0.18 0.74,-0.48l3.02,-6.25c0.21,-0.44 0.05,-0.97 -0.36,-1.2c-0.41,-0.22 -0.91,-0.05 -1.12,0.38l-3.01,6.26c-0.21,0.43 -0.05,0.97 0.35,1.19c0.12,0.07 0.25,0.1 0.38,0.1z" fill="#6020BD" id="svg_176"/>
     </g>
     <g id="svg_177">
      <path d="m247.1,264.11c0.05,0 0.1,0 0.15,-0.01c0.45,-0.1 0.75,-0.56 0.66,-1.04l-1.25,-6.91c-0.08,-0.48 -0.52,-0.8 -0.97,-0.7c-0.45,0.09 -0.74,0.55 -0.66,1.03l1.25,6.91c0.08,0.43 0.43,0.72 0.82,0.72z" fill="#6020BD" id="svg_178"/>
     </g>
     <g id="svg_179">
      <path d="m257.86,270.18c0.05,0 0.11,-0.01 0.16,-0.02c0.45,-0.09 0.74,-0.56 0.66,-1.04l-1.25,-6.91c-0.09,-0.48 -0.52,-0.79 -0.97,-0.7c-0.45,0.1 -0.75,0.56 -0.66,1.04l1.25,6.91c0.07,0.42 0.42,0.72 0.81,0.72z" fill="#6020BD" id="svg_180"/>
     </g>
     <g id="svg_181">
      <path d="m250.15,247.38c0.27,0 0.54,-0.14 0.7,-0.41l3.53,-5.94c0.24,-0.41 0.13,-0.96 -0.26,-1.22c-0.39,-0.27 -0.9,-0.14 -1.15,0.27l-3.52,5.94c-0.25,0.41 -0.13,0.96 0.25,1.22c0.14,0.1 0.3,0.14 0.45,0.14z" fill="#6020BD" id="svg_182"/>
     </g>
     <g id="svg_183">
      <path d="m282.5,308.65c0.22,-0.26 0.29,-0.65 0.14,-0.99l-2.84,-6.35c-0.19,-0.44 -0.69,-0.63 -1.1,-0.42c-0.42,0.21 -0.59,0.74 -0.39,1.18l2.83,6.35c0.2,0.45 0.69,0.63 1.11,0.42c0.09,-0.05 0.18,-0.11 0.25,-0.19z" fill="#6020BD" id="svg_184"/>
     </g>
     <g id="svg_185">
      <path d="m261.16,290.22c0.34,0 0.65,-0.21 0.78,-0.56l2.39,-6.55c0.17,-0.46 -0.04,-0.97 -0.47,-1.15c-0.42,-0.18 -0.9,0.04 -1.07,0.5l-2.4,6.55c-0.17,0.46 0.04,0.97 0.47,1.15c0.1,0.04 0.2,0.06 0.3,0.06z" fill="#6020BD" id="svg_186"/>
     </g>
     <g id="svg_187">
      <path d="m234.82,330.7c0.12,0 0.25,-0.03 0.37,-0.1c0.41,-0.22 0.57,-0.75 0.37,-1.19l-2.97,-6.28c-0.21,-0.44 -0.71,-0.61 -1.12,-0.39c-0.41,0.22 -0.57,0.76 -0.36,1.19l2.97,6.28c0.14,0.31 0.43,0.49 0.74,0.49z" fill="#6020BD" id="svg_188"/>
     </g>
     <g id="svg_189">
      <path d="m278.48,375.83c0,0.13 0.03,0.27 0.1,0.4c0.21,0.43 0.71,0.6 1.11,0.38l5.85,-3.24c0.4,-0.23 0.56,-0.76 0.35,-1.2c-0.21,-0.43 -0.71,-0.6 -1.12,-0.38l-5.84,3.24c-0.29,0.16 -0.45,0.47 -0.45,0.8z" fill="#6020BD" id="svg_190"/>
     </g>
     <g id="svg_191">
      <path d="m294.34,379.85c0,0.14 0.03,0.28 0.09,0.4c0.21,0.44 0.72,0.6 1.12,0.38l2.54,-1.41c0,-0.64 0,-1.3 0,-1.99l-3.3,1.83c-0.29,0.15 -0.45,0.47 -0.45,0.79z" fill="#6020BD" id="svg_192"/>
     </g>
     <g id="svg_193">
      <path d="m269.8,387.68l1.99,4.56c0.37,-0.04 0.73,-0.08 1.09,-0.13c0.22,-0.02 0.44,-0.05 0.66,-0.07l-2.24,-5.11c-0.2,-0.45 -0.69,-0.64 -1.11,-0.43c-0.41,0.21 -0.59,0.73 -0.39,1.18z" fill="#6020BD" id="svg_194"/>
     </g>
     <g id="svg_195">
      <path d="m224.04,314.69c0.4,0 0.75,-0.31 0.81,-0.75l1.08,-6.94c0.07,-0.48 -0.23,-0.94 -0.69,-1.02c-0.45,-0.08 -0.87,0.25 -0.95,0.73l-1.07,6.94c-0.08,0.49 0.23,0.94 0.68,1.02c0.04,0.01 0.09,0.02 0.14,0.02z" fill="#6020BD" id="svg_196"/>
     </g>
     <g id="svg_197">
      <path d="m223.35,263.46c0.15,0 0.29,-0.04 0.42,-0.13c0.4,-0.25 0.53,-0.79 0.29,-1.21l-3.35,-6.06c-0.23,-0.42 -0.74,-0.56 -1.13,-0.31c-0.4,0.25 -0.53,0.79 -0.3,1.22l3.36,6.05c0.15,0.28 0.43,0.44 0.71,0.44z" fill="#6020BD" id="svg_198"/>
     </g>
     <g id="svg_199">
      <path d="m234.13,288.07c0.15,0 0.31,-0.05 0.45,-0.14l5.52,-3.82c0.39,-0.27 0.5,-0.82 0.25,-1.23c-0.25,-0.41 -0.76,-0.53 -1.15,-0.26l-5.52,3.82c-0.39,0.26 -0.5,0.81 -0.25,1.22c0.16,0.27 0.43,0.41 0.7,0.41z" fill="#6020BD" id="svg_200"/>
     </g>
     <g id="svg_201">
      <path d="m292.63,329.35c0.12,0 0.25,-0.03 0.37,-0.1c0.41,-0.22 0.57,-0.75 0.37,-1.19l-2.97,-6.28c-0.21,-0.44 -0.71,-0.61 -1.12,-0.39c-0.41,0.22 -0.57,0.76 -0.36,1.19l2.97,6.28c0.14,0.31 0.43,0.49 0.74,0.49z" fill="#6020BD" id="svg_202"/>
     </g>
     <g id="svg_203">
      <path d="m224.72,297.61c0.27,0 0.54,-0.15 0.7,-0.42c0.24,-0.41 0.12,-0.96 -0.26,-1.22l-5.58,-3.73c-0.39,-0.26 -0.9,-0.14 -1.14,0.28c-0.25,0.41 -0.13,0.96 0.26,1.22l5.58,3.73c0.13,0.09 0.28,0.14 0.44,0.14z" fill="#6020BD" id="svg_204"/>
     </g>
     <g id="svg_205">
      <path d="m238.09,306.49c0.2,0.2 0.49,0.29 0.78,0.2c0.44,-0.13 0.7,-0.61 0.58,-1.08l-1.73,-6.8c-0.12,-0.47 -0.57,-0.75 -1.02,-0.62c-0.44,0.13 -0.7,0.62 -0.58,1.09l1.73,6.79c0.04,0.17 0.12,0.31 0.24,0.42z" fill="#6020BD" id="svg_206"/>
     </g>
     <g id="svg_207">
      <path d="m214.55,234.81l1.44,2.34c0.16,0.26 0.42,0.4 0.7,0.4c0.15,0 0.31,-0.05 0.45,-0.15c0.38,-0.26 0.49,-0.81 0.24,-1.22l-1.61,-2.61c-0.46,0.43 -0.87,0.84 -1.22,1.24z" fill="#6020BD" id="svg_208"/>
     </g>
     <g id="svg_209">
      <path d="m208.24,250.25l1.53,2.49c0.16,0.26 0.43,0.4 0.7,0.4c0.16,0 0.31,-0.05 0.45,-0.14c0.39,-0.28 0.49,-0.83 0.24,-1.23l-2.18,-3.54c-0.24,0.65 -0.48,1.33 -0.74,2.02z" fill="#6020BD" id="svg_210"/>
     </g>
     <g id="svg_211">
      <path d="m279.95,351.27c0.22,0 0.44,-0.09 0.6,-0.27l4.56,-5.08c0.32,-0.35 0.31,-0.91 -0.02,-1.25c-0.33,-0.34 -0.86,-0.33 -1.18,0.03l-4.55,5.07c-0.32,0.36 -0.31,0.92 0.02,1.26c0.16,0.16 0.37,0.24 0.57,0.24z" fill="#6020BD" id="svg_212"/>
     </g>
     <g id="svg_213">
      <path d="m249.63,369.02c0.22,0 0.44,-0.09 0.6,-0.27l4.56,-5.08c0.32,-0.35 0.3,-0.91 -0.03,-1.25c-0.33,-0.34 -0.85,-0.33 -1.17,0.02l-4.55,5.08c-0.32,0.35 -0.31,0.91 0.02,1.25c0.16,0.17 0.37,0.25 0.57,0.25z" fill="#6020BD" id="svg_214"/>
     </g>
     <g id="svg_215">
      <path d="m241.21,361.97c0.13,-0.18 0.2,-0.42 0.17,-0.67l-0.82,-6.98c-0.05,-0.49 -0.47,-0.83 -0.92,-0.77c-0.46,0.06 -0.78,0.51 -0.72,0.99l0.82,6.98c0.06,0.49 0.47,0.83 0.93,0.77c0.22,-0.03 0.41,-0.15 0.54,-0.32z" fill="#6020BD" id="svg_216"/>
     </g>
     <g id="svg_217">
      <path d="m258.48,381.65c0.21,0 0.43,-0.09 0.59,-0.27l4.56,-5.08c0.32,-0.35 0.31,-0.91 -0.02,-1.25c-0.33,-0.34 -0.86,-0.33 -1.17,0.02l-4.56,5.08c-0.32,0.35 -0.31,0.91 0.02,1.25c0.16,0.17 0.37,0.25 0.58,0.25z" fill="#6020BD" id="svg_218"/>
     </g>
     <g id="svg_219">
      <path d="m209.42,362.44c0,0.6 0,1.2 0,1.78l5.15,0.46c0.45,0.05 0.86,-0.32 0.89,-0.81c0.04,-0.49 -0.3,-0.91 -0.75,-0.96l-5.29,-0.47z" fill="#6020BD" id="svg_220"/>
     </g>
     <g id="svg_221">
      <path d="m269.66,340.6c0.22,0 0.44,-0.09 0.6,-0.28l4.56,-5.07c0.31,-0.36 0.3,-0.92 -0.03,-1.26c-0.33,-0.34 -0.85,-0.32 -1.17,0.03l-4.56,5.08c-0.31,0.35 -0.3,0.91 0.03,1.25c0.16,0.17 0.36,0.25 0.57,0.25z" fill="#6020BD" id="svg_222"/>
     </g>
     <g id="svg_223">
      <path d="m247.74,338.39c0.01,0.23 0.11,0.46 0.29,0.62l5.04,4.53c0.35,0.32 0.87,0.27 1.17,-0.11c0.29,-0.37 0.25,-0.93 -0.1,-1.25l-5.04,-4.53c-0.35,-0.31 -0.87,-0.26 -1.17,0.11c-0.14,0.18 -0.21,0.41 -0.19,0.63z" fill="#6020BD" id="svg_224"/>
     </g>
     <g id="svg_225">
      <path d="m223.74,363.3c0.14,0 0.29,-0.03 0.42,-0.12c0.39,-0.24 0.53,-0.78 0.3,-1.21l-3.3,-6.09c-0.23,-0.42 -0.73,-0.57 -1.13,-0.32c-0.4,0.24 -0.53,0.79 -0.3,1.21l3.29,6.09c0.16,0.29 0.44,0.44 0.72,0.44z" fill="#6020BD" id="svg_226"/>
     </g>
     <g id="svg_227">
      <path d="m218.04,345.2c0.3,0 0.59,-0.17 0.74,-0.48l3.01,-6.25c0.21,-0.44 0.05,-0.97 -0.35,-1.2c-0.41,-0.22 -0.91,-0.05 -1.12,0.38l-3.02,6.26c-0.21,0.43 -0.05,0.97 0.36,1.19c0.12,0.07 0.25,0.1 0.38,0.1z" fill="#6020BD" id="svg_228"/>
     </g>
     <g id="svg_229">
      <path d="m227.03,274.19c0.31,0 0.6,-0.17 0.74,-0.48l3.02,-6.25c0.21,-0.44 0.05,-0.97 -0.36,-1.2c-0.4,-0.22 -0.9,-0.05 -1.12,0.39l-3.01,6.25c-0.21,0.43 -0.05,0.97 0.36,1.19c0.12,0.07 0.25,0.1 0.37,0.1z" fill="#6020BD" id="svg_230"/>
     </g>
     <g id="svg_231">
      <path d="m223.74,247.95c0.05,0 0.11,-0.01 0.16,-0.02c0.45,-0.09 0.74,-0.56 0.66,-1.04l-1.25,-6.91c-0.09,-0.48 -0.52,-0.79 -0.97,-0.7c-0.45,0.09 -0.75,0.56 -0.66,1.04l1.25,6.91c0.07,0.42 0.42,0.72 0.81,0.72z" fill="#6020BD" id="svg_232"/>
     </g>
     <g id="svg_233">
      <path d="m208.59,271.79c0.05,0 0.1,0 0.16,-0.02c0.45,-0.09 0.74,-0.55 0.65,-1.03l-1.24,-6.91c-0.09,-0.48 -0.53,-0.8 -0.97,-0.71c-0.45,0.1 -0.75,0.56 -0.66,1.04l1.25,6.91c0.07,0.43 0.42,0.72 0.81,0.72z" fill="#6020BD" id="svg_234"/>
     </g>
     <g id="svg_235">
      <path d="m234.51,254.01c0.05,0 0.1,0 0.15,-0.01c0.45,-0.09 0.75,-0.56 0.66,-1.04l-1.25,-6.91c-0.08,-0.48 -0.52,-0.79 -0.97,-0.7c-0.45,0.09 -0.74,0.56 -0.66,1.04l1.25,6.91c0.08,0.42 0.43,0.71 0.82,0.71z" fill="#6020BD" id="svg_236"/>
     </g>
     <g id="svg_237">
      <path d="m229.57,229.95c0.16,0.03 0.31,0.02 0.46,-0.03c0.25,-0.1 0.47,-0.33 0.53,-0.63l1.4,-6.35c-0.65,0.37 -1.3,0.74 -1.95,1.12l-1.06,4.82c-0.11,0.48 0.17,0.95 0.62,1.07z" fill="#6020BD" id="svg_238"/>
     </g>
     <g id="svg_239">
      <path d="m210.6,282.47c0.27,0 0.54,-0.14 0.7,-0.41l3.52,-5.94c0.25,-0.41 0.14,-0.96 -0.25,-1.22c-0.39,-0.26 -0.9,-0.14 -1.15,0.27l-3.52,5.94c-0.25,0.42 -0.13,0.96 0.25,1.23c0.14,0.09 0.29,0.13 0.45,0.13z" fill="#6020BD" id="svg_240"/>
     </g>
     <g id="svg_241">
      <path d="m234.15,346.3c0.22,-0.26 0.29,-0.65 0.14,-0.99l-2.83,-6.35c-0.2,-0.44 -0.7,-0.63 -1.11,-0.42c-0.41,0.21 -0.59,0.74 -0.39,1.18l2.83,6.36c0.2,0.44 0.69,0.63 1.11,0.41c0.09,-0.05 0.18,-0.11 0.25,-0.19z" fill="#6020BD" id="svg_242"/>
     </g>
     <g id="svg_243">
      <path d="m292.46,358.24l5.54,0.95c0,-0.59 0,-1.19 -0.01,-1.79l-5.26,-0.92c-0.45,-0.07 -0.88,0.25 -0.95,0.73c-0.07,0.49 0.23,0.95 0.68,1.03z" fill="#6020BD" id="svg_244"/>
     </g>
     <g id="svg_245">
      <path d="m294.15,342.01l3.69,0.64c-0.01,-0.6 -0.01,-1.2 -0.02,-1.8l-3.4,-0.59c-0.46,-0.08 -0.88,0.25 -0.95,0.73c-0.08,0.49 0.23,0.94 0.68,1.02z" fill="#6020BD" id="svg_246"/>
     </g>
     <g id="svg_247">
      <path d="m212.81,327.87c0.33,0 0.65,-0.21 0.77,-0.56l2.4,-6.55c0.17,-0.46 -0.04,-0.97 -0.47,-1.15c-0.42,-0.18 -0.91,0.04 -1.07,0.5l-2.4,6.55c-0.17,0.46 0.04,0.97 0.47,1.15c0.1,0.04 0.2,0.06 0.3,0.06z" fill="#6020BD" id="svg_248"/>
     </g>
    </g>
    <g id="svg_249">
     <g id="svg_250">
      <g id="svg_251">
       <path d="m209.77,307.2c1.55,-6.43 3.51,-13.58 5.45,-19.74c0,-0.02 0.01,-0.03 0.01,-0.04c0.6,-1.9 1.2,-3.71 1.78,-5.37c0.01,-0.03 0.02,-0.06 0.03,-0.09c0.18,-0.52 0.37,-1.02 0.55,-1.52c0.03,-0.09 0.04,-0.17 0.04,-0.25l0,-0.01c0,-0.29 -0.18,-0.57 -0.48,-0.68c-0.38,-0.13 -0.8,0.06 -0.94,0.44c-1.99,5.42 -4.33,13.22 -6.35,20.87c-0.03,2.12 -0.06,4.25 -0.09,6.39z" fill="#6020BD" id="svg_252"/>
      </g>
     </g>
    </g>
    <g id="svg_253">
     <path d="m233.54,183c0,0 -5.77,-6.37 -3.59,-13.77c2.18,-7.4 8.14,-7.32 8.14,-7.32s3.47,-7.87 9.4,-8.13c5.92,-0.26 11.5,-10.78 16.89,-7.92c5.39,2.85 -0.58,9.09 -0.58,9.09s9.23,-9.74 12.28,-6.89c3.04,2.86 -4.23,10.52 -4.23,10.52s7.76,-5.45 10.31,-3.37c2.55,2.07 -6.08,11.03 -6.08,11.03s5.58,10.07 -0.04,14.58l-42.5,2.18z" fill="#403657" id="svg_254"/>
     <g id="svg_255">
      <path d="m273.88,185.13c0,0 3.69,-4.93 6.44,-0.85c2.74,4.07 -1.14,16.09 -7.86,13.15l1.42,-12.3z" fill="#F97853" id="svg_256"/>
      <g id="svg_257">
       <path d="m273.93,193.72c0.25,0 0.47,-0.16 0.55,-0.42c1.04,-3.71 4.88,-5.21 4.92,-5.23c0.29,-0.11 0.44,-0.44 0.33,-0.73c-0.11,-0.29 -0.44,-0.44 -0.73,-0.33c-0.18,0.07 -4.42,1.71 -5.62,5.99c-0.08,0.3 0.09,0.61 0.4,0.7c0.05,0.01 0.1,0.02 0.15,0.02z" fill="#EA5143" id="svg_258"/>
      </g>
      <g id="svg_259">
       <path d="m277.81,191.85c0.11,0 0.21,-0.03 0.31,-0.09c0.26,-0.17 0.34,-0.52 0.17,-0.79c-0.03,-0.04 -0.71,-1.08 -2.14,-1.71c-0.28,-0.13 -0.62,0 -0.75,0.28c-0.12,0.29 0,0.62 0.29,0.75c1.1,0.49 1.64,1.29 1.64,1.3c0.11,0.17 0.29,0.26 0.48,0.26z" fill="#EA5143" id="svg_260"/>
      </g>
     </g>
     <g id="svg_261">
      <path d="m235.83,185.13c0,0 -3.69,-4.93 -6.44,-0.85c-2.74,4.07 1.14,16.09 7.86,13.15l-1.42,-12.3z" fill="#F97853" id="svg_262"/>
      <g id="svg_263">
       <path d="m235.78,193.72c-0.24,0 -0.47,-0.16 -0.54,-0.42c-1.04,-3.71 -4.89,-5.21 -4.93,-5.23c-0.29,-0.11 -0.44,-0.44 -0.33,-0.73c0.11,-0.29 0.44,-0.44 0.73,-0.33c0.18,0.07 4.42,1.71 5.62,5.99c0.09,0.3 -0.09,0.61 -0.39,0.7c-0.05,0.01 -0.1,0.02 -0.16,0.02z" fill="#EA5143" id="svg_264"/>
      </g>
      <g id="svg_265">
       <g id="svg_266">
        <path d="m231.9,191.85c-0.1,0 -0.21,-0.03 -0.3,-0.09c-0.27,-0.17 -0.34,-0.52 -0.17,-0.79c0.02,-0.04 0.7,-1.08 2.13,-1.71c0.28,-0.13 0.62,0 0.75,0.28c0.13,0.29 0,0.62 -0.29,0.75c-1.1,0.49 -1.63,1.29 -1.64,1.3c-0.11,0.17 -0.29,0.26 -0.48,0.26z" fill="#EA5143" id="svg_267"/>
       </g>
      </g>
     </g>
     <path d="m245.77,207.63l0,11.96c0,0 3.56,6.09 8.39,6.5c4.81,0.42 9.09,-5.24 9.09,-5.24l0,-12.38l-17.48,-0.84z" fill="#FFA681" id="svg_268"/>
     <path d="m245.77,207.63l0,5.31c3.23,3.59 8.98,4.48 17.48,3.23l0,-7.7l-17.48,-0.84z" fill="#F97853" id="svg_269"/>
     <path d="m233.16,176.93c0.22,4.64 0.67,10.46 1.55,15.1l0,0.01c0,0.01 0.01,0.03 0.01,0.05c0,0 0.01,0 0.01,0c0.22,1.14 0.46,2.21 0.73,3.16c0.16,0.57 0.33,1.16 0.53,1.76c2.83,8.89 9.4,21.76 25.9,15.87c6.95,-2.48 10.57,-9.65 12.41,-17.44c0.11,-0.46 0.21,-0.92 0.3,-1.36c0.06,-0.3 0.12,-0.58 0.18,-0.87l0.08,-0.41c0.01,-0.07 0.02,-0.12 0.02,-0.15c0.01,-0.02 0.01,-0.03 0.01,-0.03c1.09,-5.98 1.25,-12.04 1.17,-16.36c-0.08,-4.41 -2.49,-8.45 -6.33,-10.62c-10.4,-5.9 -21.37,-3.7 -28.6,-0.92c-5.01,1.93 -8.22,6.85 -7.97,12.21z" fill="#FFA681" id="svg_270"/>
     <path d="m234.71,192.03c0,0 0,0 0,0.01c0,0.01 0.01,0.03 0.01,0.05c0,0 0.01,0 0.01,0c0.1,0.39 0.68,2.52 1.26,4.92c2.83,8.89 9.4,21.76 25.9,15.87c6.95,-2.48 10.57,-9.65 12.41,-17.44c0.11,-0.46 0.21,-0.92 0.3,-1.36c0.06,-0.3 0.12,-0.58 0.18,-0.87l0.08,-0.41c0.01,-0.07 0.02,-0.12 0.02,-0.15c0.01,-0.02 0.01,-0.03 0.01,-0.03l-2.43,-0.49c-0.46,2.3 -1.49,4.46 -2.75,6.39c-2.05,-4.92 -12.47,-1.65 -12.47,-1.65l-0.05,0.01c-0.63,0.2 -1.29,0.3 -1.94,0.3c-0.68,0 -1.35,-0.1 -2,-0.31c0,0 -10.29,-3.41 -12.42,1.28c-2.14,-3.31 -3.58,-6.3 -3.58,-6.3l-2.54,0.18l0,0zm20.51,7.06c11.78,-1.59 9.93,4.76 9.93,4.76c-1.31,1.19 -2.5,2.06 -3.31,2.51c-2.57,1.43 -5.1,1.98 -6.93,1.89c-1.81,-0.08 -2.31,0.29 -6.88,-2.18c-0.8,-0.43 -1.62,-1.08 -2.42,-1.84c0,0 0,0 0,0l0,0c-0.2,-1.24 -2.2,-7.17 9.61,-5.14z" fill="#403657" id="svg_271"/>
     <path d="m244.55,185.57c0,1.28 0.66,2.32 1.47,2.32c0.81,0 1.47,-1.04 1.47,-2.32c0,-1.27 -0.66,-2.31 -1.47,-2.31c-0.81,0 -1.47,1.04 -1.47,2.31z" fill="#403657" id="svg_272"/>
     <path d="m262.92,185.57c0,1.28 0.65,2.32 1.46,2.32c0.82,0 1.47,-1.04 1.47,-2.32c0,-1.27 -0.66,-2.31 -1.47,-2.31c-0.81,0 -1.46,1.04 -1.46,2.31z" fill="#403657" id="svg_273"/>
     <path d="m240.79,177.78c0,0 6.07,-2.4 10.74,-0.38l-0.46,2.6c0,0 -6.86,-0.58 -10.32,0.82c-0.31,-1 -0.36,-2.01 0.04,-3.04z" fill="#403657" id="svg_274"/>
     <path d="m269.65,177.79c0,0 -6.11,-2.41 -10.82,-0.38l0.47,2.62c0,0 6.91,-0.59 10.39,0.83c0.32,-1.01 0.36,-2.03 -0.04,-3.07z" fill="#403657" id="svg_275"/>
     <g id="svg_276">
      <g id="svg_277">
       <path d="m254.66,195.9c-0.96,0 -1.91,-0.37 -2.06,-0.43c-0.29,-0.12 -0.43,-0.45 -0.31,-0.74c0.12,-0.29 0.45,-0.43 0.74,-0.31c0.51,0.2 1.75,0.53 2.28,0.21c0.1,-0.06 0.24,-0.18 0.28,-0.53c0.2,-1.98 -0.34,-8.63 -0.34,-8.7c-0.03,-0.31 0.2,-0.58 0.52,-0.61c0.31,-0.03 0.58,0.21 0.61,0.52c0.02,0.28 0.56,6.82 0.34,8.91c-0.08,0.78 -0.49,1.19 -0.83,1.39c-0.36,0.22 -0.8,0.29 -1.23,0.29z" fill="#F97853" id="svg_278"/>
      </g>
     </g>
     <path d="m261.9,200.23c-0.43,2.17 -1.87,6.16 -6.69,6.16c-4.84,0 -6.2,-3.65 -6.67,-6.16l13.36,0z" fill="#FFFFFF" id="svg_279"/>
     <path d="m233.16,176.93c0.23,4.64 0.67,10.45 1.55,15.1l2.54,-0.18c0,0 -0.61,-3.92 -0.9,-6.48c-0.28,-2.56 -0.76,-7.33 1.42,-7.93c2.17,-0.59 0.9,-6.04 3.92,-8.4c3.03,-2.37 9.8,-3.02 14.27,-0.27c4.46,2.74 9.49,-0.21 11.55,0.27c2.06,0.47 4.86,3.31 4.1,5.96c-0.76,2.65 1.51,4.26 2.06,7c0.55,2.75 -1.21,10.13 -1.21,10.13l2.43,0.49c1.09,-5.99 1.25,-12.04 1.17,-16.36c-0.08,-4.41 -2.49,-8.45 -6.33,-10.62c-10.4,-5.9 -21.37,-3.7 -28.6,-0.92c-5.01,1.93 -8.22,6.85 -7.97,12.21z" fill="#403657" id="svg_280"/>
    </g>
   </g>
   <g id="svg_281">
    <g id="svg_282">
     <g id="svg_283">
      <g id="svg_284">
       <g id="svg_285">
        <path d="m337.68,304.87c-1.54,14.08 -10.74,45.54 -17.1,51.7c-8.29,8.02 -35.56,24.91 -49.77,33.57c-2.56,1.57 9.48,11.97 9.48,11.97s37.72,-16.13 52.12,-28.85c4.08,-3.6 12.35,-14.94 21.69,-36.56c2.84,-6.55 9.7,-19.77 9.34,-28.39c-0.41,-9.92 -16.17,-8.29 -25.76,-3.44z" fill="#7846D1" id="svg_286"/>
       </g>
      </g>
      <path d="m308.25,385.76c0,0 -10.26,3.89 -13.9,8.18c-3.63,4.28 -8.44,7.92 -7.27,9.61c1.17,1.69 6.49,-3.25 6.49,-3.25s1.46,5.43 6.62,6.01c5.17,0.59 14.94,-9.52 14.94,-9.52l-6.88,-11.03z" fill="#FFA681" id="svg_287"/>
      <g id="svg_288">
       <g id="svg_289">
        <path d="m409.52,344.18c0,0.89 0,1.95 -0.02,3.14c-0.02,1.19 -0.04,2.52 -0.08,3.97c-0.03,1 -0.06,2.05 -0.09,3.15c-0.04,0.93 -0.07,1.9 -0.11,2.9c-0.05,1.02 -0.09,2.07 -0.14,3.15c-0.72,14.75 -2.45,35.11 -6.24,51.44l-79.82,0c2.66,-11.87 6.73,-30.58 9.96,-54.86c0.14,-1.02 0.27,-2.05 0.41,-3.09c0.13,-1.04 0.26,-2.1 0.39,-3.16c0.07,-0.56 0.14,-1.13 0.2,-1.7c0.06,-0.47 0.11,-0.94 0.16,-1.4c0.15,-1.31 0.29,-2.59 0.41,-3.86c0.1,-1.05 0.19,-2.09 0.28,-3.11c1.37,-16.33 0.89,-28.56 2.85,-35.89c2.29,-8.53 29,-18.31 29,-18.31l16.74,0.88c0,0 15.96,5.21 24.48,12.7c8.54,7.49 1.4,29.84 1.61,42.53c0.01,0.44 0.01,0.95 0.01,1.52z" fill="#9C78ED" id="svg_290"/>
        <g id="svg_291">
         <path d="m409.5,347.32c-7.26,0.88 -14.83,1.23 -22.26,1.23c-24.33,0 -47.16,-3.72 -52.69,-4.69c0.1,-1.05 0.19,-2.09 0.28,-3.11c6.42,1.14 43.61,7.29 74.69,3.43c0,0.89 0,1.95 -0.02,3.14z" fill="#E0D5F8" id="svg_292"/>
        </g>
        <g id="svg_293">
         <path d="m409.42,351.29c-0.03,1 -0.06,2.05 -0.09,3.15c-7.21,0.87 -14.72,1.21 -22.09,1.21c-25.7,0 -49.74,-4.15 -53.46,-4.83c0.07,-0.56 0.14,-1.13 0.2,-1.7c0.06,-0.47 0.11,-0.93 0.16,-1.4c3.7,0.68 42.8,7.58 75.28,3.57z" fill="#E0D5F8" id="svg_294"/>
        </g>
        <g id="svg_295">
         <path d="m409.22,357.34c-0.05,1.02 -0.09,2.07 -0.14,3.15c-7.5,0.96 -15.35,1.33 -23.05,1.33c-24.88,0 -48.2,-3.89 -53.05,-4.75c0.14,-1.02 0.27,-2.05 0.41,-3.09c5.76,1.02 44.17,7.5 75.83,3.36z" fill="#E0D5F8" id="svg_296"/>
        </g>
        <g id="svg_297">
         <path d="m371.51,302.61c8.32,0 16,-8.85 16.33,-9.23c0.21,-0.25 0.18,-0.62 -0.06,-0.83c-0.25,-0.21 -0.62,-0.18 -0.83,0.06c-0.08,0.1 -8.12,9.36 -16.16,8.8c-0.32,-0.02 -0.6,0.22 -0.62,0.55c-0.03,0.32 0.22,0.6 0.54,0.62c0.27,0.02 0.54,0.03 0.8,0.03z" fill="#7846D1" id="svg_298"/>
        </g>
        <g id="svg_299">
         <path d="m378.73,402.08c0.29,0 0.54,-0.22 0.58,-0.52c0.03,-0.32 -0.2,-0.62 -0.52,-0.65c-21.49,-2.48 -30.4,-39.68 -30.48,-40.06c-0.08,-0.31 -0.39,-0.51 -0.71,-0.44c-0.32,0.08 -0.51,0.39 -0.44,0.71c0.37,1.56 9.19,38.38 31.5,40.95c0.02,0.01 0.04,0.01 0.07,0.01z" fill="#7846D1" id="svg_300"/>
        </g>
        <g id="svg_301">
         <path d="m370.17,390.82c0.19,0 0.39,-0.1 0.5,-0.28c0.17,-0.28 0.08,-0.64 -0.19,-0.81c-11.44,-7.05 -13.14,-17.44 -13.15,-17.54c-0.05,-0.32 -0.35,-0.54 -0.67,-0.49c-0.32,0.05 -0.54,0.35 -0.49,0.67c0.06,0.44 1.77,11.01 13.69,18.36c0.09,0.06 0.2,0.09 0.31,0.09z" fill="#7846D1" id="svg_302"/>
        </g>
       </g>
       <g id="svg_303">
        <circle cx="376.84" cy="247.88" fill="#403657" id="svg_304" r="23.55"/>
        <path d="m353.68,243.66c0,0 -6.67,-1.84 -5.79,-8.32c0.75,-5.5 7.22,-1.93 6.65,-6.24c-0.57,-4.3 -1.83,-8.22 3.74,-9.29c4.87,-0.94 4.95,2.4 11.35,-2.45c7.55,-5.72 13.36,7.53 20.1,7.93c9.95,0.58 11.21,6.21 12.18,10.71c0.98,4.5 -2.85,7.66 -2.85,7.66l-45.38,0z" fill="#403657" id="svg_305"/>
        <g id="svg_306">
         <path d="m357.25,254.47c0,0 -3.73,-4.97 -6.5,-0.86c-2.78,4.11 1.15,16.26 7.94,13.29l-1.44,-12.43z" fill="#F97853" id="svg_307"/>
         <g id="svg_308">
          <path d="m357.2,263.15c-0.25,0 -0.48,-0.17 -0.55,-0.42c-1.05,-3.75 -4.94,-5.27 -4.98,-5.29c-0.29,-0.11 -0.44,-0.44 -0.33,-0.74c0.11,-0.29 0.44,-0.44 0.74,-0.33c0.18,0.07 4.46,1.73 5.68,6.05c0.08,0.3 -0.1,0.62 -0.4,0.71c-0.05,0.01 -0.11,0.02 -0.16,0.02z" fill="#EA5143" id="svg_309"/>
         </g>
         <g id="svg_310">
          <g id="svg_311">
           <path d="m353.28,261.26c-0.11,0 -0.21,-0.03 -0.31,-0.09c-0.27,-0.17 -0.34,-0.53 -0.17,-0.79c0.03,-0.05 0.71,-1.1 2.15,-1.74c0.29,-0.13 0.63,0 0.76,0.29c0.13,0.29 0,0.63 -0.29,0.76c-1.11,0.49 -1.65,1.3 -1.66,1.31c-0.11,0.17 -0.29,0.26 -0.48,0.26z" fill="#EA5143" id="svg_312"/>
          </g>
         </g>
        </g>
        <path d="m384.3,277.2l0,12.08c0,0 -4.96,5.33 -9.83,5.75c-4.87,0.42 -7.83,-5.36 -7.83,-5.36l0,-11.62l17.66,-0.85z" fill="#FFA681" id="svg_313"/>
        <path d="m384.3,277.2l0,5.36c-3.27,3.63 -9.07,4.54 -17.66,3.27l0,-7.78l17.66,-0.85z" fill="#F97853" id="svg_314"/>
        <path d="m397.04,246.18c-0.23,4.7 -0.68,10.57 -1.57,15.26c-0.22,1.17 -0.48,2.27 -0.76,3.26c-2.54,8.9 -8.9,24.16 -26.7,17.81c-7.86,-2.81 -11.5,-11.57 -13.13,-20.47c-1.1,-6.05 -1.26,-12.16 -1.18,-16.53c0.08,-4.46 2.51,-8.53 6.39,-10.73c10.51,-5.95 21.6,-3.73 28.9,-0.93c5.06,1.95 8.31,6.92 8.05,12.33z" fill="#FFA681" id="svg_315"/>
        <g id="svg_316">
         <g id="svg_317">
          <g id="svg_318">
           <g id="svg_319">
            <g id="svg_320">
             <path d="m375.68,254.71l0,0.96c0,1.92 0.75,3.72 2.11,5.07c1.34,1.33 3.12,2.06 5,2.06l0.23,0c1.64,-0.03 3.12,-0.69 4.43,-1.95c1.3,-1.28 2.05,-3.1 2.05,-5.01l0,-1.13c0,-0.31 -0.06,-0.61 -0.16,-0.88c-0.13,-0.34 -0.32,-0.64 -0.57,-0.89c-0.46,-0.45 -1.08,-0.73 -1.77,-0.73l-8.81,0c-1,0 -1.86,0.58 -2.26,1.43c-0.15,0.31 -0.24,0.65 -0.24,1.01c-0.01,0.02 -0.01,0.04 -0.01,0.06zm1.04,0c0,-0.81 0.66,-1.46 1.47,-1.46l8.81,0c0.81,0 1.46,0.65 1.46,1.46l0,1.13c0,1.63 -0.63,3.18 -1.74,4.26c-1.11,1.08 -2.36,1.63 -3.72,1.66l-0.21,0c-1.61,0 -3.12,-0.62 -4.27,-1.76c-1.16,-1.15 -1.8,-2.69 -1.8,-4.33l0,-0.96z" fill="#403657" id="svg_321"/>
            </g>
           </g>
          </g>
          <g id="svg_322">
           <g id="svg_323">
            <g id="svg_324">
             <path d="m358.04,254.71l0,0.96c0,1.92 0.75,3.72 2.11,5.07c1.34,1.33 3.12,2.06 5,2.06l0.24,0c1.63,-0.03 3.12,-0.69 4.42,-1.95c1.3,-1.28 2.06,-3.1 2.06,-5.01l0,-1.13c0,-0.01 0,-0.03 -0.01,-0.04c0,-0.34 -0.08,-0.67 -0.21,-0.96c-0.39,-0.89 -1.27,-1.5 -2.29,-1.5l-8.81,0c-0.78,0 -1.47,0.35 -1.93,0.9c-0.22,0.27 -0.39,0.59 -0.48,0.93c-0.07,0.22 -0.1,0.44 -0.1,0.67zm1.04,0c0,-0.81 0.66,-1.46 1.47,-1.46l8.81,0c0.81,0 1.46,0.65 1.46,1.46l0,1.13c0,1.63 -0.63,3.18 -1.74,4.26c-1.1,1.08 -2.35,1.63 -3.71,1.66l-0.22,0c-1.61,0 -3.12,-0.62 -4.26,-1.76c-1.17,-1.15 -1.81,-2.69 -1.81,-4.33l0,-0.96z" fill="#403657" id="svg_325"/>
            </g>
           </g>
          </g>
          <g id="svg_326">
           <g id="svg_327">
            <path d="m395.78,251.79c-2.99,-0.13 -5.13,0.73 -5.97,1.15c-0.24,0.12 -0.87,0.53 -0.9,0.55l0.5,0.88c0.01,-0.01 0.69,-0.42 0.96,-0.54c0.83,-0.39 2.67,-1.17 5.41,-1l0,-1.04z" fill="#403657" id="svg_328"/>
           </g>
          </g>
          <g id="svg_329">
           <g id="svg_330">
            <path d="m376.38,254.75l0.34,-0.98c-0.06,-0.02 -1.52,-0.52 -3.12,-0.52c-1.71,0 -2.81,0.52 -2.85,0.54l0.45,0.94c0.01,-0.01 0.95,-0.44 2.4,-0.44c1.42,0 2.77,0.46 2.78,0.46z" fill="#403657" id="svg_331"/>
           </g>
          </g>
          <g id="svg_332">
           <g id="svg_333">
            <path d="m354.4,252.04l0,1.04c2.16,0.18 4.14,1.14 4.17,1.15l0.46,-0.93c-0.12,-0.06 -2.25,-1.09 -4.63,-1.26z" fill="#403657" id="svg_334"/>
           </g>
          </g>
         </g>
        </g>
        <path d="m366.2,256.05c0,1.28 -0.67,2.33 -1.49,2.33c-0.82,0 -1.48,-1.04 -1.48,-2.33c0,-1.29 0.67,-2.34 1.48,-2.34c0.82,0 1.49,1.05 1.49,2.34z" fill="#403657" id="svg_335"/>
        <path d="m383.58,256.05c0,1.28 -0.67,2.33 -1.49,2.33c-0.82,0 -1.48,-1.04 -1.48,-2.33c0,-1.29 0.67,-2.34 1.48,-2.34c0.82,0 1.49,1.05 1.49,2.34z" fill="#403657" id="svg_336"/>
        <path d="m359.89,248.88c0,0 6.17,-2.45 10.93,-0.39l-0.4,2.21c0,0 -5.15,-1.15 -10.19,0.73c-0.32,-1.02 -0.75,-1.51 -0.34,-2.55z" fill="#403657" id="svg_337"/>
        <path d="m388.16,248.88c0,0 -6.18,-2.45 -10.94,-0.39l0.4,2.21c0,0 5.15,-1.15 10.2,0.73c0.31,-1.02 0.74,-1.51 0.34,-2.55z" fill="#403657" id="svg_338"/>
        <g id="svg_339">
         <g id="svg_340">
          <path d="m374.31,265.83c0.97,0 1.93,-0.38 2.08,-0.44c0.3,-0.12 0.43,-0.45 0.32,-0.75c-0.12,-0.29 -0.46,-0.43 -0.75,-0.31c-0.52,0.21 -1.76,0.54 -2.3,0.22c-0.11,-0.07 -0.25,-0.19 -0.29,-0.54c-0.2,-2 0.35,-8.72 0.35,-8.79c0.03,-0.31 -0.21,-0.59 -0.52,-0.61c-0.32,-0.03 -0.6,0.2 -0.62,0.52c-0.03,0.28 -0.57,6.89 -0.35,9c0.08,0.79 0.5,1.2 0.84,1.4c0.37,0.22 0.81,0.3 1.24,0.3z" fill="#F97853" id="svg_341"/>
         </g>
        </g>
        <path d="m367.2,268.74c0.47,2.36 2.03,6.7 7.28,6.7c5.27,0 6.74,-3.96 7.25,-6.7l-14.53,0z" fill="#FFFFFF" id="svg_342"/>
        <g id="svg_343">
         <path d="m374.41,278.44c1.49,0 2.74,-0.75 2.8,-0.78c0.27,-0.17 0.36,-0.52 0.19,-0.79c-0.16,-0.27 -0.52,-0.36 -0.79,-0.2c-0.01,0.01 -1.04,0.62 -2.2,0.62c-1.06,0 -2.08,-0.61 -2.09,-0.61c-0.27,-0.17 -0.62,-0.09 -0.79,0.18c-0.16,0.27 -0.08,0.63 0.19,0.79c0.05,0.03 1.29,0.79 2.69,0.79z" fill="#F97853" id="svg_344"/>
        </g>
        <path d="m356.66,258.3c-0.43,-2.37 -0.86,-5.42 -0.55,-6.99c0.56,-2.77 2.85,-4.4 2.09,-7.07c-0.77,-2.68 2.06,-5.55 4.14,-6.03c2.08,-0.48 6.93,0.55 11.72,-1.72c4.56,-2.17 12.5,-0.61 13.79,2.32c1.57,3.54 -0.56,3.88 3.71,7.71c1.7,1.53 -0.32,5.5 -0.61,8.09c-0.13,1.18 -0.15,1.76 -0.1,3.04l0.02,0.65l5.11,0c0.56,-4.01 0.88,-8.42 1.06,-12.12c0.26,-5.41 -2.99,-10.38 -8.05,-12.33c-7.3,-2.8 -18.39,-5.03 -28.9,0.93c-3.87,2.2 -6.31,6.27 -6.39,10.73c-0.07,3.46 0.03,8.03 0.62,12.79l2.34,0z" fill="#403657" id="svg_345"/>
        <g id="svg_346">
         <path d="m393.71,260.5c-0.01,-1.33 0.08,-2.67 0.31,-3.99c0.32,-1.8 0.85,-3.43 2.69,-4.18c1.48,-0.6 3.06,-0.62 4.19,1.06c2.77,4.11 -0.32,16.91 -7.11,13.94l-0.08,-6.83z" fill="#FFA681" id="svg_347"/>
         <g id="svg_348">
          <g id="svg_349">
           <path d="m395.11,263.6c0.24,-0.04 0.44,-0.25 0.46,-0.52c0.29,-3.88 3.81,-6.13 3.84,-6.15c0.27,-0.17 0.35,-0.53 0.18,-0.79c-0.17,-0.27 -0.52,-0.35 -0.79,-0.18c-0.16,0.1 -4.04,2.57 -4.38,7.04c-0.02,0.31 0.21,0.59 0.53,0.61c0.05,0.01 0.11,0 0.16,-0.01z" fill="#F97853" id="svg_350"/>
          </g>
         </g>
         <g id="svg_351">
          <g id="svg_352">
           <path d="m398.58,260.98c0.11,-0.02 0.21,-0.07 0.29,-0.15c0.23,-0.22 0.23,-0.58 0.01,-0.81c-0.04,-0.04 -0.92,-0.93 -2.45,-1.28c-0.31,-0.07 -0.62,0.12 -0.69,0.43c-0.07,0.31 0.13,0.62 0.44,0.69c1.18,0.27 1.87,0.95 1.88,0.96c0.14,0.15 0.34,0.2 0.52,0.16z" fill="#F97853" id="svg_353"/>
          </g>
         </g>
        </g>
       </g>
      </g>
      <g id="svg_354">
       <path d="m404.51,297.51c-8.39,12.71 -40.48,56.66 -47.72,61.76c-9.43,6.65 -35.13,16.1 -49.89,25.95c-5.01,3.35 6.84,12.82 6.84,12.82s35.96,-10.11 52.16,-20.45c4.58,-2.93 23.64,-22.02 35.79,-38.95c4.16,-5.8 10.94,-13.86 11.91,-22.43c1.13,-9.86 -1.97,-15.14 -9.09,-18.7z" fill="#7846D1" id="svg_355"/>
      </g>
     </g>
    </g>
    <g id="svg_356">
     <path d="m340.9,411.93l-99.99,0c-1.27,0 -2.31,-1.04 -2.31,-2.31l0,-7.97c0,-1.28 1.04,-2.32 2.31,-2.32l99.99,0c1.28,0 2.31,1.04 2.31,2.32l0,7.97c0,1.27 -1.03,2.31 -2.31,2.31z" fill="#1A0B42" id="svg_357"/>
     <path d="m238.62,411.93l-19.66,-73.64c-1.11,-4.14 2.01,-8.19 6.29,-8.19l43.27,0c2.92,0 5.48,1.94 6.27,4.75l21.65,77.08l-57.82,0z" fill="#403657" id="svg_358"/>
     <path d="m274.79,334.85l21.48,76.45l4.94,0l-21.47,-76.45c-0.8,-2.81 -3.36,-4.76 -6.28,-4.76l-4.94,0c2.92,0 5.48,1.95 6.27,4.76z" fill="#1A0B42" id="svg_359"/>
     <path d="m263.67,374.31c1.12,4.86 -1.9,8.8 -6.76,8.8c-4.86,0 -9.7,-3.94 -10.83,-8.8c-1.12,-4.86 1.9,-8.8 6.76,-8.8c4.86,0 9.71,3.94 10.83,8.8z" fill="#614C6E" id="svg_360"/>
    </g>
   </g>
   <g id="svg_361">
    <g id="svg_362">
     <g id="svg_363">
      <g id="svg_364">
       <path d="m397.75,140.71c-3.64,0 -6.61,-2.97 -6.61,-6.61s2.97,-6.6 6.61,-6.6c3.64,0 6.6,2.96 6.6,6.6s-2.96,6.61 -6.6,6.61zm0,-11.14c-2.5,0 -4.53,2.03 -4.53,4.53c0,2.5 2.03,4.53 4.53,4.53c2.5,0 4.53,-2.03 4.53,-4.53c0,-2.5 -2.03,-4.53 -4.53,-4.53z" fill="#7846D1" id="svg_365"/>
      </g>
      <g id="svg_366">
       <path d="m421.52,163.87c-3.64,0 -6.61,-2.96 -6.61,-6.6c0,-3.64 2.97,-6.6 6.61,-6.6c3.64,0 6.6,2.96 6.6,6.6c0,3.64 -2.96,6.6 -6.6,6.6zm0,-11.13c-2.5,0 -4.53,2.03 -4.53,4.53c0,2.5 2.03,4.53 4.53,4.53c2.5,0 4.53,-2.03 4.53,-4.53c0,-2.5 -2.03,-4.53 -4.53,-4.53z" fill="#9C78ED" id="svg_367"/>
      </g>
      <g id="svg_368">
       <g id="svg_369">
        <g id="svg_370">
         <path d="m429.68,185.33c-0.57,0 -1.04,-0.46 -1.04,-1.04l0,-4.56c0,-0.58 0.47,-1.04 1.04,-1.04c0.57,0 1.03,0.46 1.03,1.04l0,4.56c0,0.58 -0.46,1.04 -1.03,1.04z" fill="#7846D1" id="svg_371"/>
        </g>
        <g id="svg_372">
         <path d="m429.68,193.32c-0.57,0 -1.04,-0.46 -1.04,-1.03l0,-4.57c0,-0.57 0.47,-1.04 1.04,-1.04c0.57,0 1.03,0.47 1.03,1.04l0,4.57c0,0.57 -0.46,1.03 -1.03,1.03z" fill="#7846D1" id="svg_373"/>
        </g>
       </g>
       <g id="svg_374">
        <g id="svg_375">
         <path d="m436.09,187.04l-4.1,0c-0.58,0 -1.04,-0.46 -1.04,-1.03c0,-0.57 0.46,-1.04 1.04,-1.04l4.1,0c0.57,0 1.03,0.47 1.03,1.04c0,0.57 -0.46,1.03 -1.03,1.03z" fill="#7846D1" id="svg_376"/>
        </g>
        <g id="svg_377">
         <path d="m427.37,187.04l-4.11,0c-0.57,0 -1.03,-0.46 -1.03,-1.03c0,-0.57 0.46,-1.04 1.03,-1.04l4.11,0c0.57,0 1.03,0.47 1.03,1.04c0,0.57 -0.46,1.03 -1.03,1.03z" fill="#7846D1" id="svg_378"/>
        </g>
       </g>
      </g>
      <g id="svg_379">
       <g id="svg_380">
        <g id="svg_381">
         <g id="svg_382">
          <path d="m393.21,159.73c-0.57,0 -1.03,-0.46 -1.03,-1.03l0,-4.57c0,-0.57 0.46,-1.04 1.03,-1.04c0.58,0 1.04,0.47 1.04,1.04l0,4.57c0,0.57 -0.46,1.03 -1.04,1.03z" fill="#5B23A9" id="svg_383"/>
         </g>
         <g id="svg_384">
          <path d="m393.21,167.73c-0.57,0 -1.03,-0.47 -1.03,-1.04l0,-4.57c0,-0.57 0.46,-1.03 1.03,-1.03c0.58,0 1.04,0.46 1.04,1.03l0,4.57c0,0.57 -0.46,1.04 -1.04,1.04z" fill="#5B23A9" id="svg_385"/>
         </g>
        </g>
        <g id="svg_386">
         <g id="svg_387">
          <path d="m399.63,161.45l-4.11,0c-0.57,0 -1.03,-0.47 -1.03,-1.04c0,-0.57 0.46,-1.03 1.03,-1.03l4.11,0c0.57,0 1.03,0.46 1.03,1.03c0,0.57 -0.46,1.04 -1.03,1.04z" fill="#5B23A9" id="svg_388"/>
         </g>
         <g id="svg_389">
          <path d="m390.91,161.45l-4.11,0c-0.57,0 -1.03,-0.47 -1.03,-1.04c0,-0.57 0.46,-1.03 1.03,-1.03l4.11,0c0.57,0 1.03,0.46 1.03,1.03c0,0.57 -0.46,1.04 -1.03,1.04z" fill="#5B23A9" id="svg_390"/>
         </g>
        </g>
       </g>
      </g>
     </g>
    </g>
    <g id="svg_391">
     <g id="svg_392">
      <g id="svg_393">
       <path d="m91.3,110.39c0,-3.64 2.96,-6.6 6.6,-6.6c3.64,0 6.6,2.96 6.6,6.6s-2.96,6.6 -6.6,6.6c-3.64,0 -6.6,-2.96 -6.6,-6.6zm2.07,0c0,2.5 2.03,4.53 4.53,4.53c2.5,0 4.53,-2.03 4.53,-4.53c0,-2.5 -2.03,-4.53 -4.53,-4.53c-2.5,0 -4.53,2.03 -4.53,4.53z" fill="#7846D1" id="svg_394"/>
      </g>
      <g id="svg_395">
       <path d="m64.78,135.56c0,-3.64 2.96,-6.61 6.6,-6.61c3.64,0 6.6,2.97 6.6,6.61s-2.96,6.6 -6.6,6.6c-3.64,0 -6.6,-2.96 -6.6,-6.6zm2.07,0c0,2.5 2.03,4.53 4.53,4.53c2.5,0 4.53,-2.03 4.53,-4.53c0,-2.5 -2.03,-4.53 -4.53,-4.53c-2.5,0 -4.53,2.03 -4.53,4.53z" fill="#9C78ED" id="svg_396"/>
      </g>
      <g id="svg_397">
       <g id="svg_398">
        <g id="svg_399">
         <path d="m51.05,144.82c0.57,0 1.04,-0.46 1.04,-1.03l0,-4.57c0,-0.57 -0.47,-1.04 -1.04,-1.04c-0.57,0 -1.04,0.47 -1.04,1.04l0,4.57c0,0.57 0.47,1.03 1.04,1.03z" fill="#7846D1" id="svg_400"/>
        </g>
        <g id="svg_401">
         <path d="m51.05,152.82c0.57,0 1.04,-0.47 1.04,-1.04l0,-4.57c0,-0.57 -0.47,-1.03 -1.04,-1.03c-0.57,0 -1.04,0.46 -1.04,1.03l0,4.57c0,0.57 0.47,1.04 1.04,1.04z" fill="#7846D1" id="svg_402"/>
        </g>
       </g>
       <g id="svg_403">
        <g id="svg_404">
         <path d="m44.64,146.54l4.1,0c0.57,0 1.04,-0.47 1.04,-1.04c0,-0.57 -0.47,-1.03 -1.04,-1.03l-4.1,0c-0.57,0 -1.04,0.46 -1.04,1.03c0,0.57 0.47,1.04 1.04,1.04z" fill="#7846D1" id="svg_405"/>
        </g>
        <g id="svg_406">
         <path d="m53.36,146.54l4.1,0c0.57,0 1.04,-0.47 1.04,-1.04c0,-0.57 -0.47,-1.03 -1.04,-1.03l-4.1,0c-0.57,0 -1.04,0.46 -1.04,1.03c0,0.57 0.47,1.04 1.04,1.04z" fill="#7846D1" id="svg_407"/>
        </g>
       </g>
      </g>
      <g id="svg_408">
       <g id="svg_409">
        <g id="svg_410">
         <g id="svg_411">
          <path d="m74.92,109.71c0.57,0 1.03,-0.46 1.03,-1.04l0,-4.56c0,-0.58 -0.46,-1.04 -1.03,-1.04c-0.58,0 -1.04,0.46 -1.04,1.04l0,4.56c0,0.58 0.46,1.04 1.04,1.04z" fill="#5B23A9" id="svg_412"/>
         </g>
         <g id="svg_413">
          <path d="m74.92,117.7c0.57,0 1.03,-0.46 1.03,-1.03l0,-4.57c0,-0.57 -0.46,-1.04 -1.03,-1.04c-0.58,0 -1.04,0.47 -1.04,1.04l0,4.57c0,0.57 0.46,1.03 1.04,1.03z" fill="#5B23A9" id="svg_414"/>
         </g>
        </g>
        <g id="svg_415">
         <g id="svg_416">
          <path d="m68.5,111.42l4.11,0c0.57,0 1.03,-0.46 1.03,-1.03s-0.46,-1.04 -1.03,-1.04l-4.11,0c-0.57,0 -1.03,0.47 -1.03,1.04s0.46,1.03 1.03,1.03z" fill="#5B23A9" id="svg_417"/>
         </g>
         <g id="svg_418">
          <path d="m77.22,111.42l4.11,0c0.57,0 1.03,-0.46 1.03,-1.03s-0.46,-1.04 -1.03,-1.04l-4.11,0c-0.57,0 -1.03,0.47 -1.03,1.04s0.46,1.03 1.03,1.03z" fill="#5B23A9" id="svg_419"/>
         </g>
        </g>
       </g>
      </g>
     </g>
    </g>
    <g id="svg_420">
     <path d="m346.03,117.4l0,20.11c0,2.65 -2.16,4.81 -4.81,4.81l-36.51,0l-11.03,3.95c-1.13,0.41 -2.21,-0.7 -1.78,-1.82l4.17,-10.77l0,-16.28c0,-2.66 2.16,-4.82 4.82,-4.82l40.32,0c2.66,0 4.82,2.16 4.82,4.82z" fill="#9C78ED" id="svg_421"/>
     <g id="svg_422" opacity="0.5">
      <path d="m338.33,123.09l-33.49,0c-0.73,0 -1.33,-0.6 -1.33,-1.33l0,0c0,-0.74 0.6,-1.33 1.33,-1.33l33.49,0c0.74,0 1.33,0.6 1.33,1.33l0,0c0,0.73 -0.59,1.33 -1.33,1.33z" fill="#E0D5F8" id="svg_423"/>
      <path d="m338.33,128.44l-33.49,0c-0.73,0 -1.33,-0.6 -1.33,-1.33l0,0c0,-0.73 0.6,-1.33 1.33,-1.33l33.49,0c0.74,0 1.33,0.6 1.33,1.33l0,0c0,0.73 -0.59,1.33 -1.33,1.33z" fill="#E0D5F8" id="svg_424"/>
      <path d="m338.33,133.79l-33.49,0c-0.73,0 -1.33,-0.6 -1.33,-1.33l0,0c0,-0.73 0.6,-1.33 1.33,-1.33l33.49,0c0.74,0 1.33,0.6 1.33,1.33l0,0c0,0.73 -0.59,1.33 -1.33,1.33z" fill="#E0D5F8" id="svg_425"/>
     </g>
    </g>
   </g>
   <g id="svg_426">
    <path d="m453.72,419.45l0,0.72c0,4.14 -3.36,7.5 -7.51,7.5l-389.43,0c-4.15,0 -7.51,-3.36 -7.51,-7.5l0,-0.72c0,-4.14 3.36,-7.51 7.51,-7.51l389.43,0c4.15,0 7.51,3.37 7.51,7.51z" fill="#5B23A9" id="svg_427"/>
    <path d="m453.72,419.45l0,0.36l-404.45,0l0,-0.36c0,-4.14 3.36,-7.51 7.51,-7.51l389.43,0c4.15,0 7.51,3.37 7.51,7.51z" fill="#7846D1" id="svg_428"/>
   </g>
  </g>
 </g>
</svg>